<svg width="44" height="44" viewBox="0 0 44 44" fill="none" xmlns="http://www.w3.org/2000/svg">
<g filter="url(#filter0_d_140_315)">
<rect x="4.75" y="2.75" width="30.5" height="30.5" rx="15.25" stroke="#3A6DD1" stroke-width="1.5" shape-rendering="crispEdges"/>
<rect x="8.75" y="6.75" width="22.5" height="22.5" rx="11.25" fill="#3A6DD1"/>
<rect x="8.75" y="6.75" width="22.5" height="22.5" rx="11.25" stroke="#3A6DD1" stroke-width="1.5"/>
<path d="M15.5473 24.5V22.715L20.1373 18.38C20.5 18.0513 20.7663 17.7567 20.9363 17.496C21.1063 17.2353 21.2197 16.9973 21.2763 16.782C21.3443 16.5667 21.3783 16.3683 21.3783 16.187C21.3783 15.711 21.214 15.3483 20.8853 15.099C20.568 14.8383 20.0977 14.708 19.4743 14.708C18.9757 14.708 18.511 14.8043 18.0803 14.997C17.661 15.1897 17.304 15.49 17.0093 15.898L15.0033 14.606C15.4567 13.926 16.0913 13.3877 16.9073 12.991C17.7233 12.5943 18.664 12.396 19.7293 12.396C20.6133 12.396 21.384 12.5433 22.0413 12.838C22.71 13.1213 23.2257 13.5237 23.5883 14.045C23.9623 14.5663 24.1493 15.1897 24.1493 15.915C24.1493 16.3003 24.0983 16.6857 23.9963 17.071C23.9057 17.445 23.713 17.8417 23.4183 18.261C23.135 18.6803 22.7157 19.1507 22.1603 19.672L18.3523 23.259L17.8253 22.256H24.5403V24.5H15.5473Z" fill="white"/>
</g>
<defs>
<filter id="filter0_d_140_315" x="0" y="0" width="44" height="44" filterUnits="userSpaceOnUse" color-interpolation-filters="sRGB">
<feFlood flood-opacity="0" result="BackgroundImageFix"/>
<feColorMatrix in="SourceAlpha" type="matrix" values="0 0 0 0 0 0 0 0 0 0 0 0 0 0 0 0 0 0 127 0" result="hardAlpha"/>
<feOffset dx="2" dy="4"/>
<feGaussianBlur stdDeviation="3"/>
<feComposite in2="hardAlpha" operator="out"/>
<feColorMatrix type="matrix" values="0 0 0 0 0.227451 0 0 0 0 0.427451 0 0 0 0 0.819608 0 0 0 0.3 0"/>
<feBlend mode="normal" in2="BackgroundImageFix" result="effect1_dropShadow_140_315"/>
<feBlend mode="normal" in="SourceGraphic" in2="effect1_dropShadow_140_315" result="shape"/>
</filter>
</defs>
</svg>
