<svg width="44" height="44" viewBox="0 0 44 44" fill="none" xmlns="http://www.w3.org/2000/svg">
<g filter="url(#filter0_d_140_320)">
<rect x="4.75" y="2.75" width="30.5" height="30.5" rx="15.25" stroke="#3A6DD1" stroke-width="1.5" shape-rendering="crispEdges"/>
<rect x="8.75" y="6.75" width="22.5" height="22.5" rx="11.25" fill="#3A6DD1"/>
<rect x="8.75" y="6.75" width="22.5" height="22.5" rx="11.25" stroke="#3A6DD1" stroke-width="1.5"/>
<path d="M19.4917 24.704C18.6644 24.704 17.8427 24.5963 17.0267 24.381C16.2107 24.1543 15.5194 23.837 14.9527 23.429L16.0237 21.321C16.4771 21.6497 17.0041 21.9103 17.6047 22.103C18.2054 22.2957 18.8117 22.392 19.4237 22.392C20.1151 22.392 20.6591 22.256 21.0557 21.984C21.4524 21.712 21.6507 21.338 21.6507 20.862C21.6507 20.4087 21.4751 20.0517 21.1237 19.791C20.7724 19.5303 20.2057 19.4 19.4237 19.4H18.1657V17.581L21.4807 13.824L21.7867 14.81H15.5477V12.6H23.8777V14.385L20.5797 18.142L19.1857 17.343H19.9847C21.4467 17.343 22.5517 17.6717 23.2997 18.329C24.0477 18.9863 24.4217 19.8307 24.4217 20.862C24.4217 21.5307 24.2461 22.1597 23.8947 22.749C23.5434 23.327 23.0051 23.7973 22.2797 24.16C21.5544 24.5227 20.6251 24.704 19.4917 24.704Z" fill="white"/>
</g>
<defs>
<filter id="filter0_d_140_320" x="0" y="0" width="44" height="44" filterUnits="userSpaceOnUse" color-interpolation-filters="sRGB">
<feFlood flood-opacity="0" result="BackgroundImageFix"/>
<feColorMatrix in="SourceAlpha" type="matrix" values="0 0 0 0 0 0 0 0 0 0 0 0 0 0 0 0 0 0 127 0" result="hardAlpha"/>
<feOffset dx="2" dy="4"/>
<feGaussianBlur stdDeviation="3"/>
<feComposite in2="hardAlpha" operator="out"/>
<feColorMatrix type="matrix" values="0 0 0 0 0.227451 0 0 0 0 0.427451 0 0 0 0 0.819608 0 0 0 0.3 0"/>
<feBlend mode="normal" in2="BackgroundImageFix" result="effect1_dropShadow_140_320"/>
<feBlend mode="normal" in="SourceGraphic" in2="effect1_dropShadow_140_320" result="shape"/>
</filter>
</defs>
</svg>
