<svg id="Group_2712" data-name="Group 2712" xmlns="http://www.w3.org/2000/svg" xmlns:xlink="http://www.w3.org/1999/xlink" width="40.876" height="40.876" viewBox="0 0 40.876 40.876">
  <defs>
    <clipPath id="clip-path">
      <path id="Path_4643" data-name="Path 4643" d="M0,17.772H40.876V-23.1H0Z" transform="translate(0 23.104)" fill="none"/>
    </clipPath>
  </defs>
  <g id="Group_2626" data-name="Group 2626" clip-path="url(#clip-path)">
    <g id="Group_2624" data-name="Group 2624" transform="translate(8.581 12.351)">
      <path id="Path_4641" data-name="Path 4641" d="M.715,4.232H17.164l-3.63,3.63a1.646,1.646,0,1,0,2.327,2.328l6.44-6.44a1.594,1.594,0,0,0,.207-.253c.025-.037.042-.08.065-.12a1.57,1.57,0,0,0,.085-.163,1.335,1.335,0,0,0,.051-.163c.014-.048.032-.094.042-.143a1.644,1.644,0,0,0,0-.644c-.011-.05-.028-.1-.042-.143a1.361,1.361,0,0,0-.051-.165,1.772,1.772,0,0,0-.085-.163c-.023-.041-.041-.081-.065-.12A1.594,1.594,0,0,0,22.3,1.42L15.86-5.02a1.646,1.646,0,0,0-2.327,0,1.644,1.644,0,0,0,0,2.328l3.63,3.63H.715a1.646,1.646,0,0,0,0,3.293" transform="translate(0.93 5.501)" fill="#e1251b"/>
    </g>
    <g id="Group_2625" data-name="Group 2625" transform="translate(0)">
      <path id="Path_4642" data-name="Path 4642" d="M8.886,17.772A20.461,20.461,0,0,0,29.324-2.666,20.461,20.461,0,0,0,8.886-23.1,20.461,20.461,0,0,0-11.552-2.666,20.461,20.461,0,0,0,8.886,17.772m0-37.586A17.166,17.166,0,0,1,26.032-2.666,17.164,17.164,0,0,1,8.886,14.48,17.164,17.164,0,0,1-8.259-2.666,17.166,17.166,0,0,1,8.886-19.813" transform="translate(11.552 23.104)" fill="#e1251b"/>
    </g>
  </g>
</svg>
