<svg xmlns="http://www.w3.org/2000/svg" width="115.426" height="95.995" viewBox="0 0 115.426 95.995">
  <g id="contact_icon" transform="translate(3812.546 -13352.884)">
    <path id="Path_19118" data-name="Path 19118" d="M96.4,34.742V13.185A11.681,11.681,0,0,0,84.72,1.5H13.185A11.687,11.687,0,0,0,1.5,13.185v44.89A11.687,11.687,0,0,0,13.185,69.76h2.478V81.295L32.385,69.76H43.047" transform="translate(-3812.046 13353.384)" fill="none" stroke="#fff" stroke-linecap="round" stroke-linejoin="round" stroke-width="4"/>
    <path id="Path_19119" data-name="Path 19119" d="M52.967,35.8h52.672a8.6,8.6,0,0,1,8.6,8.6V77.453a8.6,8.6,0,0,1-8.6,8.6h-1.827v8.493L91.5,86.055H52.967a8.6,8.6,0,0,1-8.6-8.6V44.4A8.6,8.6,0,0,1,52.967,35.8Z" transform="translate(-3813.361 13352.331)" fill="none" stroke="#fff" stroke-linecap="round" stroke-linejoin="round" stroke-width="4"/>
    <circle id="Ellipse_65" data-name="Ellipse 65" cx="4.289" cy="4.289" r="4.289" transform="translate(-3753.908 13409.479)" fill="none" stroke="#fff" stroke-linecap="round" stroke-linejoin="round" stroke-width="4"/>
    <path id="Path_19120" data-name="Path 19120" d="M4.289,0A4.289,4.289,0,1,1,0,4.289,4.289,4.289,0,0,1,4.289,0Z" transform="translate(-3738.348 13409.479)" fill="none" stroke="#fff" stroke-linecap="round" stroke-width="4"/>
    <circle id="Ellipse_67" data-name="Ellipse 67" cx="4.289" cy="4.289" r="4.289" transform="translate(-3722.787 13409.479)" fill="none" stroke="#fff" stroke-linecap="round" stroke-linejoin="round" stroke-width="4"/>
  </g>
</svg>
