<svg xmlns="http://www.w3.org/2000/svg" xmlns:xlink="http://www.w3.org/1999/xlink" width="151.082" height="112.805" viewBox="0 0 151.082 112.805">
  <defs>
    <clipPath id="clip-path">
      <rect id="Rectangle_38" data-name="Rectangle 38" width="151.082" height="112.805" fill="none"/>
    </clipPath>
  </defs>
  <g id="Group_22206" data-name="Group 22206" transform="translate(304 -393)">
    <g id="Group_13496" data-name="Group 13496" transform="translate(-304 393)" clip-path="url(#clip-path)">
      <path id="Path_18852" data-name="Path 18852" d="M630.473,466.77v-.618h.4c.217,0,.512.016.512.281,0,.286-.152.337-.407.337Zm0,.434h.265l.615,1.08h.675l-.68-1.124a.61.61,0,0,0,.641-.667c0-.589-.406-.778-1.093-.778H629.9v2.569h.57V467.2m2.889-.2a2.484,2.484,0,1,0-2.478,2.386A2.351,2.351,0,0,0,633.362,467m-.715,0a1.761,1.761,0,0,1-1.763,1.837v-.008A1.832,1.832,0,1,1,632.647,467" transform="translate(-482.28 -356.585)"/>
      <path id="Path_18853" data-name="Path 18853" d="M60.141,364.967l0,27.07h7.645v-27.07ZM0,364.93v27.107H7.713V371.454l5.975,0a5.619,5.619,0,0,1,4.343,1.51c1.209,1.289,1.7,3.366,1.7,7.168v11.9h7.473V377.061c0-10.689-6.813-12.131-13.479-12.131Zm72.451.038v27.069h12.4c6.607,0,8.763-1.1,11.1-3.562,1.648-1.729,2.713-5.526,2.713-9.675,0-3.805-.9-7.2-2.474-9.313-2.832-3.78-6.913-4.519-13-4.519Zm7.584,5.894h3.287c4.769,0,7.853,2.142,7.853,7.7s-3.084,7.7-7.853,7.7H80.035Zm-30.916-5.894-6.38,21.454-6.114-21.453H28.371L37.1,392.037H48.122l8.8-27.069Zm53.1,27.069h7.646V364.969h-7.648Zm21.432-27.06-10.675,27.05h7.538l1.689-4.781h12.634l1.6,4.781h8.185l-10.757-27.052Zm4.963,4.935,4.631,12.673h-9.409Z" transform="translate(0 -280.075)"/>
      <path id="Path_18854" data-name="Path 18854" d="M81.19,21.483v-6.5c.631-.045,1.269-.078,1.919-.1,17.786-.559,29.456,15.283,29.456,15.283s-12.6,17.505-26.116,17.505a16.381,16.381,0,0,1-5.258-.841V27.107c6.924.836,8.316,3.9,12.481,10.834l9.259-7.806s-6.758-8.864-18.152-8.864a33.529,33.529,0,0,0-3.588.212M81.19,0V9.714c.638-.051,1.277-.091,1.919-.114,24.735-.833,40.849,20.285,40.849,20.285s-18.51,22.508-37.793,22.508a28.428,28.428,0,0,1-4.976-.438v6a32.741,32.741,0,0,0,4.144.269c17.945,0,30.922-9.164,43.489-20.01,2.082,1.668,10.612,5.726,12.366,7.5-11.949,10-39.794,18.064-55.579,18.064-1.521,0-2.984-.092-4.42-.23V72h68.205V0Zm0,46.828v5.127c-16.6-2.959-21.2-20.212-21.2-20.212a35.88,35.88,0,0,1,21.2-10.26v5.625c-.01,0-.017,0-.026,0-6.945-.834-12.371,5.655-12.371,5.655s3.04,10.924,12.4,14.068M51.711,31A41.106,41.106,0,0,1,81.19,14.979V9.714C59.434,11.46,40.6,29.885,40.6,29.885S51.265,60.733,81.19,63.557v-5.6C59.23,55.2,51.711,31,51.711,31" transform="translate(-31.156)"/>
    </g>
  </g>
</svg>
