<svg width="24" height="24" viewBox="0 0 24 24" fill="none" xmlns="http://www.w3.org/2000/svg">
<rect x="0.5" y="0.5" width="23" height="23" rx="11.5" fill="#E1251B"/>
<rect x="0.5" y="0.5" width="23" height="23" rx="11.5" stroke="#E1251B"/>
<path d="M8.33334 7.32642C8.33334 6.67898 8.33334 6.35526 8.46834 6.17681C8.58594 6.02135 8.76569 5.92515 8.96028 5.91353C9.18363 5.9002 9.45299 6.07977 9.99169 6.4389L17.0021 11.1125C17.4472 11.4092 17.6697 11.5576 17.7473 11.7446C17.8151 11.9081 17.8151 12.0919 17.7473 12.2554C17.6697 12.4424 17.4472 12.5908 17.0021 12.8875L9.99169 17.5611C9.45299 17.9202 9.18363 18.0998 8.96028 18.0865C8.76569 18.0749 8.58594 17.9787 8.46834 17.8232C8.33334 17.6447 8.33334 17.321 8.33334 16.6736V7.32642Z" fill="white" stroke="#E1251B" stroke-width="2" stroke-linecap="round" stroke-linejoin="round"/>
</svg>
