<svg xmlns="http://www.w3.org/2000/svg" xmlns:xlink="http://www.w3.org/1999/xlink" width="98.879" height="155.083" viewBox="0 0 98.879 155.083">
  <defs>
    <clipPath id="clip-path">
      <rect id="Rectangle_12895" data-name="Rectangle 12895" width="89.555" height="155.083" fill="none"/>
    </clipPath>
    <clipPath id="clip-path-3">
      <rect id="Rectangle_12893" data-name="Rectangle 12893" width="4.384" height="2.544" fill="none"/>
    </clipPath>
  </defs>
  <g id="shopping_element_04" transform="translate(9.324)">
    <ellipse id="Ellipse_72" data-name="Ellipse 72" cx="29.5" cy="9" rx="29.5" ry="9" transform="translate(-9.324 111.667)" fill="#6f81a5" opacity="0.33"/>
    <g id="Group_47683" data-name="Group 47683" clip-path="url(#clip-path)">
      <g id="Group_47682" data-name="Group 47682">
        <g id="Group_47681" data-name="Group 47681" clip-path="url(#clip-path)">
          <path id="Path_42856" data-name="Path 42856" d="M4.751,200.012s-.545,3.1-.227,3.846c.085.033,3.271,1.637,3.581,1.415a14.411,14.411,0,0,0,3.171-3.54s4.376-2.488,4.76-4.621c.411-2.287-3.353-1.666-3.353-1.666Z" transform="translate(-1.887 -83.326)" fill="#002e5b"/>
          <path id="Path_42857" data-name="Path 42857" d="M8.342,122.654l-1.3,22.026-1.633,6.268-.543,18.4c.989,1.392,4.242,1.541,4.242,1.541l3.146-.99,2.707-2.758.393-18.031,7.67-23.329Z" transform="translate(-2.075 -52.312)" fill="#1c4b94"/>
          <path id="Path_42858" data-name="Path 42858" d="M36.646,210.637l5.99-.334,2.886,1.62-.833,3.794-7.8,2.75-5.97,1.367L27.96,218.55l.2-4.035Z" transform="translate(-11.925 -89.695)" fill="#002e5b"/>
          <path id="Path_42859" data-name="Path 42859" d="M35.373,106.86,35.05,117.1s-2.2,22.963-2.23,24.511c-.05,2.008-1.983,24.313-1.983,24.313l-3.926,3.482-6.81-.972,1.907-25.09-1.19-22.406-9.889-7.127,1.644-9.882,16.62-2.007Z" transform="translate(-4.661 -43.47)" fill="#2565c4"/>
          <path id="Path_42860" data-name="Path 42860" d="M31.778,39.651s2.506-2.042,4.15-3.635c5.285-2.535,12.51-11.458,15.833-12.54,1.089-.458-.641-3.708-1.805-2.709S38.883,25.692,36.63,28.1c-1.433.2-7.423,3.427-7.423,3.427l-.56,5.284Z" transform="translate(-12.218 -8.777)" fill="#f89c69"/>
          <path id="Path_42861" data-name="Path 42861" d="M1.575,58.01.332,55.069,1.48,49.534s3.353-1.734,5-2.617C9.83,45.129,15.588,42.1,15.588,42.1s5.608,6.94,4.332,7.97c-.726.891-15.631,8.315-15.631,8.315Z" transform="translate(-0.142 -17.956)" fill="#ce3c4e"/>
          <path id="Path_42862" data-name="Path 42862" d="M14.6,101.921l-.8,2.008s5.768,5.223,16.332,5.681c6.016-.376,6.467-2.75,6.467-2.75l-.338-2.609Z" transform="translate(-5.884 -43.47)" fill="#1c4b94"/>
          <path id="Path_42863" data-name="Path 42863" d="M6.922,52.651,2.654,54.226S-.238,57.951.016,61.02L6.922,73.18l1.792,7.728s9.7,5.152,15.207,5.148c3.081,0,6.452-2.818,6.452-2.818l.178-7.718L29.388,62.149l-7.357-4.539-8.905-3.373Z" transform="translate(0 -22.456)" fill="#ff786e"/>
          <path id="Path_42864" data-name="Path 42864" d="M27.132,48.167a13.616,13.616,0,0,0-2.623,4.362l-3.231,1.3-5.017-.454s-4.321-.965-2.96-2a2.608,2.608,0,0,0,1.261-2.124l6.459-3.211s5.818,1.5,6.111,2.125" transform="translate(-5.56 -19.637)" fill="#ffc994"/>
          <path id="Path_42865" data-name="Path 42865" d="M35.815,29.954c2.683,4.018-.954,14.165-.954,14.165l-4.328-.369-.658-9.888s5.37-4.289,5.94-3.907" transform="translate(-12.742 -12.765)" fill="#ffc994"/>
          <path id="Path_42866" data-name="Path 42866" d="M28.463,21.965l.9,4.26-2.284,3.15-.555,3.792s-.466-2.511-.483-2.4c-3.061.012-1.732,5.159-1.732,5.159-.452.74-2.515,3.893-2.515,3.893l-2.609.247-6.563-2.683-1.694-7.952s1.158-4.886,2.483-6.339c2.913-3.2,8.343-3.575,8.343-3.575Z" transform="translate(-4.661 -8.325)" fill="#603913"/>
          <path id="Path_42867" data-name="Path 42867" d="M13.372,53.836c.517,1.9,6.251,2.47,6.251,2.47s5.021-1.184,5.25-1.345c1.679.714,2.365,3.526,2.365,3.526A28.66,28.66,0,0,1,20.3,59.806c-2.242,0-7.761-1.071-8.089-4.559a5.63,5.63,0,0,1,1.162-1.41" transform="translate(-5.208 -22.961)" fill="#bfcad8"/>
          <path id="Path_42868" data-name="Path 42868" d="M110.22,24.222l-4.524,2.2V12.666l4.524-2.2Z" transform="translate(-45.079 -4.464)" fill="#cfa07f"/>
          <path id="Path_42869" data-name="Path 42869" d="M96.412,23.549,83.928,17.477V3.721L96.412,9.793Z" transform="translate(-35.796 -1.587)" fill="#dfbd9f"/>
          <path id="Path_42870" data-name="Path 42870" d="M88.344,0l-4.4,2.138L96.418,8.206,100.942,6Z" transform="translate(-35.802 0)" fill="#ffecd9"/>
          <path id="Path_42871" data-name="Path 42871" d="M99.981,27.965,95.6,30.1V16.767l4.384-2.132Z" transform="translate(-40.772 -6.242)" fill="#cfa07f"/>
          <path id="Path_42872" data-name="Path 42872" d="M86.6,27.313,74.5,21.429V8.1l12.1,5.884Z" transform="translate(-31.775 -3.454)" fill="#dfbd9f"/>
          <g id="Group_47680" data-name="Group 47680" transform="translate(54.824 20.344)" opacity="0.5">
            <g id="Group_47679" data-name="Group 47679">
              <g id="Group_47678" data-name="Group 47678" clip-path="url(#clip-path-3)">
                <path id="Path_42873" data-name="Path 42873" d="M99.981,35.886v-.412L95.6,37.607v.412Z" transform="translate(-95.596 -35.474)" fill="#fffefb"/>
              </g>
            </g>
          </g>
          <path id="Path_42874" data-name="Path 42874" d="M78.781,4.491,74.517,6.564l12.089,5.88,4.384-2.135Z" transform="translate(-31.782 -1.916)" fill="#ffecd9"/>
          <path id="Path_42875" data-name="Path 42875" d="M90.309,32.584l-4.384,2.132V21.385l4.384-2.132Z" transform="translate(-36.647 -8.211)" fill="#cfa07f"/>
          <path id="Path_42876" data-name="Path 42876" d="M76.929,31.931l-12.1-5.884V12.716l12.1,5.884Z" transform="translate(-27.651 -5.423)" fill="#e2b99a"/>
          <path id="Path_42877" data-name="Path 42877" d="M67.628,20.452v4.309l8.781,4.258v-4.31Z" transform="translate(-28.843 -8.723)" fill="#fffefb"/>
          <path id="Path_42878" data-name="Path 42878" d="M69.111,9.11l-4.265,2.072,12.089,5.88,4.384-2.135Z" transform="translate(-27.657 -3.885)" fill="#ffecd9"/>
          <path id="Path_42879" data-name="Path 42879" d="M97.444,24.563l5.44-3.092,2,2.319-1.632,5.2a25.513,25.513,0,0,0-3.637,3.388c-.318-.6-2.689-.808-4.161-.5A44.46,44.46,0,0,1,96.456,26.1Z" transform="translate(-40.71 -9.157)" fill="#ffc994"/>
          <path id="Path_42880" data-name="Path 42880" d="M66.47,53.516,73.1,51.454,83.721,37.183l4.084.961L78.487,56.7,70.475,60.32Z" transform="translate(-28.35 -15.859)" fill="#ffc994"/>
          <path id="Path_42881" data-name="Path 42881" d="M37.616,72.237c.017-1.177.277-3.265.277-3.265l2.867-3.407,6.2-.678,9.316-1.415,2.413,1.7-.079,7.3L46.016,75.717s-8.471,1.683-8.4-3.48" transform="translate(-16.043 -27.071)" fill="#ce3c4e"/>
          <path id="Path_42882" data-name="Path 42882" d="M83.306,218.273l-24.5-12.626,24.5-12.626,24.5,12.626Z" transform="translate(-25.083 -82.324)" fill="#f6ca9f" fill-rule="evenodd"/>
          <path id="Path_42883" data-name="Path 42883" d="M83.306,218.26,58.812,205.638l24.494-12.622L107.8,205.638Z" transform="translate(-25.084 -82.322)" fill="#ffe1ab" fill-rule="evenodd"/>
          <path id="Path_42884" data-name="Path 42884" d="M58.753,206.686l24.5-12.625v13.414L58.753,220.1Z" transform="translate(-25.058 -82.767)" fill="#91633e" fill-rule="evenodd"/>
          <path id="Path_42885" data-name="Path 42885" d="M101.482,193.989l24.5,12.625v13.453l-24.5-12.626Z" transform="translate(-43.282 -82.737)" fill="#bb884f" fill-rule="evenodd"/>
          <path id="Path_42886" data-name="Path 42886" d="M121.427,214.008l-4.524,2.2V202.452l4.524-2.2Z" transform="translate(-49.859 -85.408)" fill="#e29aba"/>
          <path id="Path_42887" data-name="Path 42887" d="M107.619,213.335l-12.484-6.072V193.507l12.484,6.072Z" transform="translate(-40.575 -82.531)" fill="#c270a0"/>
          <path id="Path_42888" data-name="Path 42888" d="M99.551,189.786l-4.4,2.138,12.475,6.068,4.524-2.2Z" transform="translate(-40.582 -80.944)" fill="#edb6cd"/>
          <path id="Path_42889" data-name="Path 42889" d="M109.536,218.851l-4.524,2.2V207.3l4.524-2.2Z" transform="translate(-44.788 -87.474)" fill="#e29aba"/>
          <path id="Path_42890" data-name="Path 42890" d="M95.728,218.178l-12.484-6.072V198.35l12.484,6.072Z" transform="translate(-35.504 -84.597)" fill="#c270a0"/>
          <path id="Path_42891" data-name="Path 42891" d="M87.66,194.628l-4.4,2.138,12.475,6.068,4.524-2.2Z" transform="translate(-35.51 -83.01)" fill="#edb6cd"/>
          <path id="Path_42892" data-name="Path 42892" d="M98.573,223.5l-4.384,2.132V212.3l4.384-2.132Z" transform="translate(-40.172 -89.636)" fill="#e29aba"/>
          <path id="Path_42893" data-name="Path 42893" d="M85.193,222.843l-12.1-5.884V203.628l12.1,5.884Z" transform="translate(-31.175 -86.848)" fill="#c270a0"/>
          <path id="Path_42894" data-name="Path 42894" d="M77.375,200.022l-4.265,2.072,12.089,5.88,4.384-2.135Z" transform="translate(-31.182 -85.31)" fill="#edb6cd"/>
          <path id="Path_42895" data-name="Path 42895" d="M88.6,228.5l-4.384,2.132V217.3l4.384-2.132Z" transform="translate(-35.918 -91.769)" fill="#e29aba"/>
          <path id="Path_42896" data-name="Path 42896" d="M75.219,227.845l-12.1-5.884V208.63l12.1,5.884Z" transform="translate(-26.922 -88.981)" fill="#d47baf"/>
          <path id="Path_42897" data-name="Path 42897" d="M65.983,216.525v4.309l8.882,4.368v-4.309Z" transform="translate(-28.142 -92.349)" fill="#fff4f2"/>
          <path id="Path_42898" data-name="Path 42898" d="M67.4,205.024,63.136,207.1l12.089,5.88,4.384-2.135Z" transform="translate(-26.928 -87.443)" fill="#ffc4dd"/>
          <path id="Path_42899" data-name="Path 42899" d="M107.65,222.858l4.384,2.132V211.659l-4.384-2.132Z" transform="translate(-45.913 -89.364)" fill="#d47baf"/>
          <path id="Path_42900" data-name="Path 42900" d="M115.294,222.205l12.1-5.884V202.99l-12.1,5.884Z" transform="translate(-49.173 -86.576)" fill="#e29aba"/>
          <path id="Path_42901" data-name="Path 42901" d="M118.04,215.254v4.309l8.882-4.368v-4.309Z" transform="translate(-50.344 -89.943)" fill="#fff4f2"/>
          <path id="Path_42902" data-name="Path 42902" d="M119.858,199.384l4.265,2.072-12.089,5.88L107.65,205.2Z" transform="translate(-45.913 -85.038)" fill="#ffc4dd"/>
          <path id="Path_42903" data-name="Path 42903" d="M85.2,233.887l4.384,2.132V222.688L85.2,220.556Z" transform="translate(-36.337 -94.068)" fill="#d47baf"/>
          <path id="Path_42904" data-name="Path 42904" d="M92.842,233.234l12.1-5.884V214.019l-12.1,5.884Z" transform="translate(-39.597 -91.28)" fill="#e29aba"/>
          <path id="Path_42905" data-name="Path 42905" d="M95.587,226.282v4.309l8.882-4.368v-4.309Z" transform="translate(-40.768 -94.647)" fill="#fff4f2"/>
          <path id="Path_42906" data-name="Path 42906" d="M97.406,210.413l4.265,2.072-12.089,5.88L85.2,216.23Z" transform="translate(-36.337 -89.742)" fill="#ffc4dd"/>
          <path id="Path_42907" data-name="Path 42907" d="M58.763,214.983l24.5,12.626v19.143l-24.5-12.626Z" transform="translate(-25.063 -91.691)" fill="#bb884f" fill-rule="evenodd"/>
          <path id="Path_42908" data-name="Path 42908" d="M60.715,231.763l7.095,3.657v4.064l-7.095-3.657Z" transform="translate(-25.895 -98.848)" fill="#c2ab9d" fill-rule="evenodd"/>
          <path id="Path_42909" data-name="Path 42909" d="M56.308,214.96l24.5,12.626-3.319,9.654-24.5-12.625Z" transform="translate(-22.6 -91.681)" fill="#e0b477" fill-rule="evenodd"/>
          <path id="Path_42910" data-name="Path 42910" d="M83.312,227.433,58.818,214.811l.573-.3,24.494,12.622Z" transform="translate(-25.086 -91.49)" fill="#ffe1ab" fill-rule="evenodd"/>
          <path id="Path_42911" data-name="Path 42911" d="M101.471,227.684l24.5-12.626v19.122l-24.5,12.625Z" transform="translate(-43.278 -91.723)" fill="#e0b477" fill-rule="evenodd"/>
          <path id="Path_42912" data-name="Path 42912" d="M101.472,227.681l24.5-12.625,6.865,8.155-24.5,12.625Z" transform="translate(-43.278 -91.722)" fill="#efcd90" fill-rule="evenodd"/>
          <path id="Path_42913" data-name="Path 42913" d="M101.079,227.419l-.587-.3,24.493-12.623.587.3Z" transform="translate(-42.86 -91.483)" fill="#ffe1ab" fill-rule="evenodd"/>
        </g>
      </g>
    </g>
  </g>
</svg>
