<svg xmlns="http://www.w3.org/2000/svg" xmlns:xlink="http://www.w3.org/1999/xlink" width="59" height="143.798" viewBox="0 0 59 143.798">
  <defs>
    <clipPath id="clip-path">
      <rect id="Rectangle_12752" data-name="Rectangle 12752" width="46.638" height="143.798" fill="none"/>
    </clipPath>
    <clipPath id="clip-path-3">
      <rect id="Rectangle_12750" data-name="Rectangle 12750" width="14.378" height="16.863" fill="none"/>
    </clipPath>
  </defs>
  <g id="shopping_element_03" transform="translate(4.659)">
    <ellipse id="Ellipse_68" data-name="Ellipse 68" cx="29.5" cy="9" rx="29.5" ry="9" transform="translate(-4.659 125.333)" fill="#6f81a5" opacity="0.33"/>
    <g id="Group_47388" data-name="Group 47388" clip-path="url(#clip-path)">
      <g id="Group_47387" data-name="Group 47387">
        <g id="Group_47386" data-name="Group 47386" clip-path="url(#clip-path)">
          <path id="Path_42517" data-name="Path 42517" d="M4,47.814c.372-.674,3.218-1.762,4.117-1.482s3.719,3.17,3.719,3.17l1.65,2.718,11,8.009a9.191,9.191,0,0,1-.238-3.2c.229-1.4.233-9.335.233-9.335a25.641,25.641,0,0,0,4.07,2.859,36.392,36.392,0,0,0,4.1,1.633L28.067,67.383c-2.734,3.586-6.523-.743-6.523-.743a4.269,4.269,0,0,1-.682-.558c-.924-.941-10.005-11.81-10.005-11.81s-5.071-.4-5.706-1.149S3.629,48.487,4,47.814" transform="translate(-1.694 -20.056)" fill="#ad8474"/>
          <path id="Path_42518" data-name="Path 42518" d="M3.65,54.594C2.674,52.672.626,48.65.228,47.847c-.531-1.068.031-1.538.031-1.538l3.535-2s.7-.477,1.314.737c.454.9,2.4,4.744,3.387,6.675.337.674.306,1.235-.272,1.6S5.568,54.884,5.05,55.138a1.015,1.015,0,0,1-1.4-.544" transform="translate(0 -19.159)"/>
          <path id="Path_42519" data-name="Path 42519" d="M1.383,48.014A.789.789,0,0,1,1.6,47.1L4.571,45.41a.625.625,0,0,1,.7.354c.246.472,3.526,6.816,3.526,6.816l-3.9,2.242s-3.254-6.3-3.509-6.809" transform="translate(-0.565 -19.67)" fill="#a1d6c3"/>
          <path id="Path_42520" data-name="Path 42520" d="M10.355,69.518l-2.5-5.158s.215-2.342.215-3.305c0-.307-.76-4.415-1.3-4.609C4.964,55.894,6.406,60.1,6,60a7.515,7.515,0,0,1-2.385-.752c-.605-.617-1.719-3.8-2.052-3.736C1.128,55.6.38,57.963.1,59.488a4.28,4.28,0,0,0,1.14,3.249c1.46,1.02,3.594,2.156,3.594,2.156s.6,2.9,1.275,6.065Z" transform="translate(-0.031 -24.053)" fill="#ad8474"/>
          <path id="Path_42521" data-name="Path 42521" d="M63.006,221.117c3.366-.808,3.875-3.244,3.862-3.56a33.955,33.955,0,0,0-1.853-4.769s-12.226-5.162-13-4.9-3.875.673-5.261,2.933c-1.007,1.645,9.84,8.414,13.853,10.294a4.2,4.2,0,0,0,2.4,0" transform="translate(-20.23 -90.073)" fill="#675741"/>
          <path id="Path_42522" data-name="Path 42522" d="M35.444,240.237c-.212.877-.207,2.558-3.965,3.621a8.569,8.569,0,0,1-2.96.042,112.894,112.894,0,0,1-13.37-6.047,3.807,3.807,0,0,1-1.563-1.81,4.524,4.524,0,0,1,2.453-4.645c2.177-.872,17.2,3.867,17.2,3.867s2.462,3.87,2.2,4.972" transform="translate(-5.857 -100.217)" fill="#675741"/>
          <path id="Path_42523" data-name="Path 42523" d="M27.359,179.193a7.326,7.326,0,0,0,.7-1.779c.3-1.438-.838-22.372-.838-22.372l-.492-6.722s-.653-23.112-.289-26.788a40.066,40.066,0,0,1,2.16-8.385l22.827-8.511s2.069,6.234,2.28,9.871-1.058,8.148-1.327,11.158-.038,16.485-.038,16.485l2.021,12.61s1.024,10.126,1.607,11.8c.328.954.851,2.112,1.24,2.942a2.041,2.041,0,0,1-.519,2.182,12.473,12.473,0,0,1-4.268,3.036c-1.948.657-5.317-2.109-6.908-3.556-.54-.5-.562-2.31-.562-2.31l.734-3.413-.367-8.3L42.669,147.3l-2.125-9.923,2.752-9.7-.091.035-5.854,21.163s1.452,9.4,1.261,12.126c-.164,2.466-.7,12.942-.19,15.868a12.884,12.884,0,0,0,1.568,3.935,2.066,2.066,0,0,1-.618,2.627c-1.464,1.184-3.771,2.692-5.724,2.384-1.849-.289-4.074-1.922-5.582-3.218a2.906,2.906,0,0,1-.709-3.4" transform="translate(-11.41 -45.338)" fill="#454e59"/>
          <path id="Path_42524" data-name="Path 42524" d="M11.234,75.818a4.4,4.4,0,0,1,3.214-.466c.215.306.579.457.751.751.108.185.052.522.138.69s.345.19.423.35a6.026,6.026,0,0,1,.29,1.179,3.745,3.745,0,0,1,.219.708,4.259,4.259,0,0,1,.186,1.141,6.3,6.3,0,0,1,.16-1.448c.061-.332.536-.652.558-.963.125-1.37,1.689-6.994,1.689-6.994a24.817,24.817,0,0,0,4.325,2.717c1.779.726,4.838,1.62,4.838,1.62s-3.533,7.24-4.816,9.491a27.109,27.109,0,0,1-2.734,3.9c-2.381,3.647-6.325-.246-6.325-.246-.25-.138-1.02-1.226-1.231-1.412A8.968,8.968,0,0,1,11.467,84.2c-.112-.285-.54-.587-.643-.89-.173-.545-.018-1.076-.181-1.6-.117-.38-.549-.751-.653-1.118-.121-.432.082-.851-.022-1.288-.065-.272-.125-.544-.181-.821a3.29,3.29,0,0,1,1.447-2.665" transform="translate(-4.24 -30.663)" fill="#848279"/>
          <path id="Path_42525" data-name="Path 42525" d="M24.887,88.578c-.428,1.706,7.6,4.575,17.28,2.126a18.226,18.226,0,0,0,8.921-5.24,8.724,8.724,0,0,0,1.845-2.977c.2-.635-1-12.631-.683-16.572.277-3.5,1.085-14.826,1.624-18.032a4.572,4.572,0,0,1,.493-1.248s2.86-5.616-2.044-9.879c-2.462-2.135-10.943-.563-13.228.427a32.833,32.833,0,0,0-8.588,6.04c-3.625,3.413-4.968,5.045-5.538,7.676S23.12,59.03,23.12,59.03a8.994,8.994,0,0,0,5.646,3.175,17.374,17.374,0,0,0,4.5.142l1.582-4.281-1.551,4.5-1.072-.078-4.008,8.246s.911,6.134.89,6.467c-.16,1.884-3.8,9.677-4.221,11.379" transform="translate(-10.018 -15.465)" fill="#ebebe3"/>
          <path id="Path_42526" data-name="Path 42526" d="M43.244,19.727a5.618,5.618,0,0,1-.614-.112c-.751-.2-1.75-2.985-1.918-3.646S38.164,9.619,39.524,4.05c.787-2.057,3.081-5,8.806-3.75s5.528,5.755,5.464,7.077A42.587,42.587,0,0,1,52.476,14a5.985,5.985,0,0,1-.5,1.283,6.176,6.176,0,0,0-.532,1.49c-.155,1.728-.06,3.845,1.365,5.1A3.566,3.566,0,0,1,53.556,24c-.96,2.73-5.741,4.255-12.688,1.041,1.564-1.849,2.35-.976,2.6-2.48a9.69,9.69,0,0,0-.226-2.838" transform="translate(-16.944 0)" fill="#ad8474"/>
          <path id="Path_42527" data-name="Path 42527" d="M52.527,41.267c1.715-1.149,1.642-2.372,1.456-2.981a2.32,2.32,0,0,0,.173.178,3.565,3.565,0,0,1,.747,2.129c-.959,2.73-5.741,4.256-12.687,1.041l1.633-1.17s6.269,2.41,8.679.8" transform="translate(-18.292 -16.589)" fill="#848279"/>
          <g id="Group_47385" data-name="Group 47385" transform="translate(22.489)" opacity="0.8">
            <g id="Group_47384" data-name="Group 47384">
              <g id="Group_47383" data-name="Group 47383" clip-path="url(#clip-path-3)">
                <path id="Path_42528" data-name="Path 42528" d="M52.225,15.282a5.991,5.991,0,0,0,.5-1.283,42.531,42.531,0,0,0,1.318-6.622c.065-1.322.26-5.814-5.464-7.077s-8.018,1.694-8.8,3.751c-.043.19-.056.375-.091.566l.9-.38L41.83,5l.579,1.512-.186,1.879.178.9s-.341,1.485-.022,1.917.773-1.278,1.2-1.689a1.273,1.273,0,0,1,1.858,1.231,4.348,4.348,0,0,0,.177,1.772l.622,2.211.553,1.073s.553.708.9.8a6.106,6.106,0,0,0,1.283.216,3.414,3.414,0,0,0,3.253-1.538" transform="translate(-39.683 0)" fill="#47433a"/>
              </g>
            </g>
          </g>
        </g>
      </g>
    </g>
  </g>
</svg>
