<svg xmlns="http://www.w3.org/2000/svg" xmlns:xlink="http://www.w3.org/1999/xlink" width="50.252" height="90.32" viewBox="0 0 50.252 90.32"><defs><clipPath id="a"><rect width="2.007" height="1.599" fill="none"/></clipPath><clipPath id="c"><rect width="2.794" height="3.603" fill="none"/></clipPath><clipPath id="j"><rect width="2.006" height="1.599" fill="none"/></clipPath><clipPath id="l"><rect width="2.795" height="3.603" fill="none"/></clipPath><clipPath id="m"><rect width="2.137" height="1.703" fill="none"/></clipPath><clipPath id="o"><rect width="2.976" height="3.837" fill="none"/></clipPath><clipPath id="s"><rect width="5.366" height="7.454" fill="none"/></clipPath><clipPath id="t"><rect width="4.504" height="2.603" fill="none"/></clipPath></defs><g transform="translate(-297.487 -353.583)"><path d="M55.541,344.259l-2.079-16.983,1.306-8.61L74.8,311.853s1.094,7.429,1.288,8.8c.117.832.668,13.218.668,13.218S56.174,349.431,55.541,344.259Z" transform="translate(249.26 93.992)" fill="#fefdfa"/><path d="M98.621,299.038c-.142-1.062-2.449-4.386-2.449-4.386s.4-11.262,0-12.213c-.532-1.287-1.482-4.337-1.482-4.337l-1-13.215-6.046,3.956,1.869,8.746,4.565,17.373s-.311.644-.539,1.059a9.377,9.377,0,0,0-.226,4.888,12.155,12.155,0,0,0,.5,1.312.566.566,0,0,0,.629-.181c.245-.319-.015-2.544.577-3,.356-.239.282-.305.533-.221a2.769,2.769,0,0,1,.865,1.593,12.626,12.626,0,0,1-.7,1.983,2.835,2.835,0,0,0-.756.671c-.14.28.114.809.114.809a7.289,7.289,0,0,0,1.956-.53,8.712,8.712,0,0,0,1.594-4.305" transform="translate(233.625 114.776)" fill="#dba274"/><path d="M50.544,280.864a31.348,31.348,0,0,1-5.559-3.015,38.075,38.075,0,0,0,2.921-9.949c.294-2.71.42-3.315,1.337-5.049s4.145-4.8,4.672-5.5,2.363-3.024,2.363-3.024l1.325-2.443c.39-.717.762-1.467,3.047-1.9s4.836,1.726,4.836,1.726a27.506,27.506,0,0,1,3.968.484,9.671,9.671,0,0,1,3.735,1.831c.911.881,1.885,4.574,2.059,6.75s.958,4.457,1.221,6.152c.471,3.014-3.864,3.847-3.864,3.847l.552-5.1-1.674,14.894,1.215,6,.958,8.418s-2.215,4.215-4.659,6.049a14.067,14.067,0,0,1-8.644,2.931,24.844,24.844,0,0,1-7-1.152l-1.458-1.658.8-15.008.5-4.3.328.089,2.436-8.446s-2.388,8.439-2.426,8.437a25.019,25.019,0,0,0-2.986-1.071" transform="translate(252.503 121.396)" fill="#fefdfa"/><path d="M66.127,255.062c.076-.641.138-1.311.187-1.984.239-.443.489-.9.646-1.191.39-.717.762-1.467,3.047-1.9s4.836,1.726,4.836,1.726.734.042,1.6.124c.069.537.148,1.068.234,1.568.522,2.994-2.15,8.57-2.892,8.819-4.692-4.568-7.533-5.556-7.656-7.162" transform="translate(243.146 121.396)" fill="#fefdfa"/><path d="M68.541,245.729a58.561,58.561,0,0,1-.271,7.231c.1,1.243,2.3,2.007,5.932,5.547.573-.192,2.645-4.513,2.242-6.833a55.409,55.409,0,0,1-.573-5.8Z" transform="translate(242.198 123.255)" fill="#dba274"/><path d="M66.738,229.922c.119-3.6,2.623-6.124,5.708-6.023s5.282,2.813,5.164,6.412a18.191,18.191,0,0,1-2.466,8.022c-.769,1.239-1.483,2.191-3.506,2.123s-2.4-1.073-3.041-2.531a19.184,19.184,0,0,1-1.859-8" transform="translate(242.878 132.917)" fill="#dba274"/><path d="M71.218,229.74c-.92.328-3.483-1.249-3.483-1.249A4.413,4.413,0,0,0,66.29,232.1c.263,2.169-.394,0-1.05-1.708a4.652,4.652,0,0,1,1.115-4.6c.389-.388.846-.327,1.184-.722.457-.543.143-.911.787-.985,1.116-.133,3.351-1.053,4.6-.657a6.577,6.577,0,0,1,3.22,2.1c.853,1.051,1.249,4.008,1.249,4.008s-1.35,5.691-1.118,3.417c.328-3.22-1.708-4.4-2.235-4.469s-1.9.921-2.824,1.249" transform="translate(243.642 133.165)" fill="#36221c"/><path d="M64.424,278.523s3.834.75,6.37,0,5.624-3.433,5.624-3.433l.787,2.777s1.765,8.082,1.022,11.8,1.8,14.96,1.977,17.932l.625,10.22s-1.407.816-7.524,4.257c-9.138,5.544-14.681,4.852-14.681,4.852s.368-17.777,0-19.62-.13-8.618-.13-8.618l.64-5.76.487-.324,2.471-8.42Z" transform="translate(246.558 110.261)" fill="#7e8445"/><path d="M53.3,324.759l.681-12.087.207-3.191.53-4.069a25.545,25.545,0,0,0-2.645-.93,16,16,0,0,1-2.664-1.183l-.2,5.175a29.184,29.184,0,0,0-.777,4.41c.017,1.176,1.816,12.72,1.816,12.72a39.332,39.332,0,0,0-.389,5.678c.2.959,1.977,3.506,2.7,3.62s3.052.1,3.349-.787c.057-.168-.784-1.614-.952-2.665a17.605,17.605,0,0,1-.028-1.9c-.043-.327,2.34,2.342,3.011,1.655.506-.177-1.872-3.242-1.872-3.242Z" transform="translate(250.977 97.777)" fill="#dba274"/><path d="M76.912,228.782l.029,1.37c.021.833-2.648,1.528-5.964,1.549s-6.017-.638-6.037-1.473l-.031-1.369Z" transform="translate(243.685 130.754)" fill="#fefdfa"/><path d="M76.8,220.76a2.85,2.85,0,0,1-.059,1.492c-.271.479.118,2.98.118,2.98.017.835-2.652,1.527-5.967,1.55s-6.016-.639-6.035-1.473l-.06-4.473Z" transform="translate(243.732 134.304)" fill="#fefdfa"/><path d="M64.8,219.66c-.02-.834,4.193-1.648,5.964-1.55s6.019.639,6.039,1.473-2.951,1.881-5.965,1.549-6.016-.638-6.037-1.473" transform="translate(243.732 135.481)" fill="#fefdfa"/><path d="M85.313,349.84c0-.014,0-.027,0-.041s0-.021.006-.032.007-.041.011-.061.007-.027.01-.04,0-.015.006-.022a3.282,3.282,0,0,1,.4-1.421,47.683,47.683,0,0,0,1.249-6c0-.007,0-.014,0-.021a.342.342,0,0,1,.012-.07c0-.011.006-.022.009-.032a.412.412,0,0,1,.045-.086l.006-.01c-.148-.21-.075-.46.219-.63a1.568,1.568,0,0,1,1.419,0c.294.17.367.42.219.63a.092.092,0,0,1,.006.01.422.422,0,0,1,.044.086c0,.011.007.022.009.032a.308.308,0,0,1,.012.07c0,.007,0,.014,0,.021a33.96,33.96,0,0,0,1.25,4.37,3.278,3.278,0,0,1,.4,1.421c0,.007,0,.015.006.022s.007.027.01.04.008.041.011.061,0,.021.006.032,0,.027,0,.041,0,.033,0,.049v3.531a.932.932,0,0,1-.009.111c0,.013,0,.026,0,.038a.885.885,0,0,1-.031.123c0,.008,0,.017-.006.025a1.545,1.545,0,0,1-.739.8c-1.05.607-2.754,2.237-3.8,1.629a1.987,1.987,0,0,1-.48-.376c-.015-.017-.027-.034-.041-.051a1.279,1.279,0,0,1-.157-.23l0-.006a1.03,1.03,0,0,1-.059-.139c0-.008,0-.017-.006-.025a.97.97,0,0,1-.031-.123c0-.013,0-.026,0-.038a.93.93,0,0,1-.009-.111v-3.531c0-.016,0-.033,0-.049" transform="translate(234.657 81.003)" fill="#852f0c"/><g transform="translate(321.653 422.207)" opacity="0.8"><g clip-path="url(#a)"><g opacity="0.9"><g clip-path="url(#a)"><path d="M88.629,341.374a1.572,1.572,0,0,1,1.419,0c.294.171.367.42.219.63.148.21.075.46-.219.63a1.568,1.568,0,0,1-1.419,0c-.294-.17-.367-.42-.219-.63-.148-.21-.075-.459.219-.63" transform="translate(-88.335 -341.204)" fill="#f5f4ef"/></g></g></g></g><g transform="translate(322.026 429.869)" opacity="0.5" style="mix-blend-mode:overlay;isolation:isolate"><g clip-path="url(#c)"><path d="M91.584,354.948,91.8,356.8,89,358.551l.224-2.13Z" transform="translate(-89.003 -354.948)" fill="#ebebe3"/></g></g><path d="M75.931,354.584c0-.014,0-.027,0-.041s0-.021.006-.032.007-.041.011-.061.007-.027.01-.04,0-.014.006-.022a3.282,3.282,0,0,1,.4-1.421,47.686,47.686,0,0,0,1.249-6c0-.007,0-.013,0-.02a.343.343,0,0,1,.012-.07c0-.011.006-.022.009-.032a.41.41,0,0,1,.045-.086l.006-.01c-.148-.21-.075-.46.219-.63a1.568,1.568,0,0,1,1.419,0c.294.17.367.42.219.63a.1.1,0,0,1,.006.01.422.422,0,0,1,.044.086c0,.011.007.022.009.032a.309.309,0,0,1,.012.07c0,.007,0,.013,0,.02a33.962,33.962,0,0,0,1.25,4.37,3.278,3.278,0,0,1,.4,1.421c0,.007,0,.015.006.022s.007.027.01.04.008.041.011.061,0,.021.006.032,0,.027,0,.041,0,.033,0,.049v3.531a.932.932,0,0,1-.009.111c0,.012,0,.025,0,.038a.882.882,0,0,1-.031.123c0,.008,0,.017-.006.025a1.542,1.542,0,0,1-.739.8c-1.05.607-2.754,2.237-3.8,1.629a1.989,1.989,0,0,1-.48-.376c-.015-.017-.027-.034-.041-.051a1.28,1.28,0,0,1-.157-.23l0-.006a1.029,1.029,0,0,1-.059-.139c0-.008,0-.017-.006-.025a.888.888,0,0,1-.031-.123c0-.013,0-.026,0-.038a.931.931,0,0,1-.009-.111v-3.531c0-.016,0-.033,0-.049" transform="translate(238.809 78.903)" fill="#852f0c"/><g transform="translate(316.423 424.852)" opacity="0.8"><g clip-path="url(#a)"><g opacity="0.9"><g clip-path="url(#a)"><path d="M79.246,346.118a1.568,1.568,0,0,1,1.419,0c.294.17.367.42.219.63.148.21.075.459-.219.629a1.565,1.565,0,0,1-1.419,0c-.294-.17-.367-.42-.219-.629-.148-.21-.075-.46.219-.63" transform="translate(-78.952 -345.948)" fill="#f5f4ef"/></g></g></g></g><g transform="translate(316.795 432.513)" opacity="0.5" style="mix-blend-mode:overlay;isolation:isolate"><g clip-path="url(#c)"><path d="M82.2,359.692l.214,1.857-2.795,1.746.224-2.13Z" transform="translate(-79.621 -359.692)" fill="#ebebe3"/></g></g><path d="M65.19,361.334c0-.014,0-.027,0-.041s0-.021.006-.032.007-.041.011-.061.007-.027.01-.04,0-.014.006-.022a3.282,3.282,0,0,1,.4-1.421,47.681,47.681,0,0,0,1.249-6c0-.007,0-.014,0-.021a.343.343,0,0,1,.012-.07c0-.011.006-.022.009-.032a.41.41,0,0,1,.045-.086l.006-.01c-.148-.21-.075-.46.219-.63a1.568,1.568,0,0,1,1.419,0c.294.17.367.42.219.63l.006.01a.421.421,0,0,1,.044.086c0,.011.007.022.009.032a.308.308,0,0,1,.012.07c0,.007,0,.013,0,.021a33.959,33.959,0,0,0,1.25,4.37,3.279,3.279,0,0,1,.4,1.421c0,.007,0,.015.006.022s.007.027.01.04.008.041.011.061,0,.021.006.032,0,.027,0,.041,0,.033,0,.049v3.531a.94.94,0,0,1-.009.111c0,.013,0,.025,0,.038a.883.883,0,0,1-.031.123c0,.008,0,.017-.006.025a1.545,1.545,0,0,1-.739.8c-1.05.607-2.754,2.236-3.8,1.629a1.99,1.99,0,0,1-.48-.376c-.015-.017-.027-.034-.041-.051a1.281,1.281,0,0,1-.157-.23l0-.006a1.035,1.035,0,0,1-.059-.139c0-.008,0-.017-.006-.025a.884.884,0,0,1-.031-.123c0-.013,0-.026,0-.038a.928.928,0,0,1-.009-.111v-3.531c0-.016,0-.033,0-.049" transform="translate(243.563 75.916)" fill="#852f0c"/><g transform="translate(310.435 428.614)" opacity="0.8"><g clip-path="url(#a)"><g opacity="0.9"><g clip-path="url(#a)"><path d="M68.506,352.868a1.568,1.568,0,0,1,1.419,0c.294.17.367.42.219.63.148.21.075.459-.219.629a1.565,1.565,0,0,1-1.419,0c-.294-.17-.367-.42-.219-.629-.148-.21-.075-.46.219-.63" transform="translate(-68.212 -352.698)" fill="#f5f4ef"/></g></g></g></g><g transform="translate(310.808 436.276)" opacity="0.5" style="mix-blend-mode:overlay;isolation:isolate"><g clip-path="url(#c)"><path d="M71.461,366.442l.214,1.857-2.795,1.746.224-2.13Z" transform="translate(-68.88 -366.442)" fill="#ebebe3"/></g></g><path d="M113.421,333.032c0-.014,0-.027,0-.041s0-.021.006-.032.007-.041.011-.061.007-.027.01-.04,0-.014.006-.022a3.282,3.282,0,0,1,.4-1.421,47.689,47.689,0,0,0,1.249-6c0-.007,0-.013,0-.02a.342.342,0,0,1,.012-.07c0-.011.006-.022.009-.032a.412.412,0,0,1,.045-.086l.006-.01c-.148-.21-.075-.46.219-.63a1.568,1.568,0,0,1,1.419,0c.294.17.367.42.219.63a.1.1,0,0,1,.006.01.422.422,0,0,1,.044.086c0,.011.007.022.009.032a.309.309,0,0,1,.012.07c0,.007,0,.013,0,.02a33.961,33.961,0,0,0,1.25,4.37,3.279,3.279,0,0,1,.4,1.421c0,.007,0,.015.006.022s.007.027.01.04.008.041.011.061,0,.021.006.032,0,.027,0,.041,0,.033,0,.049v3.531a.94.94,0,0,1-.009.111c0,.012,0,.025,0,.038a.885.885,0,0,1-.031.123c0,.008,0,.017-.006.025a1.542,1.542,0,0,1-.739.8c-1.05.607-2.754,2.237-3.8,1.629a1.989,1.989,0,0,1-.48-.376c-.015-.017-.027-.034-.041-.051a1.28,1.28,0,0,1-.157-.23l0-.006a1.009,1.009,0,0,1-.059-.14c0-.008,0-.016-.006-.025a.882.882,0,0,1-.031-.123c0-.013,0-.026,0-.038a.929.929,0,0,1-.009-.111v-3.531c0-.016,0-.033,0-.049" transform="translate(222.218 88.441)" fill="#a33a1d"/><g transform="translate(337.322 412.838)" opacity="0.8"><g clip-path="url(#j)"><g opacity="0.9"><g clip-path="url(#j)"><path d="M116.736,324.566a1.568,1.568,0,0,1,1.419,0c.294.17.367.42.219.63.148.21.075.459-.219.629a1.565,1.565,0,0,1-1.419,0c-.294-.17-.367-.42-.219-.629-.148-.21-.075-.46.219-.63" transform="translate(-116.443 -324.397)" fill="#f5f4ef"/></g></g></g></g><g transform="translate(337.695 420.499)" opacity="0.5" style="mix-blend-mode:overlay;isolation:isolate"><g clip-path="url(#l)"><path d="M119.692,338.141l.214,1.857-2.795,1.746.224-2.13Z" transform="translate(-117.111 -338.14)" fill="#ebebe3"/></g></g><path d="M104.212,337.333c0-.014,0-.029,0-.044s0-.022.006-.033.007-.044.011-.066.007-.028.011-.042l.006-.023a3.491,3.491,0,0,1,.426-1.513c.452-.811,1.331-6.388,1.331-6.388s0-.014,0-.022a.386.386,0,0,1,.012-.075.354.354,0,0,1,.011-.035.448.448,0,0,1,.047-.092.1.1,0,0,0,.006-.011c-.158-.223-.08-.489.234-.671a1.671,1.671,0,0,1,1.511,0c.313.182.391.448.234.671a.069.069,0,0,0,.006.011.447.447,0,0,1,.047.092.361.361,0,0,1,.011.035.387.387,0,0,1,.012.075c0,.007,0,.015,0,.022a36.207,36.207,0,0,0,1.331,4.654,3.489,3.489,0,0,1,.426,1.512l.006.023h0l.011.042c0,.022.008.043.011.066s.005.022.006.033,0,.029,0,.044,0,.035,0,.052v3.76a.922.922,0,0,1-.01.118c0,.014,0,.027,0,.041a1.032,1.032,0,0,1-.033.132c0,.008,0,.017-.006.026a1.646,1.646,0,0,1-.787.855c-1.119.647-2.932,2.381-4.051,1.735a2.108,2.108,0,0,1-.511-.4c-.016-.017-.028-.036-.043-.054a1.363,1.363,0,0,1-.166-.244l0-.007a1.074,1.074,0,0,1-.063-.149c0-.008,0-.017-.007-.026a1.092,1.092,0,0,1-.032-.131c0-.013,0-.027,0-.041a.94.94,0,0,1-.01-.118v-3.76c0-.018,0-.035,0-.052" transform="translate(226.294 86.786)" fill="#a33a1d"/><g transform="translate(332.298 414.922)" opacity="0.8"><g clip-path="url(#m)"><g opacity="0.9"><g clip-path="url(#m)"><path d="M107.743,328.317a1.667,1.667,0,0,1,1.511,0c.313.181.391.447.234.671.158.223.08.489-.234.671a1.671,1.671,0,0,1-1.511,0c-.314-.182-.391-.448-.234-.671-.158-.224-.08-.49.234-.671" transform="translate(-107.43 -328.136)" fill="#f5f4ef"/></g></g></g></g><g transform="translate(332.695 423.08)" opacity="0.5" style="mix-blend-mode:overlay;isolation:isolate"><g clip-path="url(#o)"><path d="M110.889,342.771l.228,1.977-2.976,1.859.238-2.268Z" transform="translate(-108.142 -342.771)" fill="#ebebe3"/></g></g><path d="M95.021,343.814c0-.014,0-.027,0-.041s0-.021.006-.032.007-.041.011-.061.007-.027.01-.04,0-.014.006-.022a3.282,3.282,0,0,1,.4-1.421,47.686,47.686,0,0,0,1.249-6c0-.007,0-.013,0-.02a.342.342,0,0,1,.012-.07c0-.011.006-.022.009-.032a.411.411,0,0,1,.045-.086l.006-.01c-.148-.21-.075-.46.219-.63a1.568,1.568,0,0,1,1.419,0c.294.17.367.42.219.63l.006.01a.421.421,0,0,1,.044.086c0,.011.007.022.009.032a.308.308,0,0,1,.012.07c0,.007,0,.013,0,.02a33.965,33.965,0,0,0,1.25,4.37,3.278,3.278,0,0,1,.4,1.421c0,.007,0,.014.006.022s.007.027.01.04.008.041.011.061,0,.021.006.032,0,.027,0,.041,0,.033,0,.049v3.531a.94.94,0,0,1-.009.111c0,.012,0,.025,0,.038a.976.976,0,0,1-.031.123c0,.008,0,.017-.006.024a1.544,1.544,0,0,1-.739.8c-1.05.607-2.754,2.237-3.8,1.629a1.99,1.99,0,0,1-.48-.376c-.015-.017-.027-.034-.041-.051a1.283,1.283,0,0,1-.157-.23l0-.006a1.014,1.014,0,0,1-.059-.14c0-.008,0-.016-.006-.025a.885.885,0,0,1-.031-.123c0-.013,0-.026,0-.038a.929.929,0,0,1-.009-.111v-3.531c0-.016,0-.033,0-.049" transform="translate(230.361 83.669)" fill="#a33a1d"/><g transform="translate(327.064 418.848)" opacity="0.8"><g clip-path="url(#a)"><g opacity="0.9"><g clip-path="url(#a)"><path d="M98.336,335.348a1.568,1.568,0,0,1,1.419,0c.294.17.367.42.219.63.148.21.075.459-.219.629a1.568,1.568,0,0,1-1.419,0c-.294-.17-.367-.42-.219-.629-.148-.21-.075-.46.219-.63" transform="translate(-98.042 -335.179)" fill="#f5f4ef"/></g></g></g></g><g transform="translate(327.438 426.51)" opacity="0.5" style="mix-blend-mode:overlay;isolation:isolate"><g clip-path="url(#l)"><path d="M101.291,348.922l.214,1.857-2.795,1.746.224-2.13Z" transform="translate(-98.711 -348.923)" fill="#ebebe3"/></g></g><path d="M108.031,362.259h0v0a.921.921,0,0,0-.021-.122l0-.008a.951.951,0,0,0-.038-.119l-.362-1.429a1.12,1.12,0,0,0-.659-.92,3.514,3.514,0,0,0-3.184,0,1.12,1.12,0,0,0-.66.92l-.367,1.439v.006c-.011.027-.019.055-.027.082s-.011.041-.015.062-.008.041-.011.061,0,.021-.006.032,0,.027,0,.041,0,.032,0,.048v7a1.334,1.334,0,0,0,.786,1.1,4.19,4.19,0,0,0,3.794,0,1.334,1.334,0,0,0,.785-1.1v-6.935h-.005a1.007,1.007,0,0,0,0-.153" transform="translate(226.973 73.006)" fill="#f2e6c8"/><g transform="translate(329.646 435.354)" opacity="0.5" style="mix-blend-mode:overlay;isolation:isolate"><g clip-path="url(#s)"><path d="M108.033,364.852a1.366,1.366,0,0,1-.78,1.033,4.189,4.189,0,0,1-3.793,0,1.33,1.33,0,0,1-.783-1.1h0v5.9a1.335,1.335,0,0,0,.786,1.1,4.189,4.189,0,0,0,3.793,0,1.335,1.335,0,0,0,.786-1.1v-5.84Z" transform="translate(-102.673 -364.788)" fill="#ebebe3"/></g></g><g transform="translate(330.077 432.281)" opacity="0.9"><g clip-path="url(#t)"><path d="M107.29,359.656a.972.972,0,0,1,0,1.841,3.519,3.519,0,0,1-3.185,0,.972.972,0,0,1,0-1.841,3.516,3.516,0,0,1,3.185,0" transform="translate(-103.446 -359.275)" fill="#f5f4ef"/></g></g><g transform="translate(330.077 432.067)" opacity="0.9"><g clip-path="url(#t)"><path d="M107.29,359.272a.972.972,0,0,1,0,1.841,3.519,3.519,0,0,1-3.185,0,.972.972,0,0,1,0-1.841,3.516,3.516,0,0,1,3.185,0" transform="translate(-103.446 -358.891)" fill="#c2dbef"/></g></g><path d="M130.862,350.242h0v0a.926.926,0,0,0-.021-.122l0-.008a.953.953,0,0,0-.038-.119l-.362-1.429a1.12,1.12,0,0,0-.659-.92,3.515,3.515,0,0,0-3.184,0,1.12,1.12,0,0,0-.66.92L125.569,350l0,.006c-.01.027-.018.055-.026.083s-.011.041-.016.062a.612.612,0,0,0-.011.061c0,.011-.005.021-.006.032s0,.027,0,.041,0,.032,0,.049v7a1.336,1.336,0,0,0,.786,1.1,4.19,4.19,0,0,0,3.794,0,1.334,1.334,0,0,0,.785-1.1V350.4h-.005a.936.936,0,0,0,0-.153" transform="translate(216.869 78.323)" fill="#f2e6c8"/><g transform="translate(342.374 428.656)" opacity="0.5" style="mix-blend-mode:overlay;isolation:isolate"><g clip-path="url(#s)"><path d="M130.864,352.836a1.365,1.365,0,0,1-.78,1.033,4.19,4.19,0,0,1-3.794,0,1.33,1.33,0,0,1-.783-1.1h0v5.9a1.334,1.334,0,0,0,.786,1.1,4.19,4.19,0,0,0,3.794,0,1.335,1.335,0,0,0,.785-1.1v-5.84Z" transform="translate(-125.504 -352.772)" fill="#ebebe3"/></g></g><g transform="translate(342.804 425.582)" opacity="0.9"><g clip-path="url(#t)"><path d="M130.121,347.64a.972.972,0,0,1,0,1.841,3.519,3.519,0,0,1-3.185,0,.972.972,0,0,1,0-1.841,3.516,3.516,0,0,1,3.185,0" transform="translate(-126.277 -347.259)" fill="#f5f4ef"/></g></g><g transform="translate(342.804 425.368)" opacity="0.9"><g clip-path="url(#t)"><path d="M130.121,347.256a.972.972,0,0,1,0,1.841,3.516,3.516,0,0,1-3.185,0,.972.972,0,0,1,0-1.841,3.516,3.516,0,0,1,3.185,0" transform="translate(-126.277 -346.875)" fill="#c2dbef"/></g></g><path d="M119.7,356.328h0v0a.92.92,0,0,0-.021-.122l0-.008a.951.951,0,0,0-.038-.119l-.362-1.429a1.12,1.12,0,0,0-.659-.92,3.514,3.514,0,0,0-3.184,0,1.12,1.12,0,0,0-.66.92l-.367,1.439,0,.006c-.01.027-.018.055-.026.082s-.011.041-.015.062-.008.041-.011.061,0,.021-.006.032,0,.027,0,.041,0,.032,0,.048v7a1.334,1.334,0,0,0,.786,1.1,4.19,4.19,0,0,0,3.794,0,1.334,1.334,0,0,0,.785-1.1v-6.935H119.7a.939.939,0,0,0,0-.153" transform="translate(221.809 75.63)" fill="#f2e6c8"/><g transform="translate(336.152 432.049)" opacity="0.5" style="mix-blend-mode:overlay;isolation:isolate"><g clip-path="url(#s)"><path d="M119.7,358.922a1.365,1.365,0,0,1-.78,1.033,4.189,4.189,0,0,1-3.794,0,1.33,1.33,0,0,1-.783-1.1h0v5.9a1.335,1.335,0,0,0,.786,1.1,4.189,4.189,0,0,0,3.794,0,1.335,1.335,0,0,0,.786-1.1v-5.84Z" transform="translate(-114.344 -358.859)" fill="#ebebe3"/></g></g><g transform="translate(336.583 428.975)" opacity="0.9"><g clip-path="url(#t)"><path d="M118.961,353.726a.972.972,0,0,1,0,1.841,3.518,3.518,0,0,1-3.184,0,.972.972,0,0,1,0-1.841,3.514,3.514,0,0,1,3.184,0" transform="translate(-115.117 -353.345)" fill="#f5f4ef"/></g></g><g transform="translate(336.583 428.761)" opacity="0.9"><g clip-path="url(#t)"><path d="M118.961,353.342a.972.972,0,0,1,0,1.841,3.518,3.518,0,0,1-3.184,0,.972.972,0,0,1,0-1.841,3.515,3.515,0,0,1,3.184,0" transform="translate(-115.117 -352.961)" fill="#c2dbef"/></g></g><path d="M67.426,269.052l.795-.174a53.963,53.963,0,0,0-2.114-9.273,8.7,8.7,0,0,1,.336-6.317l.311-.939c-.087.152-2.7,3.914-1.364,7.522a55.013,55.013,0,0,1,2.036,9.181" transform="translate(243.641 120.325)" fill="#7e8445"/><path d="M87.252,265.931c-.038-.2-2.186-9.489-4.829-13.522l.245,1.74a55.745,55.745,0,0,1,3.862,11.919Z" transform="translate(235.935 120.298)" fill="#7e8445"/></g></svg>