<svg xmlns="http://www.w3.org/2000/svg" xmlns:xlink="http://www.w3.org/1999/xlink" width="66.458" height="135.911" viewBox="0 0 66.458 135.911">
  <defs>
    <clipPath id="clip-path">
      <rect id="Rectangle_12748" data-name="Rectangle 12748" width="54.305" height="135.911" fill="none"/>
    </clipPath>
  </defs>
  <g id="shopping_element_05" transform="translate(12.153)">
    <ellipse id="Ellipse_69" data-name="Ellipse 69" cx="26.5" cy="9" rx="26.5" ry="9" transform="translate(-12.153 116.299)" fill="#6f81a5" opacity="0.33"/>
    <g id="Group_47380" data-name="Group 47380" clip-path="url(#clip-path)">
      <path id="Path_42475" data-name="Path 42475" d="M31.231,209.645a26.021,26.021,0,0,0,3.6,3.936c1.054.912,3.386,1.187,3.74,2.536a4.893,4.893,0,0,1-.2,2.08c-.429.883-2.734,1.178-3.8,1.031-2.716-.377-4.387-1.582-8.614-3.175a6.765,6.765,0,0,1-2.5-1.415,2.323,2.323,0,0,1-.373-1.575c-.014-.4,0-.861,0-1.48-.005-.663.2-1.421.217-2.319Z" transform="translate(-10.086 -91.451)" fill="#adadad"/>
      <path id="Path_42476" data-name="Path 42476" d="M31.233,207.353c.61,2.091,2.179,2.831,3.6,3.936,1.388,1.082,4.565,3,3.6,4.819-.33.625-2.325,1.119-3.389,1-1.647-.189-6.148-2.027-9.162-3.481a7.119,7.119,0,0,1-2.255-1.489,1.91,1.91,0,0,1-.54-1.366,29.729,29.729,0,0,1,.3-3.772Z" transform="translate(-10.088 -90.461)" fill="#7f7f7f"/>
      <path id="Path_42478" data-name="Path 42478" d="M10.082,170.36c.08-2.982.159-15.456.077-28.369-.082-12.81.633-26.049-.217-31.672a11.948,11.948,0,0,1-3.1-1.416c0,.662-1.03,17.681-.7,33.756.258,12.7.947,24.834.87,27.7a1.344,1.344,0,0,0,.875,1.3,7.68,7.68,0,0,0,2.416.479c-.012-.606-.231-1.2-.216-1.78" transform="translate(-2.654 -47.592)" fill="#506387"/>
      <path id="Path_42479" data-name="Path 42479" d="M32.111,170.532c.075-3.348-.392-15.823-.457-18.487-.059-2.394-1.089-23.141-1.983-23.258-.444-.057-.647,3.781-.635,4.229l-.176,29.668c.118,3.275.208,6.393.175,7.85a1.332,1.332,0,0,0,.57,1.132,6.674,6.674,0,0,0,2.4.908,7.066,7.066,0,0,0,.106-2.041" transform="translate(-12.612 -56.282)" fill="#506387"/>
      <path id="Path_42480" data-name="Path 42480" d="M2.124,151.588c.233-1.924.717-7.578.747-9.211s.5-10.442.615-13.007S2.314,115.927,4.82,108.76c2.817.788,5.43,1.115,11.769.284-1.857,1.229-7.77,3.2-8,5.132-.741,6.144-1.414,13.283-1.5,15.194-.117,2.565-.585,11.375-.615,13.007s-.513,7.287-.747,9.211c-.213,1.758-.259,16.682-.221,22.4-1.587-.071-3.062-.725-3.555-1.769-.059-4.139-.057-18.706.176-20.63" transform="translate(-0.837 -47.53)" fill="#171c2b"/>
      <path id="Path_42481" data-name="Path 42481" d="M22.282,172.871A89.706,89.706,0,0,1,21.8,158.08c.138-1.561,1.352-5.925.944-11.1-.093-1.187,1.513-16.623,2.593-17.409,2.538-1.847,1.964,7.716,1.987,11.036a51.347,51.347,0,0,1-.663,6.47c-.533,3.232-1.047,7.728-1.222,10.584a166.106,166.106,0,0,0,.28,16.879,5.841,5.841,0,0,1-3.434-1.664" transform="translate(-9.475 -56.52)" fill="#171c2b"/>
      <path id="Path_42482" data-name="Path 42482" d="M78.723,42.7c.731-.321,1.916-2.517,2.661-3.358.759-.856,5.388-3.5,6.561-3.451s.763.713.288,1.185-2.706,1.291-2.437,1.6,2.041,2.729,1.778,3.947-2.388,2.05-3.646,2.756a19.181,19.181,0,0,1-3.372,1.3A9.464,9.464,0,0,1,78.723,42.7" transform="translate(-34.403 -15.684)" fill="#e7b087"/>
      <path id="Path_42483" data-name="Path 42483" d="M36.935,32c5.93-.875,9.189,9.9,13.648,13.491,5.516-2.969,9.332-5.056,10.671-5.65a6.785,6.785,0,0,0,3.029,4.562,39.209,39.209,0,0,1-7.4,6.131c-3.963,2.372-6.412,3.614-9.333,2.045a62.147,62.147,0,0,1-5.545-4.113,34.334,34.334,0,0,1-4.395-3.459C36.753,43.776,36.935,32,36.935,32" transform="translate(-16.134 -13.963)" fill="#f15a24"/>
      <path id="Path_42484" data-name="Path 42484" d="M44.978,52.283a46.409,46.409,0,0,0,5.435,3.568c2.921,1.568,5.37.327,9.333-2.045a28.051,28.051,0,0,0,4.024-2.928,32.16,32.16,0,0,1-6.509,5.282c-3.963,2.371-6.412,3.613-9.333,2.045a46.449,46.449,0,0,1-5.435-3.568,28.593,28.593,0,0,1-4.5-4c-.4-.58-.151-3.2.229-5.813a26.184,26.184,0,0,0,6.76,7.463" transform="translate(-16.512 -19.587)" fill="#ba451c"/>
      <path id="Path_42485" data-name="Path 42485" d="M26.32,71.383c.408-9.424-.527-23.073-.449-27.348s-2.772-9.126-4.949-9.748c-1.876-.537-9.988.426-10.408.668A35.609,35.609,0,0,0,1.475,41.68a5.646,5.646,0,0,0-1.3,5.2c1.214,4.7,5.53,10.449,5.406,14.783A90.987,90.987,0,0,1,3.861,76.088c3.032,1.477,16.823,2.272,22.459-4.7" transform="translate(0 -14.914)" fill="#f15a24"/>
      <path id="Path_42486" data-name="Path 42486" d="M11.441,78.468c-.014-3.779-1.827-4.766-1.994-10.421,0,0,.081-2.5-2.623,2.107a126,126,0,0,1,.019,20.461,16.856,16.856,0,0,0,4.367,1.1c.019-1.091.138-5.558.231-13.243" transform="translate(-2.983 -29.441)" fill="#ba451c"/>
      <path id="Path_42487" data-name="Path 42487" d="M27.4,7.717c1.629-.821.954-3.5-.494-5.362S21.874-.2,18.832.049s-5.458,1.918-6,3.976c-2.037,3.094-.954,6.049.347,8.426a20.085,20.085,0,0,0,3.387,4.712c2.3-.024,4.551-2.821,5.481-5.031S27.4,7.717,27.4,7.717" transform="translate(-5.112 0)" fill="#311b0b"/>
      <path id="Path_42488" data-name="Path 42488" d="M26.349,59.14c-4.579.978-11.322,1.983-11.322,1.983s-4.285-9.487-8.113-11.348a11.537,11.537,0,0,0-4.257-1.235c-1.733,2.786-.211,5.125.672,7.668S9.2,68.6,10.75,69.471c1,.562,8.439-1.98,13.8-4.073.042-2.445,1.774-4.051,1.8-6.258" transform="translate(-0.815 -21.213)" fill="#ba451c"/>
      <path id="Path_42489" data-name="Path 42489" d="M29.184,13.707c.569,3.72-.251,10.9-1.579,12.161a5.564,5.564,0,0,1-2.167.793s-.091.486-.206,1.772-.355,1.977-1.663,2.2a8.016,8.016,0,0,1-7.1-2.836,1.221,1.221,0,0,1-.361-.893c.012-.1,1.478-4.247,1.316-4.887-1.454-1.279-2.16-2.781-1.231-3.945.665-.833,1.684-.2,2.437.6.246.26.82.224.829-.439.024-1.858.408-3.293,1.337-3.865,1.129-.7,4.922,1.4,8.394-.661" transform="translate(-6.892 -5.99)" fill="#e7b087"/>
      <path id="Path_42490" data-name="Path 42490" d="M24.685,132.685c-.157,3.265-2.148,28.549-2.148,28.549-2.624,1.691-7.876.525-8.922-1.049-.522-3.206-.434-12.06-.258-14.916s.713-8.287.718-10.979c0-1.353.615-5.352.615-5.352s-2.088,7.445-2.437,9.72c-.355,2.312-2.249,29.28-2.54,29.863-1.865,2.624-6.821,2.1-7.811,0-.059-4.139-.138-17.687.176-20.63.206-1.927.717-7.578.747-9.21s.5-10.442.615-13.007-.951-13.364,1.554-20.53c4.883,1.484,16.6,1.009,22.134-4.841-.361,7.161-2.284,29.118-2.441,32.382" transform="translate(-0.806 -43.834)" fill="#292e3f"/>
      <path id="Path_42491" data-name="Path 42491" d="M29.3,36.126a10.977,10.977,0,0,1-4.69-.76,7.751,7.751,0,0,0,4.553,1.816c.008-.258.136-1.056.136-1.056" transform="translate(-10.756 -15.455)" fill="#cc9876"/>
      <path id="Path_42492" data-name="Path 42492" d="M1.177,47.72c-1.733,2.786-.685,6.062.2,8.605S7.242,68.714,8.8,69.587s18.607-5.73,19.35-6.531a8.419,8.419,0,0,1,0-5.85c-2.477.714-15.63,3.348-15.63,3.348S7.831,47.76,5.278,46.874a3.849,3.849,0,0,0-4.1.846" transform="translate(-0.107 -20.374)" fill="#f15a24"/>
      <path id="Path_42493" data-name="Path 42493" d="M64.115,52.308l-3.447,6.263L55.86,66.851,51.1,69.677l7.122-14.99Z" transform="translate(-22.331 -22.859)" fill="#292e3f"/>
      <path id="Path_42494" data-name="Path 42494" d="M56.819,52.746l5.293-2.2,1.194.99L57.415,53.92l-7.123,14.99-1.041-.942Z" transform="translate(-21.523 -22.091)" fill="#5b6989"/>
      <path id="Path_42495" data-name="Path 42495" d="M30.487,72.29c-.571.616-11.606,4.745-17.324,6.22-1.424.367-3.74-1.086-6.408-5.167,2.88,5.6,4.539,7.266,4.887,7.461,1.554.873,18.608-5.73,19.35-6.531a6.815,6.815,0,0,1-.506-1.983" transform="translate(-2.952 -31.592)" fill="#ba451c"/>
      <path id="Path_42496" data-name="Path 42496" d="M49.089,64.593c.8.011,2.786-1.5,3.813-1.954,1.045-.464,6.356-.958,7.4-.423s.4.966-.229,1.2-3,.055-2.882.45.727,3.33-.016,4.328-3.022.877-4.461,1a19.157,19.157,0,0,1-3.609-.211,9.471,9.471,0,0,1-.017-4.387" transform="translate(-21.344 -27.088)" fill="#e7b087"/>
      <path id="Path_42497" data-name="Path 42497" d="M15.719,18.969a2.833,2.833,0,0,1-.052-.558.505.505,0,0,1,.083-.274.338.338,0,0,0-.182.035.448.448,0,0,0-.217.4,2.844,2.844,0,0,0,.053.558c.053.313.081.488.084.524,0,.021,0,.042,0,.061.005.1-.01.159-.043.181.1-.048.2-.1.3-.151l.009,0c.043-.022.058-.1.044-.245q0-.054-.084-.524" transform="translate(-6.708 -7.926)" fill="#1b1b1b"/>
      <path id="Path_42498" data-name="Path 42498" d="M38.325,20.711c0,.019,0,.038,0,.057l.06.688a.3.3,0,0,0,.123.272.161.161,0,0,0,.027.016l.019.008.287.128-.027-.015a.256.256,0,0,1-.081-.087l-.01-.018a.392.392,0,0,1-.033-.168l-.06-.688c0-.02,0-.039,0-.057a.385.385,0,0,0-.159-.287.32.32,0,0,0-.22-.053.447.447,0,0,1,.074.2" transform="translate(-16.716 -8.961)" fill="#3f3f3f"/>
      <path id="Path_42499" data-name="Path 42499" d="M29.8,25.09l-.306.137v.5a.3.3,0,0,0,.124.272.229.229,0,0,0,.052.026l.257.113,0,0a.238.238,0,0,1-.081-.086.055.055,0,0,1-.008-.017.375.375,0,0,1-.034-.169Z" transform="translate(-12.891 -10.965)" fill="#3d3d3d"/>
      <path id="Path_42500" data-name="Path 42500" d="M29.328,19.275h0v1.539l.008,0,.088-.039.306-.137v.774a.375.375,0,0,0,.034.169.065.065,0,0,0,.008.018.238.238,0,0,0,.081.086l0,0a.284.284,0,0,0,.07.03l.024.005a.36.36,0,0,0,.2-.035l3.005-1.346a.777.777,0,0,0,.421-.652l.064-.794a.983.983,0,0,1,.159-.44.891.891,0,0,1,.387-.351.55.55,0,0,1,.152-.047h.014a.324.324,0,0,1,.221.053.385.385,0,0,1,.159.287c0,.019,0,.038,0,.057l.06.688a.387.387,0,0,0,.033.168.14.14,0,0,0,.01.017.25.25,0,0,0,.081.087.158.158,0,0,0,.027.015l.02.009a.316.316,0,0,0,.25-.022l3.005-1.345a.69.69,0,0,0,.3-.27.7.7,0,0,0,.124-.383V16.65l.441-.127V14.978l0-.07-9.746,4.363v.007Zm.9.418a.458.458,0,0,1,.091-.261.545.545,0,0,1,.22-.191l.905-.4,1.318-.591h0a.313.313,0,0,1,.126-.03H32.9a.2.2,0,0,1,.078.023.188.188,0,0,1,.091.18v1.207a.463.463,0,0,1-.091.263.531.531,0,0,1-.22.189l-2.223.995-.011.006a.235.235,0,0,1-.209,0,.167.167,0,0,1-.046-.038h0l-.009-.011a.19.19,0,0,1-.03-.074.3.3,0,0,1-.006-.057V19.693m7.755-3.681a.189.189,0,0,1,.077.023.179.179,0,0,1,.051.042.221.221,0,0,1,.04.138v1.137a.463.463,0,0,1-.091.263.535.535,0,0,1-.22.19l-2.223,1a.24.24,0,0,1-.22.007.179.179,0,0,1-.047-.037.188.188,0,0,1-.038-.086.268.268,0,0,1-.006-.057V17.489a.458.458,0,0,1,.091-.261.528.528,0,0,1,.22-.19l.774-.346,1.128-.5.321-.145h0a.286.286,0,0,1,.126-.031Z" transform="translate(-12.816 -6.515)" fill="#1e1e1e"/>
      <path id="Path_42501" data-name="Path 42501" d="M40.036,18.611a.461.461,0,0,0-.091.262V20.01a.26.26,0,0,0,.006.057.188.188,0,0,0,.038.086.312.312,0,0,0,.142-.031l.209-.093.69-1.954-.774.346a.526.526,0,0,0-.22.19" transform="translate(-17.457 -7.899)" fill="#93dae2"/>
      <path id="Path_42502" data-name="Path 42502" d="M42.973,17.459l-.508-.279-1.129.5-.689,1.955,2.014-.9a.535.535,0,0,0,.22-.19.464.464,0,0,0,.092-.263Z" transform="translate(-17.763 -7.508)" fill="#68c5cf"/>
      <path id="Path_42503" data-name="Path 42503" d="M44.384,17.01a.221.221,0,0,0-.041-.138l0,0h-.015a.288.288,0,0,0-.127.031h0l-.321.145.508.279Z" transform="translate(-19.174 -7.372)" fill="#36777a"/>
      <path id="Path_42504" data-name="Path 42504" d="M42.734,16.891a.184.184,0,0,0-.077-.023l0,0a.221.221,0,0,1,.039.138v1.137a.462.462,0,0,1-.091.263.536.536,0,0,1-.221.19l-2.014.9-.209.092a.314.314,0,0,1-.142.031.181.181,0,0,0,.047.038.241.241,0,0,0,.22-.008l2.223-.995a.538.538,0,0,0,.22-.19.463.463,0,0,0,.091-.263V17.071a.221.221,0,0,0-.04-.138.177.177,0,0,0-.051-.042" transform="translate(-17.491 -7.372)" fill="#766"/>
      <path id="Path_42505" data-name="Path 42505" d="M33.869,20.783a.31.31,0,0,0-.125.03h0l-1.317.591-.854,2.09,2.031-.91a.529.529,0,0,0,.221-.189.466.466,0,0,0,.091-.263V20.925a.226.226,0,0,0-.034-.13l-.01-.012" transform="translate(-13.797 -9.082)" fill="#68c5cf"/>
      <path id="Path_42506" data-name="Path 42506" d="M31.008,23.61a.177.177,0,0,0,.046.038.235.235,0,0,0,.209,0l.011-.006,2.223-.995a.529.529,0,0,0,.22-.189.462.462,0,0,0,.091-.263V20.986a.188.188,0,0,0-.091-.18.193.193,0,0,0-.078-.023h-.006a.016.016,0,0,0-.01,0l.01.012a.228.228,0,0,1,.034.131v1.207a.46.46,0,0,1-.091.262.529.529,0,0,1-.22.189l-2.031.91-.192.085a.316.316,0,0,1-.125.032" transform="translate(-13.551 -9.082)" fill="#697766"/>
      <path id="Path_42507" data-name="Path 42507" d="M31.018,22.48a.461.461,0,0,0-.091.262v1.207a.268.268,0,0,0,.006.057.175.175,0,0,0,.03.074l.008.011h0a.331.331,0,0,0,.125-.032l.192-.085.855-2.09-.906.4a.544.544,0,0,0-.22.191" transform="translate(-13.516 -9.564)" fill="#93dae2"/>
      <path id="Path_42508" data-name="Path 42508" d="M39.824,12.663a6.189,6.189,0,0,1-.866.6c.29.258.572.5.842.727a5.931,5.931,0,0,0,1.16.707l1.693-.757c-.918-.434-1.865-.859-2.828-1.277" transform="translate(-17.025 -5.534)" fill="#3a3a3a"/>
      <path id="Path_42509" data-name="Path 42509" d="M22.41,20.126l-.007-.007q-1.714-.809-3.533-1.586a15.018,15.018,0,0,0-4.079-1.395.358.358,0,0,0-.084.015.513.513,0,0,0-.058.022.434.434,0,0,0-.046.023.694.694,0,0,0-.294.356,1.783,1.783,0,0,0-.118.657,2.954,2.954,0,0,0,.057.649.948.948,0,0,0,.126.377.644.644,0,0,0,.263.182.509.509,0,0,0,.284.045l.008,0,.012-.007c.033-.022.048-.082.043-.181,0-.019,0-.039,0-.061S14.95,19,14.9,18.69a2.883,2.883,0,0,1-.052-.558.449.449,0,0,1,.217-.4.355.355,0,0,1,.182-.035,2.443,2.443,0,0,1,.748.2,15.656,15.656,0,0,1,1.445.64,6.6,6.6,0,0,1,1.14.8q.5.448.962.833a6.626,6.626,0,0,0,1.413.827q.93.431,1.476.676l-.02-.01.305.131V20.248h0l-.307-.127Z" transform="translate(-6.201 -7.489)" fill="#3a3a3a"/>
      <path id="Path_42510" data-name="Path 42510" d="M32.512,13.64l-.006-.008c-.95-.448-1.929-.887-2.928-1.321-.073.068-.147.135-.224.2.963.419,1.91.843,2.828,1.277l-1.693.827-7.4,3.314c-.041-.088-.072-.1-.094-.112l-.025-.012q-1.666-.785-3.43-1.538-3.636-1.551-4.163-1.38l-.019.006a.125.125,0,0,0-.023.009.417.417,0,0,0-.071.035L15,15.066l.058-.022a.333.333,0,0,1,.084-.014,14.974,14.974,0,0,1,4.079,1.395q1.82.776,3.533,1.585l.007.007,0,0,.307.127.006,0,9.746-4.363Z" transform="translate(-6.557 -5.38)" fill="#5f5f5f"/>
      <path id="Path_42511" data-name="Path 42511" d="M62.567,67.1l1.345-.136a1.446,1.446,0,0,0,1.407-1.407c-.017-.125-.033-.249-.05-.374a1.408,1.408,0,0,0-.362-.621l-.285-.22a1.4,1.4,0,0,0-.71-.192l-1.345.136a1.446,1.446,0,0,0-1.407,1.407c.017.125.034.249.05.374a1.408,1.408,0,0,0,.362.621l.285.22a1.4,1.4,0,0,0,.71.192" transform="translate(-26.727 -28.033)" fill="#e7b087"/>
      <path id="Path_42512" data-name="Path 42512" d="M61.53,65.988a1.806,1.806,0,0,0,.262.16c.149.074.3.135.458.2.051.021.1.039.154.055a2.9,2.9,0,0,0,.477.091,3.033,3.033,0,0,0,.494.041,1.559,1.559,0,0,0,1-.413,1.566,1.566,0,0,0,.412-.995q-.024-.187-.05-.375a1.411,1.411,0,0,0-.362-.621l-.285-.22a1.388,1.388,0,0,0-.71-.192,1.866,1.866,0,0,1-.307-.017l.374.051a1.91,1.91,0,0,1-.462-.128l.336.141a1.868,1.868,0,0,1-.367-.208,1.041,1.041,0,0,0-.524-.168,1.445,1.445,0,0,0-1.4.672l-.142.336a1.42,1.42,0,0,0,0,.749l.142.336a1.408,1.408,0,0,0,.505.5" transform="translate(-26.585 -27.691)" fill="#e7b087"/>
      <path id="Path_42513" data-name="Path 42513" d="M62.909,69.862a1.408,1.408,0,0,0,0-2.815,1.408,1.408,0,0,0,0,2.815" transform="translate(-26.898 -29.3)" fill="#e7b087"/>
    </g>
  </g>
</svg>
