<svg id="warehouse_element_01" xmlns="http://www.w3.org/2000/svg" xmlns:xlink="http://www.w3.org/1999/xlink" width="175.517" height="163.774" viewBox="0 0 175.517 163.774">
  <defs>
    <clipPath id="clip-path">
      <rect id="Rectangle_13805" data-name="Rectangle 13805" width="175.517" height="163.774" fill="none"/>
    </clipPath>
    <clipPath id="clip-path-3">
      <rect id="Rectangle_13793" data-name="Rectangle 13793" width="61.121" height="30.48" fill="none"/>
    </clipPath>
    <clipPath id="clip-path-4">
      <rect id="Rectangle_13794" data-name="Rectangle 13794" width="25.852" height="20.596" fill="none"/>
    </clipPath>
    <clipPath id="clip-path-6">
      <rect id="Rectangle_13796" data-name="Rectangle 13796" width="25.852" height="20.597" fill="none"/>
    </clipPath>
    <clipPath id="clip-path-9">
      <rect id="Rectangle_13799" data-name="Rectangle 13799" width="42.738" height="24.763" fill="none"/>
    </clipPath>
    <clipPath id="clip-path-10">
      <rect id="Rectangle_13800" data-name="Rectangle 13800" width="52.601" height="28.611" fill="none"/>
    </clipPath>
    <clipPath id="clip-path-11">
      <rect id="Rectangle_13801" data-name="Rectangle 13801" width="17.656" height="8.265" fill="none"/>
    </clipPath>
    <clipPath id="clip-path-12">
      <rect id="Rectangle_13802" data-name="Rectangle 13802" width="42.077" height="22.651" fill="none"/>
    </clipPath>
    <clipPath id="clip-path-13">
      <rect id="Rectangle_13803" data-name="Rectangle 13803" width="34.183" height="17.989" fill="none"/>
    </clipPath>
  </defs>
  <g id="Group_51946" data-name="Group 51946" clip-path="url(#clip-path)">
    <g id="Group_51945" data-name="Group 51945">
      <g id="Group_51944" data-name="Group 51944" clip-path="url(#clip-path)">
        <g id="Group_51913" data-name="Group 51913" transform="translate(11.197 55.489)" opacity="0.1" style="mix-blend-mode: multiply;isolation: isolate">
          <g id="Group_51912" data-name="Group 51912">
            <g id="Group_51911" data-name="Group 51911" clip-path="url(#clip-path-3)">
              <path id="Path_55442" data-name="Path 55442" d="M77.693,95.482,54.625,82.128l-38.053,19.6,18.517,10.731,12.941.145Z" transform="translate(-16.572 -82.128)" fill="#00377e"/>
            </g>
          </g>
        </g>
        <path id="Path_55443" data-name="Path 55443" d="M73.633,102.934,65.4,98.182a13.018,13.018,0,0,0-.085,1.945l8.316,4.8c.411.238.748-.017.748-.566a1.8,1.8,0,0,0-.748-1.429" transform="translate(-21.184 -31.846)" fill="#3b454c"/>
        <path id="Path_55444" data-name="Path 55444" d="M59.749,84.976a12.593,12.593,0,0,1,5.715-9.858,4.584,4.584,0,0,1,3.309-.7.652.652,0,0,0,.827-.541l4.665-42.423L45.777,47.9l-1.8,48.185,14.153-8.171A3.317,3.317,0,0,0,59.749,85Z" transform="translate(-14.265 -10.202)" fill="#3b454c"/>
        <path id="Path_55445" data-name="Path 55445" d="M13.914,86.069,8.376,33.648,34.228,48.615,32.431,96.8Z" transform="translate(-2.717 -10.914)" fill="#555d66"/>
        <path id="Path_55446" data-name="Path 55446" d="M30.432,78.918l-8.779-4.984c-.863-.5-1.569.036-1.569,1.186l1.165,26.006,10.729,6.218L32,81.915a3.769,3.769,0,0,0-1.568-3" transform="translate(-6.514 -23.92)" fill="#d66c3e"/>
        <path id="Path_55447" data-name="Path 55447" d="M26.789,84.475a1.379,1.379,0,0,1,.164.378L27.706,84c.193-.219.618.026.81.468l1.117,2.559a2.644,2.644,0,0,1,.376.385c.061.072.122.141.184.211l.017.018c.011-.03.026-.064.028-.074a1.67,1.67,0,0,0,.026-.2c.005-.057.005-.12.007-.178L28.66,83.489c-.261-.6-.836-.931-1.1-.634L26.406,84.17a.8.8,0,0,1,.383.305" transform="translate(-8.565 -26.839)" fill="#fff"/>
        <path id="Path_55448" data-name="Path 55448" d="M32.529,93.525l-1.265-2.9a.348.348,0,0,1-.116.164c-.119.082-.288-.005-.447-.151l.83,1.9c.217.5-.016.861-.405.636l-2.484-1.434a.651.651,0,0,1-.188.093,1.069,1.069,0,0,0-.18.054l.007.012c.1.155.2.353.295.52l3.405,1.966c.528.3.843-.19.549-.863" transform="translate(-9.171 -29.396)" fill="#fff"/>
        <path id="Path_55449" data-name="Path 55449" d="M26.146,90.089c-.057-.222,0-.351.117-.418l-1.626-.938c-.39-.225-.622-.858-.4-1.1l1.312-1.492c-.016-.082-.032-.163-.05-.245s-.029-.137-.049-.206c0-.014-.009-.029-.014-.043l-.006,0c-.058-.016-.12-.045-.179-.062-.095-.028-.187-.045-.282-.076l-.007,0-1.724,1.961c-.294.334.02,1.191.549,1.5l2.471,1.427a1.8,1.8,0,0,1-.108-.293" transform="translate(-7.499 -27.732)" fill="#fff"/>
        <path id="Path_55450" data-name="Path 55450" d="M24.277,84.419l1.651.728.349,1.983Z" transform="translate(-7.874 -27.382)" fill="#fff"/>
        <path id="Path_55451" data-name="Path 55451" d="M31.918,88.143l-.484,1.545-1.562-1.253Z" transform="translate(-9.689 -28.59)" fill="#fff"/>
        <path id="Path_55452" data-name="Path 55452" d="M28.948,93.993l-1.072-2.077,1.1-.677Z" transform="translate(-9.042 -29.594)" fill="#fff"/>
        <g id="Group_51916" data-name="Group 51916" transform="translate(5.659 22.735)" opacity="0.1" style="mix-blend-mode: multiply;isolation: isolate">
          <g id="Group_51915" data-name="Group 51915">
            <g id="Group_51914" data-name="Group 51914" clip-path="url(#clip-path-4)">
              <path id="Path_55453" data-name="Path 55453" d="M9.051,40.032,34.018,54.246l.21-5.631L8.377,33.649Z" transform="translate(-8.376 -33.649)" fill="#00377e"/>
            </g>
          </g>
        </g>
        <path id="Path_55454" data-name="Path 55454" d="M34.149,7.735,60,22.7,31.511,39.15,5.659,24.184Zm0-3.267-1.415.817L0,21.354v2.83l4.244,2.451L30.1,41.6l1.415.817,1.415-.817,28.49-16.449L65.66,22.7v-2.83L35.564,5.285Z" transform="translate(0 -1.449)" fill="#d66c3e"/>
        <path id="Path_55455" data-name="Path 55455" d="M34.149,3.546,60,18.513,31.511,34.961,5.659,19.995Zm0-3.267L32.734,1.1,4.244,17.544,0,19.995l4.244,2.451L30.1,37.412l1.415.817,1.415-.817,28.49-16.449,4.244-2.451-4.244-2.451L35.564,1.1Z" transform="translate(0 -0.09)" fill="#ffb061"/>
        <path id="Path_55456" data-name="Path 55456" d="M63.086,16.246l-3.763.127L39.75,5.259a6.607,6.607,0,0,0-6.567.023L11.154,18l-3.64.123v3h.022a1.821,1.821,0,0,0,.915,1.622l22.42,12.973a6.422,6.422,0,0,0,6.427,0L62.091,21.41a2.075,2.075,0,0,0,.984-1.894h.011Z" transform="translate(-2.437 -1.426)" fill="#d66c3e"/>
        <path id="Path_55457" data-name="Path 55457" d="M60.318,4.914l-2.592-1.5A1.781,1.781,0,0,1,56.984,2c0-.543.334-.8.741-.559l2.592,1.5a1.78,1.78,0,0,1,.741,1.415c0,.543-.333.8-.741.56" transform="translate(-18.483 -0.439)" fill="#d66c3e"/>
        <path id="Path_55458" data-name="Path 55458" d="M84.2,18.546l-2.592-1.5a1.783,1.783,0,0,1-.741-1.415c0-.543.334-.8.741-.56l2.592,1.5a1.781,1.781,0,0,1,.741,1.415c0,.543-.333.8-.741.56" transform="translate(-26.229 -4.861)" fill="#d66c3e"/>
        <path id="Path_55459" data-name="Path 55459" d="M33.193.886,8.462,15.164a1.841,1.841,0,0,0,0,3.188L30.88,31.325a6.422,6.422,0,0,0,6.427,0L62.1,17.014a2.148,2.148,0,0,0,.5-3.181L39.759.862a6.607,6.607,0,0,0-6.567.024" transform="translate(-2.446 0)" fill="#ffb061"/>
        <path id="Path_55460" data-name="Path 55460" d="M33.871,1.892,10.225,15.543a1.761,1.761,0,0,0,0,3.049L31.66,31a6.142,6.142,0,0,0,6.146,0l23.7-13.686a2.055,2.055,0,0,0,.48-3.042L40.149,1.87a6.319,6.319,0,0,0-6.278.022" transform="translate(-3.031 -0.339)" fill="#ed844f"/>
        <path id="Path_55461" data-name="Path 55461" d="M36.511,4.436,17.09,15.649a1.446,1.446,0,0,0,0,2.5L34.7,28.341a5.043,5.043,0,0,0,5.048,0L59.212,17.1a1.687,1.687,0,0,0,.394-2.5L41.668,4.418a5.19,5.19,0,0,0-5.157.018" transform="translate(-5.309 -1.214)" fill="#ffb061"/>
        <path id="Path_55462" data-name="Path 55462" d="M35.639,15.384l-.52.3-2.177-1.257,2.794-1.613,2.125,1.226-.519.3-1.478-.853-.607.35,1.305.753-.5.291-1.305-.753-.647.373Z" transform="translate(-10.685 -4.156)" fill="#fff"/>
        <path id="Path_55463" data-name="Path 55463" d="M38.422,16.155l1.137.656-.5.288-1.137-.657Z" transform="translate(-12.301 -5.24)" fill="#fff"/>
        <path id="Path_55464" data-name="Path 55464" d="M46.323,18.669,42.609,19.75l-.7-.4L43.184,17.9l-2.531.724-.694-.4,1.87-2.146.676.389-1.33,1.5,2.626-.751.6.348-1.336,1.513,2.635-.765Z" transform="translate(-12.961 -5.214)" fill="#fff"/>
        <path id="Path_55465" data-name="Path 55465" d="M47.914,22.725l-1.3-.753-.847.2-.668-.385,4.047-.89.643.372-1.537,2.338-.682-.394Zm.286-.4.624-.875-1.515.36Z" transform="translate(-14.627 -6.779)" fill="#fff"/>
        <path id="Path_55466" data-name="Path 55466" d="M50.542,24.614a.975.975,0,0,1-.267-.424l.708-.153a.941.941,0,0,0,.218.37,1.682,1.682,0,0,0,.418.334,1.408,1.408,0,0,0,.492.189.541.541,0,0,0,.349-.049c.066-.039.1-.085.088-.141a.368.368,0,0,0-.1-.177q-.083-.094-.243-.242a3.9,3.9,0,0,1-.375-.392.452.452,0,0,1-.107-.343c.013-.121.114-.235.3-.343a1.464,1.464,0,0,1,.574-.178,2.123,2.123,0,0,1,.712.05,2.776,2.776,0,0,1,.769.309,2.425,2.425,0,0,1,.462.341,1.092,1.092,0,0,1,.267.366l-.693.168a1.34,1.34,0,0,0-.559-.576,1.292,1.292,0,0,0-.492-.182.575.575,0,0,0-.361.058q-.144.083-.063.21a1.937,1.937,0,0,0,.322.345,3.81,3.81,0,0,1,.374.391.463.463,0,0,1,.112.341q-.017.179-.3.341a1.439,1.439,0,0,1-.572.174,2.156,2.156,0,0,1-.717-.052,2.787,2.787,0,0,1-.771-.311,2.465,2.465,0,0,1-.554-.424" transform="translate(-16.307 -7.478)" fill="#fff"/>
        <path id="Path_55467" data-name="Path 55467" d="M57.058,25.481l-.9-.52.527-.3,2.449,1.414-.526.3-.9-.52-2.267,1.309-.651-.376Z" transform="translate(-17.772 -7.998)" fill="#fff"/>
        <path id="Path_55468" data-name="Path 55468" d="M60.3,29.62l-.52.3L57.6,28.663l2.794-1.613,2.126,1.226-.519.3-1.478-.853-.607.35,1.306.753-.5.291-1.305-.753-.647.373Z" transform="translate(-18.683 -8.774)" fill="#fff"/>
        <path id="Path_55469" data-name="Path 55469" d="M77.819,97.8l.236-.4-1.111-.6a3.31,3.31,0,0,0-3.514.268,10.592,10.592,0,0,0-4.807,8.291,3.392,3.392,0,0,0,1.318,3.026l0,.006.076.043.041.022,1.171.657.213-.365a4.487,4.487,0,0,0,1.992-.65A10.588,10.588,0,0,0,78.237,99.8a4.456,4.456,0,0,0-.418-2" transform="translate(-22.259 -31.27)" fill="#797f84"/>
        <path id="Path_55470" data-name="Path 55470" d="M70.38,106.328c0,3.046,2.152,4.273,4.807,2.74a10.59,10.59,0,0,0,4.807-8.29c0-3.046-2.152-4.273-4.807-2.74a10.59,10.59,0,0,0-4.807,8.29" transform="translate(-22.828 -31.585)" fill="#3b454c"/>
        <path id="Path_55471" data-name="Path 55471" d="M75.26,106.457c0,.957.676,1.342,1.509.861a3.328,3.328,0,0,0,1.51-2.6c0-.957-.676-1.342-1.51-.861a3.327,3.327,0,0,0-1.509,2.6" transform="translate(-24.411 -33.619)" fill="#9da2a5"/>
        <g id="Group_51919" data-name="Group 51919" transform="translate(48.893 79.217)" opacity="0.1" style="mix-blend-mode: multiply;isolation: isolate">
          <g id="Group_51918" data-name="Group 51918">
            <g id="Group_51917" data-name="Group 51917" clip-path="url(#clip-path-3)">
              <path id="Path_55472" data-name="Path 55472" d="M133.486,130.6l-23.068-13.354-38.053,19.6,18.517,10.731,12.941.145Z" transform="translate(-72.365 -117.247)" fill="#00377e"/>
            </g>
          </g>
        </g>
        <path id="Path_55473" data-name="Path 55473" d="M129.426,138.053,121.2,133.3a13.017,13.017,0,0,0-.085,1.945l8.316,4.8c.411.238.748-.017.748-.566a1.8,1.8,0,0,0-.748-1.429" transform="translate(-39.281 -43.237)" fill="#3b454c"/>
        <path id="Path_55474" data-name="Path 55474" d="M115.541,120.095a12.593,12.593,0,0,1,5.715-9.858,4.584,4.584,0,0,1,3.309-.7.651.651,0,0,0,.826-.541l4.666-42.422-28.49,16.449-1.8,48.185,14.153-8.171a3.318,3.318,0,0,0,1.617-2.921Z" transform="translate(-32.362 -21.594)" fill="#3b454c"/>
        <path id="Path_55475" data-name="Path 55475" d="M69.706,121.187l-5.538-52.42L90.021,83.734l-1.8,48.185Z" transform="translate(-20.814 -22.305)" fill="#555d66"/>
        <path id="Path_55476" data-name="Path 55476" d="M86.224,114.037l-8.779-4.984c-.863-.5-1.568.036-1.568,1.186l1.165,26.006,10.729,6.218.022-25.428a3.769,3.769,0,0,0-1.568-3" transform="translate(-24.611 -35.311)" fill="#2b9acf"/>
        <path id="Path_55477" data-name="Path 55477" d="M82.607,117.908a1.358,1.358,0,0,1,.163.378l.753-.857c.193-.22.618.025.81.468l1.117,2.559a2.644,2.644,0,0,1,.376.385c.061.072.122.141.184.211l.017.018c.011-.03.026-.064.028-.075a1.686,1.686,0,0,0,.026-.2c.005-.058.005-.119.007-.179l-1.611-3.693c-.261-.6-.836-.931-1.1-.634L82.224,117.6a.8.8,0,0,1,.383.305" transform="translate(-26.67 -37.683)" fill="#fff"/>
        <path id="Path_55478" data-name="Path 55478" d="M88.348,126.958l-1.265-2.9a.348.348,0,0,1-.116.164c-.119.082-.288-.005-.447-.151l.83,1.9c.217.5-.016.861-.405.636l-2.484-1.434a.648.648,0,0,1-.187.093,1.077,1.077,0,0,0-.181.054l.007.012c.1.155.2.353.295.52l3.405,1.966c.528.3.843-.19.549-.863" transform="translate(-27.276 -40.24)" fill="#fff"/>
        <path id="Path_55479" data-name="Path 55479" d="M81.964,123.522c-.057-.222,0-.351.117-.418l-1.626-.938c-.39-.225-.622-.858-.4-1.1l1.312-1.492c-.016-.082-.032-.163-.049-.245s-.03-.136-.049-.206c0-.014-.009-.028-.014-.043l-.006,0c-.058-.016-.12-.045-.179-.062-.095-.028-.187-.045-.282-.076l-.007,0-1.724,1.961c-.294.334.02,1.191.549,1.5l2.471,1.427a1.8,1.8,0,0,1-.108-.293" transform="translate(-25.605 -38.576)" fill="#fff"/>
        <path id="Path_55480" data-name="Path 55480" d="M80.095,117.852l1.651.728.349,1.983Z" transform="translate(-25.979 -38.226)" fill="#fff"/>
        <path id="Path_55481" data-name="Path 55481" d="M87.736,121.576l-.484,1.545-1.562-1.253Z" transform="translate(-27.794 -39.434)" fill="#fff"/>
        <path id="Path_55482" data-name="Path 55482" d="M84.766,127.426l-1.072-2.077,1.1-.677Z" transform="translate(-27.147 -40.438)" fill="#fff"/>
        <g id="Group_51922" data-name="Group 51922" transform="translate(43.355 46.462)" opacity="0.1" style="mix-blend-mode: multiply;isolation: isolate">
          <g id="Group_51921" data-name="Group 51921">
            <g id="Group_51920" data-name="Group 51920" clip-path="url(#clip-path-6)">
              <path id="Path_55483" data-name="Path 55483" d="M64.843,75.15,89.811,89.365l.21-5.631L64.169,68.768Z" transform="translate(-64.169 -68.767)" fill="#00377e"/>
            </g>
          </g>
        </g>
        <path id="Path_55484" data-name="Path 55484" d="M89.942,42.854l25.852,14.966L87.3,74.269,61.452,59.3Zm0-3.267-1.415.817L55.793,56.473V59.3l4.244,2.451L85.889,76.72l1.415.817,1.415-.817,28.49-16.449,4.244-2.451v-2.83L91.357,40.4Z" transform="translate(-18.097 -12.84)" fill="#44aad8"/>
        <path id="Path_55485" data-name="Path 55485" d="M89.942,38.665l25.852,14.966L87.3,70.08,61.452,55.114Zm0-3.267-1.415.817L60.037,52.663l-4.244,2.451,4.244,2.451L85.889,72.531l1.415.817,1.415-.817,28.49-16.449,4.244-2.451-4.244-2.451L91.357,36.215Z" transform="translate(-18.097 -11.482)" fill="#5cd9ff"/>
        <path id="Path_55486" data-name="Path 55486" d="M118.878,51.365l-3.763.128L95.542,40.378a6.608,6.608,0,0,0-6.567.023L66.946,53.119l-3.64.124v3h.022a1.821,1.821,0,0,0,.915,1.622l22.42,12.973a6.422,6.422,0,0,0,6.427,0l24.793-14.314a2.075,2.075,0,0,0,.984-1.895h.011Z" transform="translate(-20.534 -12.817)" fill="#44aad8"/>
        <path id="Path_55487" data-name="Path 55487" d="M116.111,40.032l-2.592-1.5a1.781,1.781,0,0,1-.741-1.415c0-.543.334-.8.741-.559l2.592,1.5a1.781,1.781,0,0,1,.741,1.415c0,.543-.334.8-.741.56" transform="translate(-36.58 -11.83)" fill="#2b9acf"/>
        <path id="Path_55488" data-name="Path 55488" d="M139.991,53.664l-2.592-1.5a1.782,1.782,0,0,1-.741-1.415c0-.543.334-.8.741-.56l2.592,1.5a1.781,1.781,0,0,1,.74,1.415c0,.543-.333.8-.74.56" transform="translate(-44.326 -16.252)" fill="#2b9acf"/>
        <path id="Path_55489" data-name="Path 55489" d="M88.985,36,64.254,50.282a1.841,1.841,0,0,0,0,3.188L86.672,66.443a6.42,6.42,0,0,0,6.427,0l24.793-14.314a2.148,2.148,0,0,0,.5-3.181L95.551,35.98A6.607,6.607,0,0,0,88.985,36" transform="translate(-20.543 -11.391)" fill="#5cd9ff"/>
        <path id="Path_55490" data-name="Path 55490" d="M89.628,36.959l-23.7,13.684a1.765,1.765,0,0,0,0,3.056L87.411,66.131a6.156,6.156,0,0,0,6.16,0l23.76-13.718a2.059,2.059,0,0,0,.48-3.048L95.921,36.936a6.332,6.332,0,0,0-6.293.022" transform="translate(-21.098 -11.713)" fill="#54baef"/>
        <path id="Path_55491" data-name="Path 55491" d="M92.6,40.031,73.658,50.969a1.411,1.411,0,0,0,0,2.442l17.173,9.937a4.919,4.919,0,0,0,4.923,0l18.992-10.964a1.645,1.645,0,0,0,.384-2.437l-17.5-9.936a5.061,5.061,0,0,0-5.03.018" transform="translate(-23.663 -12.764)" fill="#5cd9ff"/>
        <path id="Path_55492" data-name="Path 55492" d="M93.687,48.209a.553.553,0,0,1,.081.511.929.929,0,0,1-.446.454,2.044,2.044,0,0,1-.782.256,2.605,2.605,0,0,1-.885-.047,3.119,3.119,0,0,1-.88-.348l-.648-.374-.88.508-.743-.428L91.7,46.9l1.39.8a1.747,1.747,0,0,1,.6.509m-1.7.666a1.032,1.032,0,0,0,.584-.135c.178-.1.257-.217.238-.339s-.143-.249-.366-.377l-.607-.35-1.108.64.607.351a1.481,1.481,0,0,0,.652.211" transform="translate(-28.707 -15.212)" fill="#fff"/>
        <path id="Path_55493" data-name="Path 55493" d="M96.6,49.729l.743.429-2.59,1.5,1.61.929-.6.348-2.355-1.358Z" transform="translate(-30.297 -16.13)" fill="#fff"/>
        <path id="Path_55494" data-name="Path 55494" d="M100.147,55.07l-1.491-.861-.969.23L96.925,54l4.624-1.017.735.425-1.756,2.671-.78-.451Zm.326-.459.712-1-1.73.411Z" transform="translate(-31.438 -17.185)" fill="#fff"/>
        <path id="Path_55495" data-name="Path 55495" d="M103.148,57.227a1.124,1.124,0,0,1-.3-.484l.809-.174a1.049,1.049,0,0,0,.249.422,1.9,1.9,0,0,0,.477.381,1.611,1.611,0,0,0,.561.216.617.617,0,0,0,.4-.056.161.161,0,0,0,.1-.161.416.416,0,0,0-.11-.2c-.062-.071-.155-.163-.276-.276a4.355,4.355,0,0,1-.43-.447.517.517,0,0,1-.122-.393c.016-.139.13-.269.343-.393a1.661,1.661,0,0,1,.655-.2,2.382,2.382,0,0,1,.814.056,3.176,3.176,0,0,1,.88.355,2.738,2.738,0,0,1,.527.388,1.24,1.24,0,0,1,.3.418l-.791.191a1.522,1.522,0,0,0-.639-.658,1.465,1.465,0,0,0-.561-.209.668.668,0,0,0-.414.066q-.163.1-.073.24a2.233,2.233,0,0,0,.369.395,4.207,4.207,0,0,1,.428.448.533.533,0,0,1,.129.389c-.013.137-.126.266-.338.389a1.658,1.658,0,0,1-.653.2,2.44,2.44,0,0,1-.82-.06,3.226,3.226,0,0,1-.88-.355,2.846,2.846,0,0,1-.634-.485" transform="translate(-33.359 -17.984)" fill="#fff"/>
        <path id="Path_55496" data-name="Path 55496" d="M110.592,58.218l-1.027-.594.6-.347,2.8,1.615-.6.348-1.028-.594-2.59,1.5-.745-.43Z" transform="translate(-35.031 -18.578)" fill="#fff"/>
        <path id="Path_55497" data-name="Path 55497" d="M114.408,60.01l.743.429-3.192,1.843-.743-.429Z" transform="translate(-36.074 -19.465)" fill="#fff"/>
        <path id="Path_55498" data-name="Path 55498" d="M114.588,63.619a.775.775,0,0,1-.035-.7,1.39,1.39,0,0,1,.623-.623,2.96,2.96,0,0,1,1.078-.359,3.8,3.8,0,0,1,1.212.021,3.308,3.308,0,0,1,1.1.393,1.847,1.847,0,0,1,.609.519.782.782,0,0,1,.147.57l-.916-.023a.691.691,0,0,0-.432-.682,1.978,1.978,0,0,0-.663-.233,2.256,2.256,0,0,0-.729,0,1.91,1.91,0,0,0-.658.23.947.947,0,0,0-.4.38.455.455,0,0,0,0,.42.971.971,0,0,0,.4.382,2.163,2.163,0,0,0,1.186.248l.039.528a3.528,3.528,0,0,1-.993-.084,3.268,3.268,0,0,1-.9-.353,1.683,1.683,0,0,1-.676-.634" transform="translate(-37.134 -20.077)" fill="#fff"/>
        <path id="Path_55499" data-name="Path 55499" d="M133.612,132.92l.236-.4-1.111-.6a3.31,3.31,0,0,0-3.514.268,10.592,10.592,0,0,0-4.806,8.291,3.391,3.391,0,0,0,1.318,3.026l0,.007.076.043c.014.008.026.016.041.022l1.171.657.213-.365a4.5,4.5,0,0,0,1.992-.65,10.589,10.589,0,0,0,4.807-8.29,4.45,4.45,0,0,0-.418-2" transform="translate(-40.356 -42.661)" fill="#797f84"/>
        <path id="Path_55500" data-name="Path 55500" d="M126.172,141.446c0,3.046,2.152,4.273,4.807,2.74a10.59,10.59,0,0,0,4.807-8.29c0-3.046-2.152-4.273-4.807-2.74a10.59,10.59,0,0,0-4.807,8.29" transform="translate(-40.925 -42.976)" fill="#3b454c"/>
        <path id="Path_55501" data-name="Path 55501" d="M131.052,141.576c0,.957.676,1.342,1.509.861a3.328,3.328,0,0,0,1.51-2.6c0-.957-.676-1.342-1.51-.861a3.329,3.329,0,0,0-1.509,2.6" transform="translate(-42.508 -45.01)" fill="#9da2a5"/>
        <g id="Group_51925" data-name="Group 51925" transform="translate(88.154 103.161)" opacity="0.1" style="mix-blend-mode: multiply;isolation: isolate">
          <g id="Group_51924" data-name="Group 51924">
            <g id="Group_51923" data-name="Group 51923" clip-path="url(#clip-path-3)">
              <path id="Path_55502" data-name="Path 55502" d="M191.6,166.04l-23.068-13.354-38.053,19.6,18.517,10.731,12.941.145Z" transform="translate(-130.475 -152.686)" fill="#00377e"/>
            </g>
          </g>
        </g>
        <path id="Path_55503" data-name="Path 55503" d="M187.536,173.492l-8.231-4.752a13.017,13.017,0,0,0-.085,1.945l8.316,4.8c.411.238.748-.017.748-.566a1.8,1.8,0,0,0-.748-1.429" transform="translate(-58.13 -54.732)" fill="#3b454c"/>
        <path id="Path_55504" data-name="Path 55504" d="M173.652,155.534a12.593,12.593,0,0,1,5.715-9.858,4.581,4.581,0,0,1,3.31-.7.653.653,0,0,0,.826-.541l4.665-42.422L159.68,118.462l-1.8,48.185,14.153-8.171a3.316,3.316,0,0,0,1.617-2.921Z" transform="translate(-51.21 -33.089)" fill="#3b454c"/>
        <path id="Path_55505" data-name="Path 55505" d="M127.817,156.627l-5.538-52.42,25.852,14.967-1.8,48.185Z" transform="translate(-39.662 -33.8)" fill="#555d66"/>
        <path id="Path_55506" data-name="Path 55506" d="M144.335,149.476l-8.779-4.984c-.863-.5-1.568.036-1.568,1.186l1.165,26.006,10.729,6.218.022-25.428a3.769,3.769,0,0,0-1.568-3" transform="translate(-43.46 -46.806)" fill="#f2ae31"/>
        <path id="Path_55507" data-name="Path 55507" d="M140.331,152.921a1.362,1.362,0,0,1,.164.377l.753-.856c.193-.22.618.025.81.468l1.118,2.559a2.644,2.644,0,0,1,.375.385c.061.072.122.141.184.211l.017.018c.012-.03.026-.064.028-.075a1.7,1.7,0,0,0,.026-.2c.005-.058.005-.12.007-.179l-1.611-3.693c-.261-.6-.836-.931-1.1-.634l-1.157,1.315a.8.8,0,0,1,.383.305" transform="translate(-45.393 -49.04)" fill="#fff"/>
        <path id="Path_55508" data-name="Path 55508" d="M146.071,161.971l-1.265-2.9a.343.343,0,0,1-.116.163c-.119.083-.288,0-.447-.151l.83,1.9c.217.5-.016.861-.405.636l-2.484-1.434a.651.651,0,0,1-.188.093,1.01,1.01,0,0,0-.18.054l.007.012c.1.155.2.353.295.52l3.405,1.966c.528.3.843-.19.549-.863" transform="translate(-45.999 -51.597)" fill="#fff"/>
        <path id="Path_55509" data-name="Path 55509" d="M139.688,158.535c-.057-.222,0-.351.117-.418l-1.626-.939c-.39-.225-.622-.857-.4-1.1l1.312-1.492c-.016-.082-.032-.163-.049-.245s-.03-.137-.049-.206c0-.014-.009-.029-.014-.043l-.006,0c-.058-.016-.12-.045-.178-.062-.1-.028-.188-.046-.283-.076l-.007,0-1.724,1.961c-.294.334.021,1.192.549,1.5l2.471,1.427a1.819,1.819,0,0,1-.108-.293" transform="translate(-44.328 -49.933)" fill="#fff"/>
        <path id="Path_55510" data-name="Path 55510" d="M137.818,152.864l1.651.728.349,1.983Z" transform="translate(-44.703 -49.583)" fill="#fff"/>
        <path id="Path_55511" data-name="Path 55511" d="M145.46,156.588l-.484,1.545-1.562-1.253Z" transform="translate(-46.517 -50.791)" fill="#fff"/>
        <path id="Path_55512" data-name="Path 55512" d="M142.489,162.438l-1.072-2.077,1.1-.677Z" transform="translate(-45.87 -51.795)" fill="#fff"/>
        <g id="Group_51928" data-name="Group 51928" transform="translate(82.617 70.407)" opacity="0.1" style="mix-blend-mode: multiply;isolation: isolate">
          <g id="Group_51927" data-name="Group 51927">
            <g id="Group_51926" data-name="Group 51926" clip-path="url(#clip-path-4)">
              <path id="Path_55513" data-name="Path 55513" d="M122.954,110.59,147.922,124.8l.21-5.631L122.28,104.207Z" transform="translate(-122.28 -104.207)" fill="#00377e"/>
            </g>
          </g>
        </g>
        <path id="Path_55514" data-name="Path 55514" d="M148.053,78.293,173.9,93.26l-28.49,16.449L119.563,94.742Zm0-3.267-1.415.817L113.9,91.912v2.83l4.244,2.451L144,112.159l1.415.817,1.415-.817L175.32,95.71l4.244-2.451V90.43l-30.1-14.587Z" transform="translate(-36.946 -24.335)" fill="#f2ae31"/>
        <path id="Path_55515" data-name="Path 55515" d="M148.053,74.105,173.9,89.071l-28.49,16.449L119.563,90.553Zm0-3.268-1.415.818L118.148,88.1,113.9,90.553,118.148,93,144,107.97l1.415.817,1.415-.817,28.49-16.448,4.244-2.451L175.32,86.62,149.468,71.655Z" transform="translate(-36.946 -22.977)" fill="#f2ed70"/>
        <path id="Path_55516" data-name="Path 55516" d="M176.99,86.8l-3.763.127L153.654,75.816a6.608,6.608,0,0,0-6.567.024l-22.03,12.719-3.639.123v3h.021a1.822,1.822,0,0,0,.915,1.622l22.42,12.973a6.422,6.422,0,0,0,6.427,0l24.793-14.314a2.075,2.075,0,0,0,.984-1.895h.011Z" transform="translate(-39.383 -24.312)" fill="#f2ae31"/>
        <path id="Path_55517" data-name="Path 55517" d="M174.221,75.471l-2.593-1.5a1.783,1.783,0,0,1-.741-1.415c0-.543.334-.8.741-.559l2.593,1.5a1.782,1.782,0,0,1,.741,1.415c0,.543-.334.8-.741.559" transform="translate(-55.429 -23.325)" fill="#f2ae31"/>
        <path id="Path_55518" data-name="Path 55518" d="M198.1,89.1l-2.592-1.5a1.781,1.781,0,0,1-.741-1.415c0-.543.334-.8.741-.56l2.592,1.5a1.781,1.781,0,0,1,.741,1.415c0,.543-.334.8-.741.56" transform="translate(-63.175 -27.746)" fill="#f2ae31"/>
        <path id="Path_55519" data-name="Path 55519" d="M147.1,71.443,122.365,85.722a1.841,1.841,0,0,0,0,3.188l22.419,12.972a6.42,6.42,0,0,0,6.427,0L176,87.572a2.148,2.148,0,0,0,.5-3.181L153.662,71.42a6.608,6.608,0,0,0-6.567.023" transform="translate(-39.392 -22.886)" fill="#f2ed70"/>
        <path id="Path_55520" data-name="Path 55520" d="M147.675,72.3l-23.8,13.743a1.772,1.772,0,0,0,0,3.069L145.449,101.6a6.181,6.181,0,0,0,6.187,0L175.5,87.828a2.068,2.068,0,0,0,.483-3.062L154,72.282a6.361,6.361,0,0,0-6.321.022" transform="translate(-39.892 -23.176)" fill="#f2ce51"/>
        <g id="Group_51931" data-name="Group 51931" transform="translate(88.46 50.476)" opacity="0.57">
          <g id="Group_51930" data-name="Group 51930">
            <g id="Group_51929" data-name="Group 51929" clip-path="url(#clip-path-9)">
              <path id="Path_55521" data-name="Path 55521" d="M150.661,75.389,131.636,86.374a1.416,1.416,0,0,0,0,2.453l17.248,9.98a4.94,4.94,0,0,0,4.944,0L172.9,87.8a1.652,1.652,0,0,0,.386-2.447l-17.573-9.979a5.085,5.085,0,0,0-5.052.018" transform="translate(-130.928 -74.708)" fill="#f2ed70"/>
            </g>
          </g>
        </g>
        <path id="Path_55522" data-name="Path 55522" d="M153.123,86.368a.551.551,0,0,1,.082.511.934.934,0,0,1-.445.453,2.048,2.048,0,0,1-.783.257,2.6,2.6,0,0,1-.886-.048,3.137,3.137,0,0,1-.88-.347l-.646-.374-.881.508-.743-.428,3.192-1.843,1.39.8a1.752,1.752,0,0,1,.6.509m-1.7.665a1.02,1.02,0,0,0,.584-.135c.178-.1.258-.216.238-.339s-.143-.247-.366-.376l-.605-.35-1.108.64.605.35a1.464,1.464,0,0,0,.652.211" transform="translate(-47.986 -27.589)" fill="#fff"/>
        <path id="Path_55523" data-name="Path 55523" d="M155.2,90.7l-1.49-.861-.97.231-.762-.44,4.624-1.017.735.424-1.756,2.672-.781-.451Zm.327-.459.712-1-1.731.411Z" transform="translate(-49.296 -28.742)" fill="#fff"/>
        <path id="Path_55524" data-name="Path 55524" d="M162.99,92.066a.551.551,0,0,1,.082.511.922.922,0,0,1-.444.453,2.055,2.055,0,0,1-.784.257,2.6,2.6,0,0,1-.886-.048,3.113,3.113,0,0,1-.878-.347l-.648-.374-.881.509-.742-.429L161,90.754l1.39.8a1.739,1.739,0,0,1,.6.509m-1.7.665a1.016,1.016,0,0,0,.582-.135c.179-.1.259-.216.238-.339s-.142-.247-.366-.376l-.606-.35-1.108.64.606.35a1.464,1.464,0,0,0,.653.211" transform="translate(-51.187 -29.437)" fill="#fff"/>
        <path id="Path_55525" data-name="Path 55525" d="M165.791,96.521l-.593.342-2.487-1.435,3.192-1.843,2.428,1.4-.593.343-1.69-.975-.693.4,1.491.861-.575.332-1.491-.861-.738.427Z" transform="translate(-52.777 -30.355)" fill="#fff"/>
        <path id="Path_55526" data-name="Path 55526" d="M169.315,99.24l.269-.872-.035-.021-.648-.374-.889.513-.742-.429,3.192-1.843,1.39.8a1.759,1.759,0,0,1,.6.509.553.553,0,0,1,.082.511.931.931,0,0,1-.445.453,2.017,2.017,0,0,1-.786.255,2.611,2.611,0,0,1-.884-.055l-.305,1.008Zm2.259-1.522c-.021-.122-.142-.248-.366-.376l-.606-.35-1.113.643.607.349a1.456,1.456,0,0,0,.654.21,1.045,1.045,0,0,0,.586-.136c.179-.1.259-.217.238-.339" transform="translate(-54.255 -31.208)" fill="#fff"/>
        <path id="Path_55527" data-name="Path 55527" d="M191.722,168.359l.236-.4-1.111-.6a3.31,3.31,0,0,0-3.514.268,10.592,10.592,0,0,0-4.807,8.291,3.39,3.39,0,0,0,1.318,3.026l0,.007.076.043.041.023,1.171.657.213-.365a4.511,4.511,0,0,0,1.992-.649,10.592,10.592,0,0,0,4.807-8.291,4.452,4.452,0,0,0-.418-2" transform="translate(-59.204 -54.156)" fill="#797f84"/>
        <path id="Path_55528" data-name="Path 55528" d="M184.283,176.886c0,3.046,2.152,4.273,4.807,2.74a10.59,10.59,0,0,0,4.807-8.29c0-3.046-2.152-4.273-4.807-2.741a10.593,10.593,0,0,0-4.807,8.291" transform="translate(-59.774 -54.471)" fill="#3b454c"/>
        <path id="Path_55529" data-name="Path 55529" d="M189.163,177.015c0,.957.676,1.342,1.509.861a3.328,3.328,0,0,0,1.51-2.6c0-.957-.676-1.342-1.51-.861a3.329,3.329,0,0,0-1.509,2.6" transform="translate(-61.357 -56.505)" fill="#9da2a5"/>
        <path id="Path_55530" data-name="Path 55530" d="M165.278,168.216l29.441-16.949,14.519,8.327L185.421,173.32l-5.623,3.223Z" transform="translate(-53.609 -49.065)" fill="#4c4038"/>
        <g id="Group_51934" data-name="Group 51934" transform="translate(111.701 115.66)" opacity="0.1" style="mix-blend-mode: multiply;isolation: isolate">
          <g id="Group_51933" data-name="Group 51933">
            <g id="Group_51932" data-name="Group 51932" clip-path="url(#clip-path-10)">
              <path id="Path_55531" data-name="Path 55531" d="M185.549,199.8l3.879-2.223,28.5-16.424-17.373-9.964-35.227,20.281,14.524,8.33Z" transform="translate(-165.326 -171.185)" fill="#284e7e"/>
            </g>
          </g>
        </g>
        <path id="Path_55532" data-name="Path 55532" d="M165.278,173.87l8.9-5.172,14.518,8.327-8.9,5.172Z" transform="translate(-53.609 -54.719)" fill="#d6ba93"/>
        <g id="Group_51937" data-name="Group 51937" transform="translate(111.669 114.004)" opacity="0.41" style="mix-blend-mode: multiply;isolation: isolate">
          <g id="Group_51936" data-name="Group 51936">
            <g id="Group_51935" data-name="Group 51935" clip-path="url(#clip-path-11)">
              <path id="Path_55533" data-name="Path 55533" d="M182.934,173.733l-8.715-5-8.941,5.147L177.26,177Z" transform="translate(-165.278 -168.735)" fill="#a68862"/>
            </g>
          </g>
        </g>
        <path id="Path_55534" data-name="Path 55534" d="M165.278,168.216l29.441-16.949,7.787.1-29.441,16.949Z" transform="translate(-53.609 -49.065)" fill="#ebd2a8"/>
        <path id="Path_55535" data-name="Path 55535" d="M175.706,168.353,205.147,151.4l-2.369-.031-29.359,16.95Z" transform="translate(-56.25 -49.099)" fill="#968165"/>
        <path id="Path_55536" data-name="Path 55536" d="M184.674,164.518l29.441-16.949,1.414,10.825-23.818,13.727-5.623,3.222Z" transform="translate(-59.901 -47.865)" fill="#b29373"/>
        <path id="Path_55537" data-name="Path 55537" d="M186.767,180.54l5.624-3.223,23.817-13.726V180.41l-23.844,13.743-5.6,3.207Z" transform="translate(-60.579 -53.062)" fill="#a68862"/>
        <path id="Path_55538" data-name="Path 55538" d="M165.283,176.346l14.518,8.327V201.49l-14.518-8.327Z" transform="translate(-53.611 -57.199)" fill="#c9ac82"/>
        <path id="Path_55539" data-name="Path 55539" d="M172.212,184.288l4.2,2.409v-3.968l-4.2-2.409Z" transform="translate(-55.858 -58.488)" fill="#786550"/>
        <path id="Path_55540" data-name="Path 55540" d="M214.115,147.569l-29.441,16.949.391,2.986,29.434-17Z" transform="translate(-59.901 -47.865)" fill="#705c4d"/>
        <path id="Path_55541" data-name="Path 55541" d="M211.511,180.364l-7.077,4.086c-.77.445-1.4-.032-1.4-1.059a3.368,3.368,0,0,1,1.4-2.677l7.077-4.086c.77-.445,1.4.032,1.4,1.059a3.367,3.367,0,0,1-1.4,2.676" transform="translate(-65.856 -57.237)" fill="#4c3b2f"/>
        <path id="Path_55542" data-name="Path 55542" d="M203.879,185.189a.953.953,0,0,1-.484-.125,1.237,1.237,0,0,1-.532-1.14.115.115,0,1,1,.229,0,1.021,1.021,0,0,0,.418.942,1.039,1.039,0,0,0,1.038-.113l6.623-3.823a3.466,3.466,0,0,0,1.57-2.709.115.115,0,0,1,.229,0,3.719,3.719,0,0,1-1.685,2.907l-6.623,3.823a1.577,1.577,0,0,1-.783.239" transform="translate(-65.8 -57.77)" fill="#bf9e81"/>
        <path id="Path_55543" data-name="Path 55543" d="M211.4,180.242l-6.426,3.71c-.7.4-1.272-.029-1.272-.961a3.058,3.058,0,0,1,1.272-2.43l6.426-3.71c.7-.4,1.272.028,1.272.961a3.057,3.057,0,0,1-1.272,2.43" transform="translate(-66.074 -57.314)" fill="#a68862"/>
        <g id="Group_51940" data-name="Group 51940" transform="translate(133.44 134.493)" opacity="0.1" style="mix-blend-mode: multiply;isolation: isolate">
          <g id="Group_51939" data-name="Group 51939">
            <g id="Group_51938" data-name="Group 51938" clip-path="url(#clip-path-12)">
              <path id="Path_55544" data-name="Path 55544" d="M221.571,221.71l18.007-10.464-21.106-12.187L197.5,211.246l18.125,10.464Z" transform="translate(-197.501 -199.059)" fill="#284e7e"/>
            </g>
          </g>
        </g>
        <path id="Path_55545" data-name="Path 55545" d="M214.963,194.448,195.433,205.8v-9.2l19.53-11.349Z" transform="translate(-63.39 -60.086)" fill="#68533e"/>
        <path id="Path_55546" data-name="Path 55546" d="M243.995,205.838l0-9.253-19.658-11.349,0,9.253Z" transform="translate(-72.765 -60.083)" fill="#735c4a"/>
        <path id="Path_55547" data-name="Path 55547" d="M240.17,196.595l-8.036,4.343-19.593-11.122,7.972-4.57Z" transform="translate(-68.939 -60.086)" fill="#dbc09c"/>
        <path id="Path_55548" data-name="Path 55548" d="M237.707,195.031l-7.539,4.761-4.2-2.424,7.539-4.72Z" transform="translate(-73.295 -62.487)" fill="#9b846a"/>
        <path id="Path_55549" data-name="Path 55549" d="M216.472,189.763l5.666,3.217,6.263-3.64-5.619-3.244Z" transform="translate(-70.215 -60.362)" fill="#a68862"/>
        <path id="Path_55550" data-name="Path 55550" d="M215.058,213.384l-.028,8.748-.028.52L195.344,211.3l.028-.563.028-8.7Z" transform="translate(-63.361 -65.531)" fill="#c9ac82"/>
        <path id="Path_55551" data-name="Path 55551" d="M225.03,190.356,205.5,201.705l-10.067-5.11,19.529-11.349Z" transform="translate(-63.391 -60.086)" fill="#ebd2a8"/>
        <path id="Path_55552" data-name="Path 55552" d="M211.988,191.242l9.748,5.336-4.2,2.441-9.748-5.395Z" transform="translate(-67.399 -62.031)" fill="#968165"/>
        <path id="Path_55553" data-name="Path 55553" d="M244.025,202.033,244,211.066l-.028.236-19.53,11.351.028-.521.028-8.748Z" transform="translate(-72.799 -65.531)" fill="#a68862"/>
        <path id="Path_55554" data-name="Path 55554" d="M219.845,201.92l-4.753,7.752-19.658-11.349,4.754-7.752Z" transform="translate(-63.391 -61.813)" fill="#d4ba96"/>
        <path id="Path_55555" data-name="Path 55555" d="M200.936,192.26l19.873,11,.821-1.339L201.971,190.57Z" transform="translate(-65.175 -61.813)" fill="#87725e"/>
        <path id="Path_55556" data-name="Path 55556" d="M214.715,198.884l-4.614,7.867-4.2-2.424,4.614-7.826Z" transform="translate(-66.787 -63.737)" fill="#87725e"/>
        <path id="Path_55557" data-name="Path 55557" d="M240.678,197.078l-19.529,11.349-7.042-10.344,19.529-11.349Z" transform="translate(-69.447 -60.568)" fill="#b29371"/>
        <path id="Path_55558" data-name="Path 55558" d="M233.636,186.734l-19.53,11.349.932,1.368,19.566-11.3Z" transform="translate(-69.447 -60.568)" fill="#6b5747"/>
        <path id="Path_55559" data-name="Path 55559" d="M210.1,210.508v9.3l-4.2-2.424v-9.3Z" transform="translate(-66.787 -67.494)" fill="#786550"/>
        <path id="Path_55560" data-name="Path 55560" d="M231.2,192.457l6.79,10.463-4.2,2.442L227,194.839Z" transform="translate(-73.629 -62.425)" fill="#6b5747"/>
        <path id="Path_55561" data-name="Path 55561" d="M241.247,207.943v9.237l-4.2,2.442v-9.237Z" transform="translate(-76.889 -67.448)" fill="#5e4d3f"/>
        <g id="Group_51943" data-name="Group 51943" transform="translate(114.325 145.783)" opacity="0.1" style="mix-blend-mode: multiply;isolation: isolate">
          <g id="Group_51942" data-name="Group 51942">
            <g id="Group_51941" data-name="Group 51941" clip-path="url(#clip-path-13)">
              <path id="Path_55562" data-name="Path 55562" d="M192.512,233.759l10.881-6.282L183.115,215.77,169.209,223.8l17.252,9.96Z" transform="translate(-169.21 -215.77)" fill="#284e7e"/>
            </g>
          </g>
        </g>
        <path id="Path_55563" data-name="Path 55563" d="M185.814,236.675l12.767-7.371v-1.172L167.2,224.754v1.173Z" transform="translate(-54.232 -72.901)" fill="#e5e5e5"/>
        <path id="Path_55564" data-name="Path 55564" d="M185.814,231.964l12.767-7.371-18.617-10.748L167.2,221.216Z" transform="translate(-54.232 -69.362)" fill="#f4f4f4"/>
        <path id="Path_55565" data-name="Path 55565" d="M185.814,234.627l12.767-7.371v-1.173L167.2,222.706v1.173Z" transform="translate(-54.232 -72.236)" fill="#e5e5e5"/>
        <path id="Path_55566" data-name="Path 55566" d="M185.814,229.916l12.767-7.371L179.965,211.8,167.2,219.168Z" transform="translate(-54.232 -68.698)" fill="#f4f4f4"/>
        <path id="Path_55567" data-name="Path 55567" d="M185.814,232.506l12.767-7.371v-1.172L167.2,220.585v1.173Z" transform="translate(-54.232 -71.548)" fill="#e5e5e5"/>
        <path id="Path_55568" data-name="Path 55568" d="M185.814,227.795l12.767-7.371-18.617-10.748L167.2,217.046Z" transform="translate(-54.232 -68.01)" fill="#f4f4f4"/>
        <path id="Path_55569" data-name="Path 55569" d="M185.814,230.458l12.767-7.371v-1.173L167.2,218.537v1.173Z" transform="translate(-54.232 -70.884)" fill="#e5e5e5"/>
        <path id="Path_55570" data-name="Path 55570" d="M185.814,225.747l12.767-7.371-18.617-10.748L167.2,215Z" transform="translate(-54.232 -67.345)" fill="#f4f4f4"/>
        <path id="Path_55571" data-name="Path 55571" d="M185.814,228.41l12.767-7.371v-1.172L167.2,216.489v1.173Z" transform="translate(-54.232 -70.22)" fill="#e5e5e5"/>
        <path id="Path_55572" data-name="Path 55572" d="M185.814,223.7l12.767-7.371-18.617-10.748L167.2,212.95Z" transform="translate(-54.232 -66.681)" fill="#f4f4f4"/>
        <path id="Path_55573" data-name="Path 55573" d="M194.787,227.273a.068.068,0,0,0,.033-.009l10.266-5.93a.066.066,0,0,0,.024-.09.067.067,0,0,0-.09-.024l-10.266,5.93a.066.066,0,0,0-.024.09.065.065,0,0,0,.057.032" transform="translate(-63.16 -71.752)" fill="#e5e5e5"/>
        <path id="Path_55574" data-name="Path 55574" d="M193.632,226.611a.068.068,0,0,0,.033-.009l10.266-5.93a.066.066,0,0,0,.024-.09.067.067,0,0,0-.089-.024L193.6,226.49a.066.066,0,0,0-.024.089.065.065,0,0,0,.057.032" transform="translate(-62.785 -71.537)" fill="#e5e5e5"/>
        <path id="Path_55575" data-name="Path 55575" d="M192.477,225.95a.066.066,0,0,0,.033-.009l10.266-5.93a.066.066,0,0,0-.066-.113l-10.267,5.93a.066.066,0,0,0-.024.09.065.065,0,0,0,.057.032" transform="translate(-62.41 -71.323)" fill="#e5e5e5"/>
        <path id="Path_55576" data-name="Path 55576" d="M191.322,225.289a.066.066,0,0,0,.033-.009l10.266-5.93a.066.066,0,0,0,.024-.09.068.068,0,0,0-.09-.024l-10.266,5.93a.066.066,0,0,0-.024.09.065.065,0,0,0,.057.032" transform="translate(-62.036 -71.109)" fill="#e5e5e5"/>
        <path id="Path_55577" data-name="Path 55577" d="M190.166,224.628a.066.066,0,0,0,.033-.009l10.266-5.93a.066.066,0,1,0-.066-.114l-10.267,5.93a.066.066,0,0,0-.024.09.065.065,0,0,0,.057.032" transform="translate(-61.661 -70.894)" fill="#e5e5e5"/>
        <path id="Path_55578" data-name="Path 55578" d="M189.011,223.967a.067.067,0,0,0,.033-.009l10.266-5.93a.066.066,0,0,0,.024-.09.067.067,0,0,0-.089-.024l-10.267,5.931a.066.066,0,0,0-.024.089.065.065,0,0,0,.057.032" transform="translate(-61.286 -70.68)" fill="#e5e5e5"/>
        <path id="Path_55579" data-name="Path 55579" d="M187.855,223.306a.066.066,0,0,0,.033-.009l10.266-5.93a.066.066,0,0,0-.066-.114l-10.267,5.93a.067.067,0,0,0-.024.09.065.065,0,0,0,.057.032" transform="translate(-60.911 -70.465)" fill="#e5e5e5"/>
        <path id="Path_55580" data-name="Path 55580" d="M186.7,222.646a.066.066,0,0,0,.033-.009L197,216.707a.066.066,0,0,0,.024-.09.067.067,0,0,0-.09-.024l-10.266,5.93a.066.066,0,0,0-.024.09.065.065,0,0,0,.057.032" transform="translate(-60.536 -70.251)" fill="#e5e5e5"/>
        <path id="Path_55581" data-name="Path 55581" d="M185.544,221.986a.066.066,0,0,0,.033-.009l10.266-5.93a.066.066,0,0,0,.024-.09.067.067,0,0,0-.089-.024l-10.267,5.93a.066.066,0,0,0-.024.09.065.065,0,0,0,.057.032" transform="translate(-60.161 -70.037)" fill="#e5e5e5"/>
        <path id="Path_55582" data-name="Path 55582" d="M184.389,221.324a.066.066,0,0,0,.033-.009l10.266-5.93a.066.066,0,1,0-.066-.114L184.356,221.2a.066.066,0,0,0-.024.089.065.065,0,0,0,.057.032" transform="translate(-59.787 -69.822)" fill="#e5e5e5"/>
        <path id="Path_55583" data-name="Path 55583" d="M183.233,220.663a.068.068,0,0,0,.033-.009l10.266-5.93a.066.066,0,0,0,.024-.09.067.067,0,0,0-.089-.024l-10.267,5.93a.066.066,0,0,0-.024.09.065.065,0,0,0,.057.032" transform="translate(-59.412 -69.608)" fill="#e5e5e5"/>
        <path id="Path_55584" data-name="Path 55584" d="M182.078,220a.066.066,0,0,0,.033-.009l10.266-5.93a.066.066,0,0,0,.024-.09.068.068,0,0,0-.09-.024l-10.266,5.93a.066.066,0,0,0-.024.09.065.065,0,0,0,.057.032" transform="translate(-59.037 -69.394)" fill="#e5e5e5"/>
        <path id="Path_55585" data-name="Path 55585" d="M180.922,219.341a.066.066,0,0,0,.033-.009l10.266-5.93a.067.067,0,0,0,.024-.09.068.068,0,0,0-.09-.024l-10.267,5.93a.067.067,0,0,0-.024.09.066.066,0,0,0,.057.032" transform="translate(-58.662 -69.179)" fill="#e5e5e5"/>
        <path id="Path_55586" data-name="Path 55586" d="M179.767,218.68a.066.066,0,0,0,.033-.009l10.266-5.93a.067.067,0,0,0,.024-.09.067.067,0,0,0-.09-.024l-10.267,5.93a.067.067,0,0,0-.024.09.065.065,0,0,0,.057.032" transform="translate(-58.288 -68.965)" fill="#e5e5e5"/>
        <path id="Path_55587" data-name="Path 55587" d="M178.611,218.019a.068.068,0,0,0,.033-.009l10.266-5.93a.066.066,0,0,0-.066-.114l-10.267,5.93a.066.066,0,0,0-.024.09.065.065,0,0,0,.057.032" transform="translate(-57.913 -68.75)" fill="#e5e5e5"/>
        <path id="Path_55588" data-name="Path 55588" d="M177.455,217.359a.068.068,0,0,0,.033-.009l10.266-5.93a.066.066,0,1,0-.066-.114l-10.267,5.93a.067.067,0,0,0-.024.09.066.066,0,0,0,.057.032" transform="translate(-57.538 -68.536)" fill="#e5e5e5"/>
        <path id="Path_55589" data-name="Path 55589" d="M176.3,216.7a.066.066,0,0,0,.033-.009l10.266-5.93a.066.066,0,0,0,.024-.09.068.068,0,0,0-.09-.024l-10.267,5.93a.067.067,0,0,0-.024.09.066.066,0,0,0,.057.032" transform="translate(-57.163 -68.322)" fill="#e5e5e5"/>
        <path id="Path_55590" data-name="Path 55590" d="M175.145,216.037a.068.068,0,0,0,.033-.009l10.266-5.93a.066.066,0,1,0-.066-.113l-10.267,5.93a.066.066,0,0,0-.024.09.065.065,0,0,0,.057.032" transform="translate(-56.788 -68.108)" fill="#e5e5e5"/>
        <path id="Path_55591" data-name="Path 55591" d="M173.989,215.375a.066.066,0,0,0,.033-.009l10.266-5.93a.066.066,0,0,0,.024-.09.067.067,0,0,0-.089-.024l-10.267,5.93a.066.066,0,0,0-.024.09.065.065,0,0,0,.057.032" transform="translate(-56.414 -67.893)" fill="#e5e5e5"/>
        <path id="Path_55592" data-name="Path 55592" d="M172.834,214.715a.067.067,0,0,0,.032-.009l10.266-5.93a.065.065,0,0,0,.024-.09.066.066,0,0,0-.089-.024l-10.267,5.93a.068.068,0,0,0-.024.09.065.065,0,0,0,.057.032" transform="translate(-56.039 -67.679)" fill="#e5e5e5"/>
        <path id="Path_55593" data-name="Path 55593" d="M171.679,214.054a.063.063,0,0,0,.032-.009l10.266-5.93a.067.067,0,0,0,.024-.09.066.066,0,0,0-.09-.024l-10.266,5.93a.068.068,0,0,0-.024.09.065.065,0,0,0,.057.032" transform="translate(-55.664 -67.464)" fill="#e5e5e5"/>
        <path id="Path_55594" data-name="Path 55594" d="M170.523,213.393a.068.068,0,0,0,.033-.009l10.266-5.93a.066.066,0,1,0-.066-.114l-10.267,5.93a.066.066,0,0,0-.024.09.065.065,0,0,0,.057.032" transform="translate(-55.289 -67.25)" fill="#e5e5e5"/>
      </g>
    </g>
  </g>
</svg>
