<svg id="warehouse_element_03" xmlns="http://www.w3.org/2000/svg" xmlns:xlink="http://www.w3.org/1999/xlink" width="206.114" height="177.409" viewBox="0 0 206.114 177.409">
  <defs>
    <clipPath id="clip-path">
      <rect id="Rectangle_14194" data-name="Rectangle 14194" width="206.114" height="177.409" fill="none"/>
    </clipPath>
    <clipPath id="clip-path-3">
      <rect id="Rectangle_14186" data-name="Rectangle 14186" width="85.882" height="50.656" fill="none"/>
    </clipPath>
    <clipPath id="clip-path-5">
      <rect id="Rectangle_14188" data-name="Rectangle 14188" width="119.822" height="43.069" fill="none"/>
    </clipPath>
    <clipPath id="clip-path-7">
      <rect id="Rectangle_14190" data-name="Rectangle 14190" width="80.279" height="49.67" fill="none"/>
    </clipPath>
    <clipPath id="clip-path-8">
      <rect id="Rectangle_14191" data-name="Rectangle 14191" width="71.519" height="34.749" fill="none"/>
    </clipPath>
    <clipPath id="clip-path-9">
      <rect id="Rectangle_14192" data-name="Rectangle 14192" width="25.044" height="14.628" fill="none"/>
    </clipPath>
  </defs>
  <g id="Group_53063" data-name="Group 53063" clip-path="url(#clip-path)">
    <g id="Group_53046" data-name="Group 53046">
      <g id="Group_53045" data-name="Group 53045" clip-path="url(#clip-path)">
        <g id="Group_53044" data-name="Group 53044" transform="translate(56.72 52.882)" style="mix-blend-mode: multiply;isolation: isolate">
          <g id="Group_53043" data-name="Group 53043">
            <g id="Group_53042" data-name="Group 53042" clip-path="url(#clip-path-3)">
              <path id="Path_61010" data-name="Path 61010" d="M158.283,91.617l-42.8,25.328L72.4,91.618,115.2,66.29Z" transform="translate(-72.4 -66.289)" fill="#838383"/>
            </g>
          </g>
        </g>
      </g>
    </g>
    <path id="Path_61011" data-name="Path 61011" d="M170.155,31.749l-.136,49.093-42.8,25.328.136-49.093Z" transform="translate(-27.553 -6.421)" fill="#a48157"/>
    <path id="Path_61012" data-name="Path 61012" d="M115.444,57.077l-.136,49.093L72.226,80.842l.137-49.093Z" transform="translate(-15.643 -6.421)" fill="#c8a376"/>
    <path id="Path_61013" data-name="Path 61013" d="M115.2,0,72.4,25.327l43.081,25.328,42.8-25.328Z" transform="translate(-15.68 0)" fill="#e3c095"/>
    <path id="Path_61014" data-name="Path 61014" d="M118.428,115.383l0,1.506L103.65,108.2l0-1.506Z" transform="translate(-22.449 -21.58)" fill="#6b573f"/>
    <path id="Path_61015" data-name="Path 61015" d="M111.082,95.667l7.363,12.987-5.148-3.027-.011,3.863-2.238-1.316-2.247-1.32.011-3.863-5.141-3.022Z" transform="translate(-22.453 -19.349)" fill="#6b573f"/>
    <path id="Path_61016" data-name="Path 61016" d="M94.178,51.016,94.15,61.2l.721-.425L94.9,50.589Z" transform="translate(-20.391 -10.232)" fill="gray"/>
    <path id="Path_61017" data-name="Path 61017" d="M77.839,41.578l.721-.426,12.807,7.529-.72.426Z" transform="translate(-16.858 -8.323)" fill="#bfbfbf"/>
    <path id="Path_61018" data-name="Path 61018" d="M90.638,49.215,90.61,59.4,77.8,51.873l.028-10.186Z" transform="translate(-16.85 -8.431)" fill="#d3d3d3"/>
    <path id="Path_61019" data-name="Path 61019" d="M155.338,46.389l5.3-3.134-.138,49.5-5.3,3.134Z" transform="translate(-33.613 -8.749)" fill="#c5c5c5"/>
    <path id="Path_61020" data-name="Path 61020" d="M99.629,14.2l5.3-3.134L148.6,36.746l-5.3,3.134Z" transform="translate(-21.578 -2.239)" fill="#dcdcdc"/>
    <path id="Path_61021" data-name="Path 61021" d="M143.3,40.674l-.138,49.5-.448-.263.137-48.978L99.628,15.522l0-.523Z" transform="translate(-21.577 -3.033)" fill="#898989"/>
    <g id="Group_53051" data-name="Group 53051">
      <g id="Group_53050" data-name="Group 53050" clip-path="url(#clip-path)">
        <g id="Group_53049" data-name="Group 53049" transform="translate(0.189 118.82)" style="mix-blend-mode: multiply;isolation: isolate">
          <g id="Group_53048" data-name="Group 53048">
            <g id="Group_53047" data-name="Group 53047" clip-path="url(#clip-path-5)">
              <path id="Path_61022" data-name="Path 61022" d="M120.063,164.3l-46.7,27.715L.241,148.945l72.74,7.555Z" transform="translate(-0.241 -148.944)" fill="#838383" opacity="0.46"/>
            </g>
          </g>
        </g>
      </g>
    </g>
    <path id="Path_61023" data-name="Path 61023" d="M140.228,120.294l-.189,33.351-46.7,27.715.189-33.351Z" transform="translate(-20.216 -24.33)" fill="#a48157"/>
    <path id="Path_61024" data-name="Path 61024" d="M0,134.4l73.127,43.07.189-33.351L.189,101.046Z" transform="translate(0 -20.437)" fill="#c8a376"/>
    <path id="Path_61025" data-name="Path 61025" d="M.241,94.02l73.127,43.069,46.695-27.715L46.936,66.3Z" transform="translate(-0.052 -13.41)" fill="#e3c095"/>
    <path id="Path_61026" data-name="Path 61026" d="M122.521,137.082l7.323-4.333-.19,16.477-7.323,4.333Z" transform="translate(-26.494 -26.849)" fill="#c5c5c5"/>
    <path id="Path_61027" data-name="Path 61027" d="M28.186,82.491l7.323-4.333,73.945,43.55-7.323,4.334Z" transform="translate(-6.104 -15.808)" fill="#dcdcdc"/>
    <path id="Path_61028" data-name="Path 61028" d="M102.13,127.14l-.19,16.477-.62-.364.189-15.752L28.183,84.313l0-.724Z" transform="translate(-6.104 -16.906)" fill="#898989"/>
    <g id="Group_53062" data-name="Group 53062">
      <g id="Group_53061" data-name="Group 53061" clip-path="url(#clip-path)">
        <path id="Path_61029" data-name="Path 61029" d="M62.464,158.733l-.014,4.99c0,.613-.3,1-.769,1.006s-.767.389-.769,1l-.007,2.617a1.251,1.251,0,0,0,.369.823l1.157,1.15v.316l-2.151-1.265-2.154-1.267v-.315l1.159.211c.221.042.371-.115.372-.387L59.665,165a3.125,3.125,0,0,0-.761-1.9,3.148,3.148,0,0,1-.761-1.905l.014-4.99,2.154,1.267Z" transform="translate(-12.589 -31.592)" fill="#6b573f"/>
        <path id="Path_61030" data-name="Path 61030" d="M52.545,150.893l13.1,7.7-.043,15.333-13.1-7.7Zm12.228,21.573.038-13.382-11.433-6.722-.038,13.382Z" transform="translate(-11.371 -30.519)" fill="#6b573f"/>
        <path id="Path_61031" data-name="Path 61031" d="M81.494,182.17l0,1.006-9.863-5.8,0-1.005Z" transform="translate(-15.513 -35.672)" fill="#6b573f"/>
        <path id="Path_61032" data-name="Path 61032" d="M76.59,169.007l4.916,8.671-3.438-2.022-.007,2.58-1.495-.879-1.5-.882.007-2.579-3.432-2.018Z" transform="translate(-15.516 -34.182)" fill="#6b573f"/>
        <path id="Path_61033" data-name="Path 61033" d="M69.59,160.779l13.1,7.7-.043,15.329-13.1-7.7Zm12.228,21.568.038-13.382-11.437-6.723-.038,13.382Z" transform="translate(-15.063 -32.518)" fill="#6b573f"/>
        <path id="Path_61034" data-name="Path 61034" d="M5.721,136.288l.851-.5.624.367-.85.5Z" transform="translate(-1.239 -27.463)" fill="#acacac"/>
        <path id="Path_61035" data-name="Path 61035" d="M5.74,127.8l.851-.5-.019,6.771-.851.5Z" transform="translate(-1.239 -25.746)" fill="gray"/>
        <path id="Path_61036" data-name="Path 61036" d="M6.537,128.26l.851-.5-.019,6.771-.851.5Z" transform="translate(-1.412 -25.839)" fill="#232d41"/>
        <path id="Path_61037" data-name="Path 61037" d="M7.013,135.9l.851-.5.624.367-.851.5Z" transform="translate(-1.519 -27.385)" fill="#acacac"/>
        <path id="Path_61038" data-name="Path 61038" d="M8.3,136.645l.851-.5.624.367-.85.5Z" transform="translate(-1.798 -27.535)" fill="#acacac"/>
        <path id="Path_61039" data-name="Path 61039" d="M9.59,137.389l.851-.5.624.367-.85.5Z" transform="translate(-2.077 -27.686)" fill="#acacac"/>
        <path id="Path_61040" data-name="Path 61040" d="M10.878,138.133l.851-.5.624.367-.85.5Z" transform="translate(-2.356 -27.836)" fill="#acacac"/>
        <path id="Path_61041" data-name="Path 61041" d="M12.167,138.877l.851-.5.624.367-.85.5Z" transform="translate(-2.635 -27.986)" fill="#acacac"/>
        <path id="Path_61042" data-name="Path 61042" d="M5.745,127.8l.851-.5.624.367-.85.5Z" transform="translate(-1.244 -25.746)" fill="#2f3d58"/>
        <path id="Path_61043" data-name="Path 61043" d="M6.364,128.294l-.019,6.771-.624-.367.019-6.771Z" transform="translate(-1.239 -25.874)" fill="#3c4e71"/>
        <path id="Path_61044" data-name="Path 61044" d="M7.029,128.544l.851-.5-.016,5.87-.851.5Z" transform="translate(-1.519 -25.896)" fill="gray"/>
        <path id="Path_61045" data-name="Path 61045" d="M13.455,139.621l.851-.5.624.367-.85.5Z" transform="translate(-2.914 -28.137)" fill="#acacac"/>
        <path id="Path_61046" data-name="Path 61046" d="M7.034,128.544l.851-.5.624.367-.851.5Z" transform="translate(-1.523 -25.896)" fill="#2f3d58"/>
        <path id="Path_61047" data-name="Path 61047" d="M7.826,129l.851-.5-.016,5.87-.851.5Z" transform="translate(-1.691 -25.99)" fill="#232d41"/>
        <path id="Path_61048" data-name="Path 61048" d="M7.653,129.038l-.016,5.87-.624-.367.016-5.87Z" transform="translate(-1.519 -26.024)" fill="#3c4e71"/>
        <path id="Path_61049" data-name="Path 61049" d="M14.74,141.5l.851-.5.624.367-.851.5Z" transform="translate(-3.193 -28.516)" fill="#acacac"/>
        <path id="Path_61050" data-name="Path 61050" d="M8.317,129.288l.851-.5-.016,5.87-.851.5Z" transform="translate(-1.798 -26.047)" fill="gray"/>
        <path id="Path_61051" data-name="Path 61051" d="M8.322,129.288l.851-.5.624.367-.851.5Z" transform="translate(-1.802 -26.047)" fill="#2f3d58"/>
        <path id="Path_61052" data-name="Path 61052" d="M9.114,129.748l.851-.5-.016,5.87-.851.5Z" transform="translate(-1.97 -26.14)" fill="#232d41"/>
        <path id="Path_61053" data-name="Path 61053" d="M8.942,129.782l-.016,5.87-.624-.367.016-5.87Z" transform="translate(-1.798 -26.175)" fill="#3c4e71"/>
        <path id="Path_61054" data-name="Path 61054" d="M9.606,130.031l.851-.5-.016,5.87-.851.5Z" transform="translate(-2.077 -26.197)" fill="gray"/>
        <path id="Path_61055" data-name="Path 61055" d="M10.4,130.491l.851-.5-.016,5.87-.851.5Z" transform="translate(-2.249 -26.29)" fill="#232d41"/>
        <path id="Path_61056" data-name="Path 61056" d="M10.895,130.775l.851-.5-.016,5.87-.851.5Z" transform="translate(-2.356 -26.348)" fill="gray"/>
        <path id="Path_61057" data-name="Path 61057" d="M11.691,131.235l.851-.5-.016,5.87-.851.5Z" transform="translate(-2.529 -26.441)" fill="#232d41"/>
        <path id="Path_61058" data-name="Path 61058" d="M12.183,131.519l.851-.5-.016,5.87-.851.5Z" transform="translate(-2.635 -26.498)" fill="gray"/>
        <path id="Path_61059" data-name="Path 61059" d="M12.98,131.979l.851-.5-.016,5.87-.851.5Z" transform="translate(-2.808 -26.591)" fill="#232d41"/>
        <path id="Path_61060" data-name="Path 61060" d="M13.472,132.263l.851-.5-.016,5.87-.851.5Z" transform="translate(-2.914 -26.649)" fill="gray"/>
        <path id="Path_61061" data-name="Path 61061" d="M14.268,132.723l.851-.5-.016,5.87-.851.5Z" transform="translate(-3.087 -26.742)" fill="#232d41"/>
        <path id="Path_61062" data-name="Path 61062" d="M14.759,133.007l.851-.5-.019,6.771-.851.5Z" transform="translate(-3.193 -26.799)" fill="gray"/>
        <path id="Path_61063" data-name="Path 61063" d="M15.556,133.467l.851-.5-.019,6.771-.851.5Z" transform="translate(-3.365 -26.892)" fill="#232d41"/>
        <path id="Path_61064" data-name="Path 61064" d="M16.032,141.109l.851-.5.624.367-.85.5Z" transform="translate(-3.472 -28.438)" fill="#acacac"/>
        <path id="Path_61065" data-name="Path 61065" d="M9.611,130.032l.851-.5.624.367-.851.5Z" transform="translate(-2.081 -26.197)" fill="#2f3d58"/>
        <path id="Path_61066" data-name="Path 61066" d="M17.321,141.853l.851-.5.624.367-.85.5Z" transform="translate(-3.751 -28.588)" fill="#acacac"/>
        <path id="Path_61067" data-name="Path 61067" d="M10.9,130.775l.851-.5.624.367-.851.5Z" transform="translate(-2.361 -26.348)" fill="#2f3d58"/>
        <path id="Path_61068" data-name="Path 61068" d="M11.519,131.27l-.016,5.87-.624-.367.016-5.87Z" transform="translate(-2.356 -26.475)" fill="#3c4e71"/>
        <path id="Path_61069" data-name="Path 61069" d="M18.609,142.6l.851-.5.624.367-.851.5Z" transform="translate(-4.03 -28.739)" fill="#acacac"/>
        <path id="Path_61070" data-name="Path 61070" d="M12.188,131.519l.851-.5.624.367-.851.5Z" transform="translate(-2.64 -26.498)" fill="#2f3d58"/>
        <path id="Path_61071" data-name="Path 61071" d="M12.807,132.014l-.016,5.87-.624-.367.016-5.87Z" transform="translate(-2.635 -26.626)" fill="#3c4e71"/>
        <path id="Path_61072" data-name="Path 61072" d="M19.895,144.471l.851-.5.624.367-.851.5Z" transform="translate(-4.309 -29.118)" fill="#acacac"/>
        <path id="Path_61073" data-name="Path 61073" d="M13.476,132.263l.851-.5.624.367-.851.5Z" transform="translate(-2.919 -26.649)" fill="#2f3d58"/>
        <path id="Path_61074" data-name="Path 61074" d="M14.1,132.758l-.016,5.87-.624-.367.016-5.87Z" transform="translate(-2.914 -26.776)" fill="#3c4e71"/>
        <path id="Path_61075" data-name="Path 61075" d="M16.049,133.751l.851-.5-.016,5.87-.851.5Z" transform="translate(-3.472 -26.95)" fill="gray"/>
        <path id="Path_61076" data-name="Path 61076" d="M16.845,134.211l.851-.5-.016,5.87-.851.5Z" transform="translate(-3.645 -27.043)" fill="#232d41"/>
        <path id="Path_61077" data-name="Path 61077" d="M17.337,134.5l.851-.5-.016,5.87-.851.5Z" transform="translate(-3.751 -27.1)" fill="gray"/>
        <path id="Path_61078" data-name="Path 61078" d="M18.134,134.955l.851-.5-.016,5.87-.851.5Z" transform="translate(-3.924 -27.193)" fill="#232d41"/>
        <path id="Path_61079" data-name="Path 61079" d="M18.626,135.239l.851-.5-.016,5.87-.851.5Z" transform="translate(-4.03 -27.251)" fill="gray"/>
        <path id="Path_61080" data-name="Path 61080" d="M19.422,135.7l.851-.5-.016,5.87-.851.5Z" transform="translate(-4.203 -27.344)" fill="#232d41"/>
        <path id="Path_61081" data-name="Path 61081" d="M19.914,135.983l.851-.5-.019,6.771-.851.5Z" transform="translate(-4.309 -27.401)" fill="gray"/>
        <path id="Path_61082" data-name="Path 61082" d="M20.71,136.443l.851-.5-.019,6.771-.851.5Z" transform="translate(-4.481 -27.494)" fill="#232d41"/>
        <path id="Path_61083" data-name="Path 61083" d="M21.186,144.085l.851-.5.624.367-.85.5Z" transform="translate(-4.589 -29.04)" fill="#acacac"/>
        <path id="Path_61084" data-name="Path 61084" d="M15.384,133.5l-.019,6.771-.624-.367.019-6.771Z" transform="translate(-3.192 -26.927)" fill="#3c4e71"/>
        <path id="Path_61085" data-name="Path 61085" d="M14.765,133.007l.851-.5.624.367-.851.5Z" transform="translate(-3.198 -26.799)" fill="#2f3d58"/>
        <path id="Path_61086" data-name="Path 61086" d="M22.475,144.829l.851-.5.624.367-.85.5Z" transform="translate(-4.868 -29.19)" fill="#acacac"/>
        <path id="Path_61087" data-name="Path 61087" d="M16.053,133.751l.851-.5.624.367-.85.5Z" transform="translate(-3.477 -26.95)" fill="#2f3d58"/>
        <path id="Path_61088" data-name="Path 61088" d="M16.673,134.246l-.016,5.87-.624-.367.016-5.87Z" transform="translate(-3.472 -27.077)" fill="#3c4e71"/>
        <path id="Path_61089" data-name="Path 61089" d="M23.76,146.7l.851-.5.624.367-.851.5Z" transform="translate(-5.146 -29.569)" fill="#acacac"/>
        <path id="Path_61090" data-name="Path 61090" d="M17.961,134.99l-.016,5.87-.624-.367.016-5.87Z" transform="translate(-3.751 -27.228)" fill="#3c4e71"/>
        <path id="Path_61091" data-name="Path 61091" d="M17.342,134.5l.851-.5.624.367-.851.5Z" transform="translate(-3.756 -27.1)" fill="#2f3d58"/>
        <path id="Path_61092" data-name="Path 61092" d="M19.25,135.734l-.016,5.87-.624-.367.016-5.87Z" transform="translate(-4.03 -27.378)" fill="#3c4e71"/>
        <path id="Path_61093" data-name="Path 61093" d="M18.63,135.239l.851-.5.624.367-.851.5Z" transform="translate(-4.035 -27.251)" fill="#2f3d58"/>
        <path id="Path_61094" data-name="Path 61094" d="M19.919,135.983l.851-.5.624.367-.851.5Z" transform="translate(-4.314 -27.401)" fill="#2f3d58"/>
        <path id="Path_61095" data-name="Path 61095" d="M20.538,136.478l-.019,6.771-.624-.367.019-6.771Z" transform="translate(-4.309 -27.529)" fill="#3c4e71"/>
        <path id="Path_61096" data-name="Path 61096" d="M21.2,136.727l.851-.5-.016,5.87-.851.5Z" transform="translate(-4.589 -27.552)" fill="gray"/>
        <path id="Path_61097" data-name="Path 61097" d="M21.207,136.727l.851-.5.624.367-.851.5Z" transform="translate(-4.593 -27.552)" fill="#2f3d58"/>
        <path id="Path_61098" data-name="Path 61098" d="M22,137.187l.851-.5-.016,5.87-.851.5Z" transform="translate(-4.761 -27.645)" fill="#232d41"/>
        <path id="Path_61099" data-name="Path 61099" d="M22.491,137.471l.851-.5-.016,5.87-.851.5Z" transform="translate(-4.868 -27.702)" fill="gray"/>
        <path id="Path_61100" data-name="Path 61100" d="M23.288,137.931l.851-.5-.016,5.87-.851.5Z" transform="translate(-5.04 -27.795)" fill="#232d41"/>
        <path id="Path_61101" data-name="Path 61101" d="M22.5,137.471l.851-.5.624.367-.851.5Z" transform="translate(-4.872 -27.702)" fill="#2f3d58"/>
        <path id="Path_61102" data-name="Path 61102" d="M23.115,137.965l-.016,5.87-.624-.367.016-5.87Z" transform="translate(-4.868 -27.83)" fill="#3c4e71"/>
        <path id="Path_61103" data-name="Path 61103" d="M23.779,138.215l.851-.5-.019,6.771-.851.5Z" transform="translate(-5.146 -27.852)" fill="gray"/>
        <path id="Path_61104" data-name="Path 61104" d="M23.784,138.215l.851-.5.624.367-.851.5Z" transform="translate(-5.151 -27.852)" fill="#2f3d58"/>
        <path id="Path_61105" data-name="Path 61105" d="M24.4,138.709l-.019,6.771-.624-.367.019-6.771Z" transform="translate(-5.146 -27.98)" fill="#3c4e71"/>
        <path id="Path_61106" data-name="Path 61106" d="M24.576,138.675l.851-.5-.019,6.771-.851.5Z" transform="translate(-5.319 -27.946)" fill="#232d41"/>
        <path id="Path_61107" data-name="Path 61107" d="M3.117,124.535l18.794,11.05-.027,9.575L3.09,134.11Zm13.762,16.373.019-6.771-.624-.367-.019,6.771Zm3.029,1.781.019-6.771-.624-.367-.019,6.771ZM5.776,134.38l.019-6.771-.624-.367-.019,6.771Zm7.066,4.154.019-6.771-.624-.367-.02,6.771Zm-2.017-2.089.016-5.87-.624-.367-.016,5.87ZM7.8,134.665l.016-5.869-.624-.367L7.172,134.3Zm7.066,4.155.016-5.87-.624-.367-.016,5.87Zm3.029,1.781.016-5.87-.624-.367-.016,5.87Zm-8.075-4.748.016-5.869-.624-.367-.016,5.869Zm6.057,3.561.016-5.87-.624-.367-.016,5.87Zm-7.066-4.155.016-5.869-.624-.367-.016,5.869Zm-2.019-1.186L6.8,128.2l-.624-.367-.016,5.87ZM18.9,141.194l.016-5.87-.624-.367-.016,5.87Zm-7.066-4.155.016-5.87-.624-.367-.016,5.87Zm2.019,1.187.016-5.87-.624-.367-.016,5.87Z" transform="translate(-0.669 -25.188)" fill="#ddd"/>
        <path id="Path_61108" data-name="Path 61108" d="M10.23,130.526l-.016,5.87-.624-.367.016-5.87Z" transform="translate(-2.077 -26.325)" fill="#3c4e71"/>
        <path id="Path_61109" data-name="Path 61109" d="M21.827,137.221l-.016,5.87-.624-.367.016-5.87Z" transform="translate(-4.588 -27.679)" fill="#3c4e71"/>
        <path id="Path_61110" data-name="Path 61110" d="M3.124,124.407l.851-.5,18.794,11.05-.851.5Z" transform="translate(-0.677 -25.06)" fill="#acacac"/>
        <path id="Path_61111" data-name="Path 61111" d="M27.107,138.258l.851-.5-.027,9.575-.851.5Z" transform="translate(-5.865 -27.861)" fill="gray"/>
        <path id="Path_61112" data-name="Path 61112" d="M5.136,118.458l.851-.5,0,.911-.851.5Z" transform="translate(-1.112 -23.857)" fill="#868686"/>
        <path id="Path_61113" data-name="Path 61113" d="M5.148,113.948l.851-.5,0,.92-.85.5Z" transform="translate(-1.115 -22.944)" fill="#868686"/>
        <path id="Path_61114" data-name="Path 61114" d="M5.153,112.174l.851-.5,0,.911-.851.5Z" transform="translate(-1.116 -22.586)" fill="#868686"/>
        <path id="Path_61115" data-name="Path 61115" d="M5.133,119.6l.851-.5,6.589,3.873-.851.5Z" transform="translate(-1.112 -24.087)" fill="#b4b4b4"/>
        <path id="Path_61116" data-name="Path 61116" d="M11.724,122.459l0,.911L5.133,119.5l0-.91Z" transform="translate(-1.112 -23.984)" fill="#3f5277"/>
        <path id="Path_61117" data-name="Path 61117" d="M13.545,123.313l.851-.5,0,.911-.85.5Z" transform="translate(-2.933 -24.839)" fill="#242f44"/>
        <path id="Path_61118" data-name="Path 61118" d="M5.136,118.458l.851-.5,6.589,3.873-.851.5Z" transform="translate(-1.112 -23.857)" fill="#313f5c"/>
        <path id="Path_61119" data-name="Path 61119" d="M5.146,115.1,6,114.6l6.588,3.873-.85.5Z" transform="translate(-1.115 -23.178)" fill="#b4b4b4"/>
        <path id="Path_61120" data-name="Path 61120" d="M5.149,113.948l.851-.5,6.588,3.873-.85.5Z" transform="translate(-1.115 -22.944)" fill="#313f5c"/>
        <path id="Path_61121" data-name="Path 61121" d="M13.558,118.8l.851-.5,0,.92-.851.5Z" transform="translate(-2.936 -23.927)" fill="#242f44"/>
        <path id="Path_61122" data-name="Path 61122" d="M5.151,113.315l.851-.5L16.867,119.2l-.851.5Z" transform="translate(-1.116 -22.816)" fill="#b4b4b4"/>
        <path id="Path_61123" data-name="Path 61123" d="M5.154,112.174l.851-.5,10.865,6.388-.851.5Z" transform="translate(-1.116 -22.586)" fill="#313f5c"/>
        <path id="Path_61124" data-name="Path 61124" d="M19.022,120.181l.851-.5,0,.911-.85.5Z" transform="translate(-4.119 -24.205)" fill="#242f44"/>
        <path id="Path_61125" data-name="Path 61125" d="M3.116,109.374,21.91,120.423l-.025,8.944L3.091,118.318Zm12.454,9.634,0-.911L4.707,111.709l0,.911Zm-4.281-1.09,0-.92L4.7,113.125l0,.919Zm-.01,3.588,0-.911-6.589-3.873,0,.911Z" transform="translate(-0.669 -22.121)" fill="#e9e9e9"/>
        <path id="Path_61126" data-name="Path 61126" d="M11.737,117.949l0,.92L5.146,115l0-.919Z" transform="translate(-1.114 -23.072)" fill="#3f5277"/>
        <path id="Path_61127" data-name="Path 61127" d="M16.018,118.689l0,.91L5.151,113.212l0-.91Z" transform="translate(-1.116 -22.713)" fill="#3f5277"/>
        <path id="Path_61128" data-name="Path 61128" d="M3.123,109.246l.851-.5,18.794,11.05-.851.5Z" transform="translate(-0.676 -21.994)" fill="#b4b4b4"/>
        <path id="Path_61129" data-name="Path 61129" d="M27.106,123.1l.851-.5-.025,8.944-.851.5Z" transform="translate(-5.865 -24.795)" fill="#868686"/>
        <g id="Group_53054" data-name="Group 53054" transform="translate(125.835 104.487)" style="mix-blend-mode: multiply;isolation: isolate">
          <g id="Group_53053" data-name="Group 53053">
            <g id="Group_53052" data-name="Group 53052" clip-path="url(#clip-path-7)">
              <path id="Path_61130" data-name="Path 61130" d="M240.9,162.08l-31.285,18.568-48.993-28.855,48.734-20.815Z" transform="translate(-160.623 -130.978)" fill="#838383" opacity="0.44"/>
            </g>
          </g>
        </g>
        <path id="Path_61131" data-name="Path 61131" d="M254.411,101.931l-.127,48.222L223,168.722l.127-48.222Z" transform="translate(-48.297 -20.616)" fill="#a48157"/>
        <path id="Path_61132" data-name="Path 61132" d="M209.582,117.891l-.127,48.222-48.993-28.856.127-48.221Z" transform="translate(-34.753 -18.008)" fill="#c8a376"/>
        <path id="Path_61133" data-name="Path 61133" d="M240.9,94.615l-31.285,18.568L160.623,84.328,191.908,65.76Z" transform="translate(-34.788 -13.3)" fill="#e3c095"/>
        <path id="Path_61134" data-name="Path 61134" d="M242.548,113.179l4.907-2.9-.128,36.917-4.907,2.9Z" transform="translate(-52.504 -22.303)" fill="#999"/>
        <path id="Path_61135" data-name="Path 61135" d="M179.345,76.6l4.907-2.9,49.542,29.178-4.907,2.9Z" transform="translate(-38.843 -14.906)" fill="#dcdcdc"/>
        <path id="Path_61136" data-name="Path 61136" d="M228.887,106.518l-.128,36.917-.415-.244.127-36.431L179.343,77.825l0-.485Z" transform="translate(-38.842 -15.642)" fill="#898989"/>
        <path id="Path_61137" data-name="Path 61137" d="M202.31,160.122l-.009,3.343c0,.411-.2.67-.515.674s-.514.26-.515.671l0,1.753a.839.839,0,0,0,.247.552l.776.771v.211l-1.441-.847L199.4,166.4v-.211l.777.142c.148.028.249-.077.249-.26l.005-1.753a2.1,2.1,0,0,0-.51-1.273,2.111,2.111,0,0,1-.509-1.276l.009-3.343,1.444.849Z" transform="translate(-43.187 -32.042)" fill="#6b573f"/>
        <path id="Path_61138" data-name="Path 61138" d="M195.665,154.869l8.78,5.162-.029,10.273-8.78-5.161Zm8.193,14.454.025-8.966-7.66-4.5-.024,8.966Z" transform="translate(-42.371 -31.323)" fill="#6b573f"/>
        <path id="Path_61139" data-name="Path 61139" d="M215.061,175.825l0,.674-6.609-3.886,0-.673Z" transform="translate(-45.146 -34.775)" fill="#6b573f"/>
        <path id="Path_61140" data-name="Path 61140" d="M211.775,167.006l3.293,5.809-2.3-1.354,0,1.728-1-.589-1-.591,0-1.728-2.3-1.351Z" transform="translate(-45.149 -33.777)" fill="#6b573f"/>
        <path id="Path_61141" data-name="Path 61141" d="M207.085,161.493l8.777,5.16-.029,10.27-8.777-5.16Zm8.193,14.45.025-8.966-7.663-4.5-.025,8.966Z" transform="translate(-44.844 -32.662)" fill="#6b573f"/>
        <path id="Path_61142" data-name="Path 61142" d="M203.019,135.563l.724-.428.419.247-.723.428Z" transform="translate(-43.97 -27.331)" fill="#acacac"/>
        <path id="Path_61143" data-name="Path 61143" d="M203.032,129.89l.724-.428-.013,4.526-.724.428Z" transform="translate(-43.97 -26.184)" fill="gray"/>
        <path id="Path_61144" data-name="Path 61144" d="M203.567,130.2l.724-.428-.013,4.526-.724.428Z" transform="translate(-44.086 -26.246)" fill="#232d41"/>
        <path id="Path_61145" data-name="Path 61145" d="M203.883,135.311l.724-.428.419.246-.723.428Z" transform="translate(-44.157 -27.28)" fill="#acacac"/>
        <path id="Path_61146" data-name="Path 61146" d="M204.745,135.808l.724-.428.419.247-.723.428Z" transform="translate(-44.344 -27.381)" fill="#acacac"/>
        <path id="Path_61147" data-name="Path 61147" d="M205.615,136.311l.724-.428.413.243-.724.428Z" transform="translate(-44.532 -27.483)" fill="#acacac"/>
        <path id="Path_61148" data-name="Path 61148" d="M206.477,136.808l.724-.428.413.243-.724.428Z" transform="translate(-44.719 -27.583)" fill="#acacac"/>
        <path id="Path_61149" data-name="Path 61149" d="M207.339,137.306l.724-.428.419.247-.724.428Z" transform="translate(-44.906 -27.684)" fill="#acacac"/>
        <path id="Path_61150" data-name="Path 61150" d="M203.451,130.245l-.013,4.526-.42-.247.013-4.526Z" transform="translate(-43.97 -26.293)" fill="#3c4e71"/>
        <path id="Path_61151" data-name="Path 61151" d="M203.035,129.89l.724-.428.419.246-.723.428Z" transform="translate(-43.974 -26.184)" fill="#2f3d58"/>
        <path id="Path_61152" data-name="Path 61152" d="M203.894,130.388l.724-.428-.011,3.927-.724.428Z" transform="translate(-44.157 -26.285)" fill="gray"/>
        <path id="Path_61153" data-name="Path 61153" d="M208.2,137.8l.724-.428.419.246-.723.428Z" transform="translate(-45.092 -27.784)" fill="#acacac"/>
        <path id="Path_61154" data-name="Path 61154" d="M203.9,130.388l.724-.428.419.247-.723.428Z" transform="translate(-44.16 -26.285)" fill="#2f3d58"/>
        <path id="Path_61155" data-name="Path 61155" d="M204.43,130.7l.724-.428-.011,3.927-.724.428Z" transform="translate(-44.273 -26.347)" fill="#232d41"/>
        <path id="Path_61156" data-name="Path 61156" d="M209.061,139.051l.724-.428.419.246-.724.428Z" transform="translate(-45.279 -28.037)" fill="#acacac"/>
        <path id="Path_61157" data-name="Path 61157" d="M204.756,130.885l.724-.428-.011,3.927-.724.428Z" transform="translate(-44.344 -26.385)" fill="gray"/>
        <path id="Path_61158" data-name="Path 61158" d="M204.759,130.885l.724-.428.419.247-.723.428Z" transform="translate(-44.347 -26.385)" fill="#2f3d58"/>
        <path id="Path_61159" data-name="Path 61159" d="M205.292,131.194l.724-.428L206,134.693l-.724.428Z" transform="translate(-44.46 -26.448)" fill="#232d41"/>
        <path id="Path_61160" data-name="Path 61160" d="M205.626,131.388l.724-.428-.011,3.927-.724.428Z" transform="translate(-44.532 -26.487)" fill="gray"/>
        <path id="Path_61161" data-name="Path 61161" d="M206.153,131.692l.724-.428-.011,3.927-.724.428Z" transform="translate(-44.646 -26.548)" fill="#232d41"/>
        <path id="Path_61162" data-name="Path 61162" d="M206.488,131.885l.724-.428-.011,3.927-.724.428Z" transform="translate(-44.719 -26.587)" fill="gray"/>
        <path id="Path_61163" data-name="Path 61163" d="M207.015,132.19l.724-.428-.011,3.927-.724.428Z" transform="translate(-44.833 -26.649)" fill="#232d41"/>
        <path id="Path_61164" data-name="Path 61164" d="M207.35,132.383l.724-.428-.011,3.927-.724.428Z" transform="translate(-44.906 -26.688)" fill="gray"/>
        <path id="Path_61165" data-name="Path 61165" d="M207.886,132.692l.724-.428-.011,3.927-.724.428Z" transform="translate(-45.022 -26.751)" fill="#232d41"/>
        <path id="Path_61166" data-name="Path 61166" d="M208.212,132.881l.724-.428-.011,3.927-.724.428Z" transform="translate(-45.092 -26.789)" fill="gray"/>
        <path id="Path_61167" data-name="Path 61167" d="M208.748,133.19l.724-.428-.011,3.927-.724.428Z" transform="translate(-45.208 -26.851)" fill="#232d41"/>
        <path id="Path_61168" data-name="Path 61168" d="M209.073,133.378l.724-.428-.013,4.526-.724.428Z" transform="translate(-45.279 -26.889)" fill="gray"/>
        <path id="Path_61169" data-name="Path 61169" d="M209.609,133.687l.724-.428-.013,4.526-.724.428Z" transform="translate(-45.395 -26.952)" fill="#232d41"/>
        <path id="Path_61170" data-name="Path 61170" d="M209.925,138.8l.724-.428.419.247-.724.428Z" transform="translate(-45.466 -27.986)" fill="#acacac"/>
        <path id="Path_61171" data-name="Path 61171" d="M206.039,131.739l-.011,3.927-.413-.243.011-3.927Z" transform="translate(-44.532 -26.596)" fill="#3c4e71"/>
        <path id="Path_61172" data-name="Path 61172" d="M205.629,131.388l.724-.428.413.243-.724.428Z" transform="translate(-44.535 -26.487)" fill="#2f3d58"/>
        <path id="Path_61173" data-name="Path 61173" d="M210.795,139.3l.724-.428.413.243-.724.428Z" transform="translate(-45.654 -28.087)" fill="#acacac"/>
        <path id="Path_61174" data-name="Path 61174" d="M206.491,131.885l.724-.428.413.243-.724.428Z" transform="translate(-44.722 -26.587)" fill="#2f3d58"/>
        <path id="Path_61175" data-name="Path 61175" d="M206.9,132.237l-.011,3.927-.413-.243.011-3.927Z" transform="translate(-44.719 -26.696)" fill="#3c4e71"/>
        <path id="Path_61176" data-name="Path 61176" d="M211.657,139.8l.724-.428.419.247-.724.428Z" transform="translate(-45.841 -28.188)" fill="#acacac"/>
        <path id="Path_61177" data-name="Path 61177" d="M207.353,132.383l.724-.428.419.246-.723.428Z" transform="translate(-44.909 -26.688)" fill="#2f3d58"/>
        <path id="Path_61178" data-name="Path 61178" d="M212.517,141.046l.724-.428.419.247-.723.428Z" transform="translate(-46.027 -28.44)" fill="#acacac"/>
        <path id="Path_61179" data-name="Path 61179" d="M208.215,132.88l.724-.428.419.247-.723.428Z" transform="translate(-45.095 -26.789)" fill="#2f3d58"/>
        <path id="Path_61180" data-name="Path 61180" d="M208.631,133.236l-.011,3.927-.42-.246.011-3.927Z" transform="translate(-45.092 -26.897)" fill="#3c4e71"/>
        <path id="Path_61181" data-name="Path 61181" d="M209.936,133.876l.724-.428-.011,3.927-.724.428Z" transform="translate(-45.466 -26.99)" fill="gray"/>
        <path id="Path_61182" data-name="Path 61182" d="M210.471,134.185l.724-.428-.011,3.927-.724.428Z" transform="translate(-45.582 -27.053)" fill="#232d41"/>
        <path id="Path_61183" data-name="Path 61183" d="M210.806,134.378l.724-.428-.011,3.927-.724.428Z" transform="translate(-45.654 -27.092)" fill="gray"/>
        <path id="Path_61184" data-name="Path 61184" d="M211.333,134.682l.724-.428-.011,3.927-.724.428Z" transform="translate(-45.768 -27.153)" fill="#232d41"/>
        <path id="Path_61185" data-name="Path 61185" d="M211.668,134.876l.724-.428-.011,3.927-.724.428Z" transform="translate(-45.841 -27.192)" fill="gray"/>
        <path id="Path_61186" data-name="Path 61186" d="M212.2,135.185l.724-.428-.011,3.927-.724.428Z" transform="translate(-45.957 -27.255)" fill="#232d41"/>
        <path id="Path_61187" data-name="Path 61187" d="M212.529,135.373l.724-.428-.013,4.526-.724.428Z" transform="translate(-46.027 -27.293)" fill="gray"/>
        <path id="Path_61188" data-name="Path 61188" d="M213.065,135.683l.724-.428-.013,4.526-.724.428Z" transform="translate(-46.143 -27.356)" fill="#232d41"/>
        <path id="Path_61189" data-name="Path 61189" d="M213.381,140.794l.724-.428.419.246-.724.428Z" transform="translate(-46.214 -28.389)" fill="#acacac"/>
        <path id="Path_61190" data-name="Path 61190" d="M209.077,133.378l.724-.428.419.247-.724.428Z" transform="translate(-45.282 -26.889)" fill="#2f3d58"/>
        <path id="Path_61191" data-name="Path 61191" d="M214.243,141.292l.724-.428.419.247-.724.428Z" transform="translate(-46.401 -28.49)" fill="#acacac"/>
        <path id="Path_61192" data-name="Path 61192" d="M209.939,133.876l.724-.428.419.246-.724.428Z" transform="translate(-45.469 -26.99)" fill="#2f3d58"/>
        <path id="Path_61193" data-name="Path 61193" d="M215.1,142.539l.724-.428.419.247-.724.428Z" transform="translate(-46.587 -28.742)" fill="#acacac"/>
        <path id="Path_61194" data-name="Path 61194" d="M210.809,134.378l.724-.428.413.243-.724.428Z" transform="translate(-45.657 -27.092)" fill="#2f3d58"/>
        <path id="Path_61195" data-name="Path 61195" d="M212.087,135.231l-.011,3.927-.42-.246.011-3.927Z" transform="translate(-45.841 -27.301)" fill="#3c4e71"/>
        <path id="Path_61196" data-name="Path 61196" d="M211.671,134.876l.724-.428.419.247-.723.428Z" transform="translate(-45.844 -27.192)" fill="#2f3d58"/>
        <path id="Path_61197" data-name="Path 61197" d="M212.533,135.373l.724-.428.419.246-.723.428Z" transform="translate(-46.031 -27.293)" fill="#2f3d58"/>
        <path id="Path_61198" data-name="Path 61198" d="M213.392,135.871l.724-.428-.011,3.927-.724.428Z" transform="translate(-46.214 -27.394)" fill="gray"/>
        <path id="Path_61199" data-name="Path 61199" d="M213.395,135.871l.724-.428.419.247-.724.428Z" transform="translate(-46.217 -27.394)" fill="#2f3d58"/>
        <path id="Path_61200" data-name="Path 61200" d="M213.927,136.18l.724-.428-.011,3.927-.724.428Z" transform="translate(-46.33 -27.456)" fill="#232d41"/>
        <path id="Path_61201" data-name="Path 61201" d="M214.253,136.369l.724-.428-.011,3.927-.724.428Z" transform="translate(-46.401 -27.494)" fill="gray"/>
        <path id="Path_61202" data-name="Path 61202" d="M214.789,136.678l.724-.428-.011,3.927-.724.428Z" transform="translate(-46.517 -27.557)" fill="#232d41"/>
        <path id="Path_61203" data-name="Path 61203" d="M214.257,136.369l.724-.428.419.247-.724.428Z" transform="translate(-46.404 -27.494)" fill="#2f3d58"/>
        <path id="Path_61204" data-name="Path 61204" d="M214.673,136.724l-.011,3.927-.42-.247.012-3.927Z" transform="translate(-46.401 -27.603)" fill="#3c4e71"/>
        <path id="Path_61205" data-name="Path 61205" d="M215.115,136.866l.724-.428-.013,4.526-.724.428Z" transform="translate(-46.587 -27.595)" fill="gray"/>
        <path id="Path_61206" data-name="Path 61206" d="M215.118,136.866l.724-.428.419.246-.724.428Z" transform="translate(-46.59 -27.595)" fill="#2f3d58"/>
        <path id="Path_61207" data-name="Path 61207" d="M215.65,137.175l.724-.428-.013,4.526-.724.428Z" transform="translate(-46.703 -27.657)" fill="#232d41"/>
        <path id="Path_61208" data-name="Path 61208" d="M201.276,127.725l12.593,7.4-.018,6.4-12.593-7.4Zm1.781,6.586.013-4.526-.419-.246-.012,4.526Zm7.441,4.375.013-4.526-.419-.247-.013,4.526Zm-2.708-1.592.013-4.526-.42-.247-.012,4.526Zm4.733,2.783.013-4.526-.419-.246-.013,4.526Zm-8.114-5.37.011-3.927-.42-.247-.01,3.927Zm-.675-.4.011-3.927-.419-.246-.011,3.927Zm3.383,1.989.011-3.927-.42-.247-.01,3.927Zm1.351.794.011-3.927-.42-.247-.011,3.927Zm-2.026-1.191.011-3.927-.418-.247-.012,3.927Zm3.383,1.989.011-3.927-.419-.247-.012,3.927Zm1.351.794.011-3.927-.419-.247-.012,3.927Zm.675.4.011-3.927-.419-.247-.012,3.927Zm-6.09-3.58.01-3.927-.412-.243-.012,3.927Zm3.382,1.988.011-3.927-.414-.243-.009,3.927Zm-4.057-2.385.01-3.927-.412-.243-.012,3.927Z" transform="translate(-43.589 -25.833)" fill="#ddd"/>
        <path id="Path_61209" data-name="Path 61209" d="M204.314,130.743l-.011,3.927-.42-.246.011-3.927Z" transform="translate(-44.157 -26.393)" fill="#3c4e71"/>
        <path id="Path_61210" data-name="Path 61210" d="M205.175,131.24l-.011,3.927-.42-.246.011-3.927Z" transform="translate(-44.344 -26.494)" fill="#3c4e71"/>
        <path id="Path_61211" data-name="Path 61211" d="M207.77,132.738l-.011,3.927-.42-.247.011-3.927Z" transform="translate(-44.906 -26.797)" fill="#3c4e71"/>
        <path id="Path_61212" data-name="Path 61212" d="M209.493,133.733l-.013,4.526-.42-.247.013-4.526Z" transform="translate(-45.278 -26.998)" fill="#3c4e71"/>
        <path id="Path_61213" data-name="Path 61213" d="M210.355,134.231l-.011,3.927-.42-.247.012-3.927Z" transform="translate(-45.466 -27.099)" fill="#3c4e71"/>
        <path id="Path_61214" data-name="Path 61214" d="M211.219,134.73l-.011,3.927-.413-.243.011-3.927Z" transform="translate(-45.654 -27.2)" fill="#3c4e71"/>
        <path id="Path_61215" data-name="Path 61215" d="M212.949,135.729l-.013,4.526-.42-.246.013-4.526Z" transform="translate(-46.027 -27.402)" fill="#3c4e71"/>
        <path id="Path_61216" data-name="Path 61216" d="M213.811,136.226l-.011,3.927-.42-.246.012-3.927Z" transform="translate(-46.214 -27.502)" fill="#3c4e71"/>
        <path id="Path_61217" data-name="Path 61217" d="M215.534,137.221l-.013,4.526-.42-.247.013-4.526Z" transform="translate(-46.587 -27.704)" fill="#3c4e71"/>
        <path id="Path_61218" data-name="Path 61218" d="M201.282,127.616l.724-.428,12.593,7.4-.723.428Z" transform="translate(-43.594 -25.724)" fill="#acacac"/>
        <path id="Path_61219" data-name="Path 61219" d="M217.351,136.9l.724-.428-.018,6.405-.724.428Z" transform="translate(-47.07 -27.601)" fill="gray"/>
        <path id="Path_61220" data-name="Path 61220" d="M202.629,123.621l.724-.428,0,.613-.724.428Z" transform="translate(-43.885 -24.916)" fill="#868686"/>
        <path id="Path_61221" data-name="Path 61221" d="M202.638,120.612l.724-.428,0,.606-.724.428Z" transform="translate(-43.887 -24.307)" fill="#868686"/>
        <path id="Path_61222" data-name="Path 61222" d="M202.641,119.41l.724-.428,0,.613-.723.428Z" transform="translate(-43.888 -24.064)" fill="#868686"/>
        <path id="Path_61223" data-name="Path 61223" d="M202.627,124.39l.724-.428,4.419,2.6-.724.428Z" transform="translate(-43.885 -25.072)" fill="#b4b4b4"/>
        <path id="Path_61224" data-name="Path 61224" d="M202.63,123.621l.724-.428,4.418,2.6-.724.428Z" transform="translate(-43.886 -24.916)" fill="#313f5c"/>
        <path id="Path_61225" data-name="Path 61225" d="M207.047,126.328l0,.613-4.418-2.6,0-.613Z" transform="translate(-43.885 -25.025)" fill="#3f5277"/>
        <path id="Path_61226" data-name="Path 61226" d="M208.269,126.877l.724-.428,0,.613-.724.428Z" transform="translate(-45.107 -25.575)" fill="#242f44"/>
        <path id="Path_61227" data-name="Path 61227" d="M202.636,121.371l.724-.428,4.418,2.6-.724.428Z" transform="translate(-43.887 -24.461)" fill="#b4b4b4"/>
        <path id="Path_61228" data-name="Path 61228" d="M202.638,120.612l.724-.428,4.418,2.6-.724.428Z" transform="translate(-43.888 -24.307)" fill="#313f5c"/>
        <path id="Path_61229" data-name="Path 61229" d="M208.278,123.868l.724-.428,0,.606-.723.428Z" transform="translate(-45.109 -24.966)" fill="#242f44"/>
        <path id="Path_61230" data-name="Path 61230" d="M202.639,120.179l.724-.428,7.283,4.282-.723.428Z" transform="translate(-43.888 -24.22)" fill="#b4b4b4"/>
        <path id="Path_61231" data-name="Path 61231" d="M202.642,119.41l.724-.428,7.283,4.282-.723.428Z" transform="translate(-43.888 -24.064)" fill="#313f5c"/>
        <path id="Path_61232" data-name="Path 61232" d="M211.938,124.777l.724-.428,0,.613-.724.428Z" transform="translate(-45.901 -25.15)" fill="#242f44"/>
        <path id="Path_61233" data-name="Path 61233" d="M201.276,117.558l12.593,7.4-.017,6-12.593-7.4Zm8.347,6.459,0-.613-7.283-4.282,0,.614Zm-2.874,1.675,0-.613-4.418-2.6,0,.613Zm.007-2.408,0-.605-4.418-2.6,0,.606Z" transform="translate(-43.589 -23.776)" fill="#e9e9e9"/>
        <path id="Path_61234" data-name="Path 61234" d="M207.056,123.318l0,.606-4.418-2.6,0-.605Z" transform="translate(-43.887 -24.416)" fill="#3f5277"/>
        <path id="Path_61235" data-name="Path 61235" d="M209.924,123.8l0,.613-7.283-4.282,0-.613Z" transform="translate(-43.888 -24.173)" fill="#3f5277"/>
        <path id="Path_61236" data-name="Path 61236" d="M201.281,117.449l.724-.428,12.593,7.4-.723.428Z" transform="translate(-43.594 -23.668)" fill="#b4b4b4"/>
        <path id="Path_61237" data-name="Path 61237" d="M217.351,126.73l.724-.428-.017,6-.723.428Z" transform="translate(-47.07 -25.545)" fill="#868686"/>
        <g id="Group_53057" data-name="Group 53057" transform="translate(99.451 132.91)" opacity="0.23" style="mix-blend-mode: multiply;isolation: isolate">
          <g id="Group_53056" data-name="Group 53056">
            <g id="Group_53055" data-name="Group 53055" clip-path="url(#clip-path-8)">
              <path id="Path_61238" data-name="Path 61238" d="M167.995,172.678c-2.061.153-4.85-3.045-6.458-6.072-2.388,4.837-5.7,10.8-8.044,13.779,2.226.645,6.441.132,7.364-.088a2.5,2.5,0,0,1,2.772,1.71c.43,1.153-.664,3.817-2.928,4.89a10.874,10.874,0,0,1-8,1.13c-3.475-.835-8.126.644-8.79-1.98a3.806,3.806,0,0,1,.009-1.5,16.126,16.126,0,0,1,1.248-3.749,2.477,2.477,0,0,1-.2-1.214,32.589,32.589,0,0,1,1.991-6.8s-3.561,5.611-7.965,6.441c0,5.368-7.5,5.964-10.894,7.992-.352.21-.743.479-1.152.776.4,3.328,2.733,6.587,7.034,9.133,9.53,5.639,25.03,5.641,34.622,0,3.688-2.168,5.964-4.855,6.829-7.661l9.542,5.61,13.492-7.919-27.843-16.369c-1.1,1.114-2.037,1.848-2.627,1.891" transform="translate(-126.945 -166.606)" fill="#838383"/>
            </g>
          </g>
        </g>
        <g id="Group_53060" data-name="Group 53060" transform="translate(75.131 162.781)" style="mix-blend-mode: multiply;isolation: isolate">
          <g id="Group_53059" data-name="Group 53059" opacity="0.3">
            <g id="Group_53058" data-name="Group 53058" clip-path="url(#clip-path-9)">
              <path id="Path_61239" data-name="Path 61239" d="M103.607,212.939a2.961,2.961,0,0,1-2.3-1.529,6.567,6.567,0,0,1-1.018-5.7c-.233.118-.468.236-.689.366-4.906,2.885-4.931,7.56-.056,10.444s12.8,2.885,17.708,0,4.932-7.56.058-10.445a16.431,16.431,0,0,0-6.4-2.021c-.9,1.131-2.537,3.4-2.847,5.172-.43,2.465-1.64,4.016-4.451,3.716" transform="translate(-95.901 -204.051)" fill="#838383"/>
            </g>
          </g>
        </g>
        <path id="Path_61240" data-name="Path 61240" d="M114.573,197.166a9.064,9.064,0,0,0-.246-1.718c-.968,1.877-3.958,3.76-4.176,7.145-.238,3.7-2.067,8.557-4.412,8.6,2.812.3,4.022-1.249,4.451-3.714.309-1.776,1.952-4.041,2.848-5.172.348-.44.587-.713.587-.713l.49-1.2a8.916,8.916,0,0,0,.459-3.229" transform="translate(-22.901 -39.53)" fill="#4d4d4d"/>
        <path id="Path_61241" data-name="Path 61241" d="M218.464,140.369c-.009.009,0,.033.035.066-.01-.053-.021-.081-.035-.066" transform="translate(-47.315 -28.389)" fill="#e8b188"/>
        <path id="Path_61242" data-name="Path 61242" d="M115.857,189.94a2.151,2.151,0,0,1,.271,2.558,8.991,8.991,0,0,1,.247,1.718c3.749-4.147,11.728-7.47,13.695-8.092,2.265-.716.937-3.9.937-3.9a22.528,22.528,0,0,1-8.371-1.365l-8.575,7.567s.129.14.327.4a2.806,2.806,0,0,1,1.47,1.111" transform="translate(-24.703 -36.58)" fill="#292e3f"/>
        <path id="Path_61243" data-name="Path 61243" d="M136.557,177.9c4.4-.831,7.965-6.441,7.965-6.441a32.64,32.64,0,0,0-1.991,6.8,2.477,2.477,0,0,0,.2,1.214c.834,1.947,3.992,3.26,6.825,1.171.1-.072.2-.157.3-.252-1.174.172-3.261.289-3.428-1.02-.234-1.829,2.421-7.4,4.607-10.974,1.134-1.856,2.917-4.585,4.362-6.9-.186-.418-.371-.9-.555-1.434-5.014,5.272-15.532,15.912-23.642,16.2-7.743.279-11.789-5.742-13.509-9.342-.2,3.758,1,6.89,5.5,9.54l-.211.186a22.533,22.533,0,0,0,8.372,1.364s1.328,3.181-.937,3.9c-1.968.622-9.945,3.946-13.695,8.092a8.93,8.93,0,0,1-.46,3.229l-.489,1.2c-.026.053-.05.106-.077.16a94.8,94.8,0,0,1,8.8-7.931c.409-.3.8-.566,1.152-.776,3.4-2.028,10.894-2.624,10.894-7.992" transform="translate(-25.06 -32.374)" fill="#171c2b"/>
        <path id="Path_61244" data-name="Path 61244" d="M158.8,154.766c-1.02,1.183-2.11,2.44-3.185,3.666,0,0,6.019-6.828,6.019-6.828-.009-.037-.017-.076-.027-.112-.794.93-1.757,2.056-2.808,3.275" transform="translate(-33.703 -30.639)" fill="#f15a24"/>
        <path id="Path_61245" data-name="Path 61245" d="M166.7,163.644a2.187,2.187,0,0,1-1.782-.265,3.281,3.281,0,0,1-1.024-1.514c-1.445,2.312-3.227,5.042-4.361,6.9-2.187,3.579-4.842,9.145-4.607,10.974.168,1.309,2.255,1.193,3.428,1.02a10.873,10.873,0,0,0,1.195-1.33c2.34-2.979,5.656-8.943,8.044-13.779a14.59,14.59,0,0,1-.892-2" transform="translate(-33.551 -32.738)" fill="#292e3f"/>
        <path id="Path_61246" data-name="Path 61246" d="M131.758,174.566c8.111-.293,18.629-10.933,23.642-16.2-.7-2.014-1.369-4.661-1.858-6.729l-6.021,6.833c-6.447,15.046-25.123,12.544-29.212,6.119-.02.213-.049.432-.06.641,1.72,3.6,5.767,9.621,13.509,9.342" transform="translate(-25.61 -30.668)" fill="#292e3f"/>
        <path id="Path_61247" data-name="Path 61247" d="M156.741,126.234a4.192,4.192,0,0,0,1.32,1.522c.237.191.487.375.756.559l.077.053c.261.176.543.353.841.528l.125.073q.448.258.943.507l.14.068c.34.168.693.33,1.062.485l.1.042c.389.161.79.316,1.2.459.3.1.57.2.846.3a9.559,9.559,0,0,1,4.087.424c.132.063.229.116.333.172L167.1,128.7l-.084,0-.061,0-.216,0h-.1c-.119,0-.255,0-.412-.008-.219-.008-.415-.02-.628-.037l-.126-.012c-.175-.016-.359-.038-.552-.063l-.194-.027c-.2-.03-.414-.067-.631-.111-.048-.01-.093-.017-.142-.027-.268-.057-.542-.124-.823-.206-.041-.012-.081-.027-.123-.04q-.349-.105-.7-.241c-.038-.014-.077-.024-.115-.039s-.074-.037-.111-.053q-.368-.151-.728-.339c-.055-.029-.11-.053-.164-.083a7.782,7.782,0,0,1-.828-.528c-.059-.043-.114-.093-.172-.138a6.945,6.945,0,0,1-.606-.534c-.069-.069-.137-.136-.2-.207a6.375,6.375,0,0,1-.664-.833l-2.038.775Z" transform="translate(-33.934 -25.319)" fill="#f2f2f2"/>
        <path id="Path_61248" data-name="Path 61248" d="M163.189,122.823c.761-.58,1.7-4.238,2.44-5.351s1.6-.557,1.679,0,.2,1.943.43,1.906.624-.116.624-.594a34.9,34.9,0,0,1,.655-4.175,5.9,5.9,0,0,1,.5-1.107c-.275.164-.552.333-.841.532-2.731,1.878-6.419,4.381-11.4,3.477a11.61,11.61,0,0,1-1.658-.421,8.605,8.605,0,0,1-.859-.346c.273.6.562,1.166.841,1.685a28.182,28.182,0,0,1,1.427,2.7,3.742,3.742,0,0,0,.9.925c1.8,1.327,4.632,1.255,5.272.768" transform="translate(-33.516 -22.956)" fill="#311b0b"/>
        <path id="Path_61249" data-name="Path 61249" d="M157.424,104.009c-.309.156-.617.306-.929.489a6.048,6.048,0,0,0-3.323,6.156,10.173,10.173,0,0,0,1.768,1.32,15.049,15.049,0,0,1,2.484-7.966" transform="translate(-33.167 -21.036)" fill="#311b0b"/>
        <path id="Path_61250" data-name="Path 61250" d="M158.227,111.808a11.449,11.449,0,0,1,9.387-9.15,10.775,10.775,0,0,0-3.824-.493,11.6,11.6,0,0,0-5.563,9.643" transform="translate(-34.269 -20.66)" fill="#311b0b"/>
        <path id="Path_61251" data-name="Path 61251" d="M165.906,114.061c4.123-1.583,7.406-5.381,7.765-8.226a11.423,11.423,0,0,0-1.371-1.139c.45,2.276-1.3,5.693-6.394,9.366" transform="translate(-35.932 -21.175)" fill="#311b0b"/>
        <path id="Path_61252" data-name="Path 61252" d="M102.449,208.728a2.951,2.951,0,0,0,2.3,1.528c2.346-.048,4.174-4.9,4.413-8.605.218-3.384,3.208-5.267,4.176-7.144a2.154,2.154,0,0,0-.272-2.558,2.81,2.81,0,0,0-1.469-1.111c-1.151-.276-2.622.657-5.013,3.576-2.129,2.6-4.42,5.614-5.156,8.609a6.561,6.561,0,0,0,1.018,5.7" transform="translate(-21.915 -38.588)" fill="#b3b3b3"/>
        <path id="Path_61253" data-name="Path 61253" d="M156.991,185.173c-.106.095-.208.18-.3.252-2.834,2.089-5.991.775-6.825-1.171A16.163,16.163,0,0,0,148.613,188c1.656,2.558,3.771,1.391,7.721,1.75,4.374.4,7.34.361,9.606-1.113s2.382-3.175,2.382-3.175a2.5,2.5,0,0,0-2.773-1.71c-.923.219-5.138.733-7.364.088a11,11,0,0,1-1.195,1.33" transform="translate(-32.187 -37.154)" fill="#4d4d4d"/>
        <path id="Path_61254" data-name="Path 61254" d="M165.918,189.087c-2.266,1.473-5.232,1.511-9.605,1.114-3.951-.36-6.065.807-7.721-1.751a3.806,3.806,0,0,0-.009,1.5c.664,2.625,5.315,1.146,8.79,1.98a10.875,10.875,0,0,0,8-1.129c2.265-1.074,3.358-3.737,2.928-4.89,0,0-.116,1.7-2.382,3.174" transform="translate(-32.165 -37.601)" fill="#b3b3b3"/>
        <path id="Path_61255" data-name="Path 61255" d="M160.043,123.64a6.721,6.721,0,0,0,.606.534c.058.045.113.094.172.137a7.586,7.586,0,0,0,.828.529c.054.03.108.054.163.082q.361.189.728.34c.038.016.074.038.112.053,1.522-1.44,2.759-4.3,2.915-4.384.175-.09-.363,1.2,1.288,2.116a6.055,6.055,0,0,0,3.633.4c.547-.575,1.519-8.735,1.521-11.045-.452.218-.926.459-1.429.752-.062.036-.13.085-.193.122a5.9,5.9,0,0,0-.5,1.108,34.9,34.9,0,0,0-.655,4.175c0,.477-.391.557-.625.594s-.351-1.349-.429-1.906-.937-1.113-1.679,0-1.679,4.771-2.44,5.351c-.639.487-3.476.559-5.272-.767.233.48.385.767.385.767a6.318,6.318,0,0,0,.663.833c.067.072.135.139.2.207" transform="translate(-34.391 -22.734)" fill="#875023"/>
        <path id="Path_61256" data-name="Path 61256" d="M167.924,125.209c-1.651-.917-1.113-2.207-1.289-2.116-.156.08-1.392,2.943-2.915,4.383.038.016.077.025.115.039.234.09.469.171.7.242.042.012.082.027.123.039.28.081.555.149.823.206.049.01.094.018.142.027.217.043.429.081.631.111l.194.027c.193.026.378.047.552.063l.126.012c.211.018.409.03.584.037.2.006.338.009.456.009h.1l.216,0,.061,0,.084,0c0-.6,0-1.829.31-2.028s2.069-.079,2.616-.636a6.07,6.07,0,0,1-3.631-.4" transform="translate(-35.459 -24.895)" fill="#603811"/>
        <path id="Path_61257" data-name="Path 61257" d="M197.43,153.223c.858.14,2.327-.253,2.469-1a46.409,46.409,0,0,0,.028-5.116,6.065,6.065,0,0,0-.951,3.049,4.732,4.732,0,0,1-1.546,3.063" transform="translate(-42.76 -29.754)" fill="#292e3f"/>
        <path id="Path_61258" data-name="Path 61258" d="M172.211,159.3c2.292,3.745,4.73,5.9,6.369,5.233,1.937-.784,11.884-12.691,12.814-14.187a16.556,16.556,0,0,1,3.091-3.707,1.824,1.824,0,0,1,.483-.534.923.923,0,0,0,.129-1.156l-4.607,2.726-.7-.41a10.363,10.363,0,0,1-.036,2.459c-.321,1.331-10.365,9.83-11.178,9.276a6.673,6.673,0,0,1-1.155-2.636c-.924.955-3.615,2.23-5.214,2.936" transform="translate(-37.298 -29.316)" fill="#875023"/>
        <path id="Path_61259" data-name="Path 61259" d="M190.906,150.782c-.931,1.5-10.877,13.4-12.814,14.187-1.639.663-4.077-1.487-6.369-5.233-.727.321-1.234.528-1.234.528a1.088,1.088,0,0,1-.528.4,14.594,14.594,0,0,0,.892,2c1.608,3.027,4.4,6.225,6.458,6.072.59-.045,1.524-.778,2.627-1.892,3.818-3.855,9.68-12.3,10.456-12.752a5.754,5.754,0,0,0,1.087-.869,4.734,4.734,0,0,0,1.546-3.062,6.068,6.068,0,0,1,.951-3.05,16.038,16.038,0,0,0-3.071,3.671" transform="translate(-36.81 -29.754)" fill="#603811"/>
        <path id="Path_61260" data-name="Path 61260" d="M206.852,137.492l-1.305-.767Z" transform="translate(-44.518 -27.653)" fill="#161922"/>
        <path id="Path_61261" data-name="Path 61261" d="M199.356,137.226l3.068-1.815-3.068,1.815" transform="translate(-43.177 -27.387)" fill="#202331"/>
        <path id="Path_61262" data-name="Path 61262" d="M199.356,137.686l3.087,1.816Z" transform="translate(-43.177 -27.847)" fill="#313849"/>
        <path id="Path_61263" data-name="Path 61263" d="M197.951,138.442l.658-.389Z" transform="translate(-42.872 -27.922)" fill="#202331"/>
        <path id="Path_61264" data-name="Path 61264" d="M197.951,138.443l.382.225.28.164.658-.389-.662-.389Z" transform="translate(-42.872 -27.922)" fill="#4e5a76"/>
        <path id="Path_61265" data-name="Path 61265" d="M197.951,138.541l.382.225Z" transform="translate(-42.872 -28.02)" fill="#313849"/>
        <path id="Path_61266" data-name="Path 61266" d="M199.63,138.643l-.658.389Z" transform="translate(-43.094 -28.041)" fill="#202331"/>
        <path id="Path_61267" data-name="Path 61267" d="M196.929,139.036l.657-.389Z" transform="translate(-42.651 -28.042)" fill="#202331"/>
        <path id="Path_61268" data-name="Path 61268" d="M198.972,139.032l.28.164.382.225.658-.389-.662-.389Z" transform="translate(-43.094 -28.041)" fill="#4e5a76"/>
        <path id="Path_61269" data-name="Path 61269" d="M199.329,139.337l.382.225Z" transform="translate(-43.171 -28.181)" fill="#313849"/>
        <path id="Path_61270" data-name="Path 61270" d="M196.929,139.135l.662.39Z" transform="translate(-42.651 -28.14)" fill="#313849"/>
        <path id="Path_61271" data-name="Path 61271" d="M200.651,139.232l-.658.389Z" transform="translate(-43.315 -28.16)" fill="#202331"/>
        <path id="Path_61272" data-name="Path 61272" d="M197.949,139.626l.658-.389Z" transform="translate(-42.872 -28.161)" fill="#202331"/>
        <path id="Path_61273" data-name="Path 61273" d="M195.906,139.631l.657-.389Z" transform="translate(-42.429 -28.162)" fill="#202331"/>
        <path id="Path_61274" data-name="Path 61274" d="M199.356,137.226l3.087,1.815,3.068-1.815-1.305-.767-1.782-1.048Z" transform="translate(-43.177 -27.387)" fill="#fff"/>
        <path id="Path_61275" data-name="Path 61275" d="M199.993,139.622l.662.389.658-.389-.662-.389Z" transform="translate(-43.315 -28.16)" fill="#4e5a76"/>
        <path id="Path_61276" data-name="Path 61276" d="M197.95,139.626l.662.389.658-.389-.662-.389Z" transform="translate(-42.872 -28.161)" fill="#4e5a76"/>
        <path id="Path_61277" data-name="Path 61277" d="M197.95,139.725l.662.389Z" transform="translate(-42.872 -28.26)" fill="#313849"/>
        <path id="Path_61278" data-name="Path 61278" d="M195.906,139.73l.662.389Z" transform="translate(-42.429 -28.261)" fill="#313849"/>
        <path id="Path_61279" data-name="Path 61279" d="M201.672,139.822l-.658.389Z" transform="translate(-43.536 -28.279)" fill="#202331"/>
        <path id="Path_61280" data-name="Path 61280" d="M199.628,139.826l-.658.389Z" transform="translate(-43.093 -28.28)" fill="#202331"/>
        <path id="Path_61281" data-name="Path 61281" d="M197.585,139.831l-.657.39Z" transform="translate(-42.651 -28.281)" fill="#202331"/>
        <path id="Path_61282" data-name="Path 61282" d="M194.892,140.221l.651-.385-.651.385" transform="translate(-42.21 -28.282)" fill="#202331"/>
        <path id="Path_61283" data-name="Path 61283" d="M201.676,140.6l.658-.389-.662-.389-.658.389Z" transform="translate(-43.536 -28.279)" fill="#4e5a76"/>
        <path id="Path_61284" data-name="Path 61284" d="M196.927,140.22l.662.389.382-.226.276-.164-.663-.389Z" transform="translate(-42.651 -28.281)" fill="#4e5a76"/>
        <path id="Path_61285" data-name="Path 61285" d="M196.927,140.319l.662.389Z" transform="translate(-42.651 -28.38)" fill="#313849"/>
        <path id="Path_61286" data-name="Path 61286" d="M198.26,140.483l.276-.164Z" transform="translate(-42.939 -28.38)" fill="#46516a"/>
        <path id="Path_61287" data-name="Path 61287" d="M194.892,140.319l.662.389-.662-.389" transform="translate(-42.21 -28.38)" fill="#313849"/>
        <path id="Path_61288" data-name="Path 61288" d="M200.649,140.416l-.658.389Z" transform="translate(-43.314 -28.4)" fill="#202331"/>
        <path id="Path_61289" data-name="Path 61289" d="M198.606,140.421l-.659.389Z" transform="translate(-42.872 -28.401)" fill="#202331"/>
        <path id="Path_61290" data-name="Path 61290" d="M196.564,140.425l-.652.385Z" transform="translate(-42.431 -28.401)" fill="#202331"/>
        <path id="Path_61291" data-name="Path 61291" d="M194.521,140.43l-.651.385.651-.385" transform="translate(-41.988 -28.402)" fill="#202331"/>
        <path id="Path_61292" data-name="Path 61292" d="M201.311,140.805l-.662-.389-.658.389.662.389Z" transform="translate(-43.314 -28.399)" fill="#4e5a76"/>
        <path id="Path_61293" data-name="Path 61293" d="M197.948,140.909l.662.389Z" transform="translate(-42.872 -28.499)" fill="#313849"/>
        <path id="Path_61294" data-name="Path 61294" d="M195.913,140.909l.662.389Z" transform="translate(-42.431 -28.499)" fill="#313849"/>
        <path id="Path_61295" data-name="Path 61295" d="M195.913,140.811l.662.389.651-.385-.662-.389Z" transform="translate(-42.431 -28.401)" fill="#4e5a76"/>
        <path id="Path_61296" data-name="Path 61296" d="M193.87,140.816l.662.389.651-.385-.661-.389Z" transform="translate(-41.988 -28.402)" fill="#4e5a76"/>
        <path id="Path_61297" data-name="Path 61297" d="M199.626,141.01l-.658.389Z" transform="translate(-43.093 -28.52)" fill="#202331"/>
        <path id="Path_61298" data-name="Path 61298" d="M197.412,141.143l-.479.283.479-.283" transform="translate(-42.652 -28.546)" fill="#202331"/>
        <path id="Path_61299" data-name="Path 61299" d="M195.542,141.02l-.652.385.652-.385" transform="translate(-42.209 -28.522)" fill="#202331"/>
        <path id="Path_61300" data-name="Path 61300" d="M192.847,141.409l.658-.389-.658.389" transform="translate(-41.767 -28.522)" fill="#202331"/>
        <path id="Path_61301" data-name="Path 61301" d="M198.969,141.4l.662.389.658-.389-.662-.389Z" transform="translate(-43.093 -28.52)" fill="#4e5a76"/>
        <path id="Path_61302" data-name="Path 61302" d="M199.631,141.887l-.662-.389Z" transform="translate(-43.093 -28.618)" fill="#313849"/>
        <path id="Path_61303" data-name="Path 61303" d="M197.6,141.79l.651-.385-.662-.39-.172.1-.479.283Z" transform="translate(-42.652 -28.52)" fill="#4e5a76"/>
        <path id="Path_61304" data-name="Path 61304" d="M197.6,141.887l-.662-.389Z" transform="translate(-42.652 -28.618)" fill="#313849"/>
        <path id="Path_61305" data-name="Path 61305" d="M194.89,141.405l.662.389.652-.386-.662-.389Z" transform="translate(-42.21 -28.521)" fill="#4e5a76"/>
        <path id="Path_61306" data-name="Path 61306" d="M194.89,141.5l.662.389Z" transform="translate(-42.209 -28.619)" fill="#313849"/>
        <path id="Path_61307" data-name="Path 61307" d="M192.847,141.409l.662.389.658-.389-.662-.389-.658.389" transform="translate(-41.767 -28.522)" fill="#4e5a76"/>
        <path id="Path_61308" data-name="Path 61308" d="M192.847,141.507l.662.39Z" transform="translate(-41.767 -28.62)" fill="#313849"/>
        <path id="Path_61309" data-name="Path 61309" d="M198.606,141.6l-.651.385Z" transform="translate(-42.873 -28.64)" fill="#202331"/>
        <path id="Path_61310" data-name="Path 61310" d="M196.563,141.609l-.652.385Z" transform="translate(-42.431 -28.641)" fill="#202331"/>
        <path id="Path_61311" data-name="Path 61311" d="M196.743,141.609l.42.247Z" transform="translate(-42.611 -28.641)" fill="#161922"/>
        <path id="Path_61312" data-name="Path 61312" d="M194.525,141.609l-.658.389Z" transform="translate(-41.988 -28.641)" fill="#202331"/>
        <path id="Path_61313" data-name="Path 61313" d="M198.617,142.476l-.662-.389Z" transform="translate(-42.873 -28.737)" fill="#313849"/>
        <path id="Path_61314" data-name="Path 61314" d="M197.955,141.99l.662.389.651-.385-.662-.389-.651.385" transform="translate(-42.873 -28.64)" fill="#4e5a76"/>
        <path id="Path_61315" data-name="Path 61315" d="M196.573,142.481l-.662-.389Z" transform="translate(-42.431 -28.738)" fill="#313849"/>
        <path id="Path_61316" data-name="Path 61316" d="M196.563,141.609l-.651.385.662.389.651-.385-.242-.143Z" transform="translate(-42.431 -28.641)" fill="#4e5a76"/>
        <path id="Path_61317" data-name="Path 61317" d="M193.868,142.1l.662.389Z" transform="translate(-41.988 -28.74)" fill="#313849"/>
        <path id="Path_61318" data-name="Path 61318" d="M193.868,142l.662.389.658-.389-.662-.389Z" transform="translate(-41.988 -28.641)" fill="#4e5a76"/>
        <path id="Path_61319" data-name="Path 61319" d="M197.584,142.2l-.652.385Z" transform="translate(-42.652 -28.76)" fill="#202331"/>
        <path id="Path_61320" data-name="Path 61320" d="M198.475,142.614l-.485-.285Z" transform="translate(-42.881 -28.786)" fill="#161922"/>
        <path id="Path_61321" data-name="Path 61321" d="M195.546,142.2l-.658.389Z" transform="translate(-42.209 -28.76)" fill="#202331"/>
        <path id="Path_61322" data-name="Path 61322" d="M197.594,143.07l-.662-.389Z" transform="translate(-42.652 -28.858)" fill="#313849"/>
        <path id="Path_61323" data-name="Path 61323" d="M196.932,142.584l.662.389.651-.385-.484-.286-.178-.1Z" transform="translate(-42.652 -28.76)" fill="#4e5a76"/>
        <path id="Path_61324" data-name="Path 61324" d="M194.889,142.588l.662.389.658-.389-.663-.389-.657.389" transform="translate(-42.209 -28.76)" fill="#4e5a76"/>
        <path id="Path_61325" data-name="Path 61325" d="M194.889,142.686l.662.389Z" transform="translate(-42.209 -28.859)" fill="#313849"/>
        <path id="Path_61326" data-name="Path 61326" d="M196.567,142.788l-.658.389Z" transform="translate(-42.43 -28.879)" fill="#202331"/>
        <path id="Path_61327" data-name="Path 61327" d="M195.91,143.177l.662.389.658-.389-.662-.389Z" transform="translate(-42.43 -28.879)" fill="#4e5a76"/>
        <path id="Path_61328" data-name="Path 61328" d="M196.572,143.665l-.662-.389Z" transform="translate(-42.43 -28.978)" fill="#313849"/>
        <path id="Path_61329" data-name="Path 61329" d="M194.436,142.945l10.753-6.363-4.039-2.374L190.4,140.571Zm2.539-3-.662-.389.657-.389.662.389Zm-1.739,1.029-.658.389-.662-.389.658-.389.662.389m-.8-.471-.658.389-.662-.389.658-.389Zm.281,0,.651-.386.42.247.242.143-.651.385Zm.8-.475.479-.283.173-.1.662.389-.652.385Zm1.6-.945.658-.389.662.389-.658.389Zm1.462.86-.662-.389.657-.389.663.389Zm.139-.863.658-.389.662.389-.657.389Zm.52-.471-.657.389-.662-.389.657-.389Zm-.8-.47-.658.389-.382-.225-.28-.164.657-.389Zm-1.463.085.662.389-.658.389-.662-.389.658-.389m-.139.863-.275.164-.382.226-.662-.389.657-.389Zm-.8.475-.651.385-.663-.389.652-.386Zm-.8.474-.651.385-.662-.389.651-.385Zm-.515,1.41.658-.389.662.389-.658.389Zm.8-.474.651-.386.178.1.484.286-.651.385Zm.8-.474.651-.386.663.39-.652.385-.662-.389m.794-.471.658-.389.662.389-.657.389Zm3.371-4.856,1.783,1.048,1.305.767L200.5,138.8l-3.087-1.815,3.067-1.816m-3.51,2.108.662.389-.658.39-.28-.165-.382-.225Zm-.8.474.662.389-.658.389-.662-.389Zm-.8.474.663.389-.658.389-.662-.389.657-.389m-.8.474.662.389-.651.385-.663-.388.652-.386m-.8.474.662.389-.651.385-.662-.389.651-.386m-.794.471.662.389-.657.389-.663-.389.658-.389" transform="translate(-41.237 -27.144)" fill="#232836"/>
        <path id="Path_61330" data-name="Path 61330" d="M196.929,139.037l.662.389.658-.389-.662-.389Z" transform="translate(-42.651 -28.042)" fill="#4e5a76"/>
        <path id="Path_61331" data-name="Path 61331" d="M195.906,139.631l.662.389.658-.389-.662-.389Z" transform="translate(-42.43 -28.162)" fill="#4e5a76"/>
        <path id="Path_61332" data-name="Path 61332" d="M199.633,140.6l.658-.389-.663-.389-.657.389Z" transform="translate(-43.093 -28.28)" fill="#4e5a76"/>
        <path id="Path_61333" data-name="Path 61333" d="M194.892,140.221l.662.389.652-.385-.663-.389Z" transform="translate(-42.21 -28.282)" fill="#4e5a76"/>
        <path id="Path_61334" data-name="Path 61334" d="M198.606,140.421l-.658.389.662.389.658-.389Z" transform="translate(-42.872 -28.4)" fill="#4e5a76"/>
        <path id="Path_61335" data-name="Path 61335" d="M195.551,143.547l-.007,2.557,4.606-2.725,6.147-3.638.007-2.557Z" transform="translate(-42.351 -27.746)" fill="#202331"/>
        <path id="Path_61336" data-name="Path 61336" d="M194.435,144.558l-4.039-2.374-.007,2.557,3.341,1.964.7.41Z" transform="translate(-41.235 -28.757)" fill="#161922"/>
        <path id="Path_61337" data-name="Path 61337" d="M144.633,131.12c.545,1.631,4.588,4.772,6,4.772a17.414,17.414,0,0,1,10.911-4.867c-.276-.1-.551-.2-.845-.3-.415-.142-.816-.3-1.2-.458l-.1-.042c-.368-.156-.722-.318-1.062-.485l-.14-.069c-.331-.165-.645-.335-.943-.507l-.126-.073c-.3-.175-.58-.353-.841-.529l-.077-.053c-.269-.184-.519-.368-.742-.548a4.232,4.232,0,0,1-1.334-1.533l-.059-.273c-1.829,0-9.978,3.331-9.433,4.962" transform="translate(-31.319 -25.516)" fill="#f15a24"/>
        <path id="Path_61338" data-name="Path 61338" d="M143.229,127.288a16.955,16.955,0,0,0-2.441,1.647c3.161-2.043,8.115-3.26,10.051-3.678a17.77,17.77,0,0,0-7.61,2.031" transform="translate(-30.492 -25.333)" fill="#f15a24"/>
        <path id="Path_61339" data-name="Path 61339" d="M151.843,152.556c.1-.149.2-.3.3-.45.118-.176.235-.352.356-.529s.237-.349.359-.525c.1-.152.208-.3.313-.452q.2-.285.4-.568l.255-.355c.33-.46.66-.913.99-1.353l.067-.09c.158-.211.313-.412.47-.615l.217-.281c.151-.193.3-.38.447-.564l.213-.262c.149-.183.3-.362.441-.533.053-.063.1-.12.157-.182.332-.386.65-.74.945-1.043.016-.018-1.057-.607-1.057-.607L154.1,142.44a12.4,12.4,0,0,0-2.55,4.392,14.692,14.692,0,0,0-.39,6.78l.139-.216q.266-.414.546-.839" transform="translate(-32.683 -28.809)" fill="#f15a24"/>
        <path id="Path_61340" data-name="Path 61340" d="M154.981,140.92l2.617,1.706,1.073.59A4.514,4.514,0,0,1,160.252,142a2.636,2.636,0,0,1,2.878.629l3.42,4.1s-1.47,8.463.695,11.076c0,0,.507-.207,1.234-.528,1.6-.706,4.291-1.981,5.214-2.936a.953.953,0,0,0,.323-.562c.026-.72-.467-2.245-.577-4.142-.088-1.509-.846-2.779-.761-4.313a16.682,16.682,0,0,0-3.036-9.625c-5.69-2.437-11.427,1.361-14.661,5.226" transform="translate(-33.566 -27.289)" fill="#f15a24"/>
        <path id="Path_61341" data-name="Path 61341" d="M166.728,159.883a2.187,2.187,0,0,0,1.782.265,1.088,1.088,0,0,0,.528-.4c-2.165-2.614-.695-11.076-.695-11.076l-3.42-4.1c-.038,1.84-.084,3.677,0,5.513-.465-.184-.855-.337-1.14-.444l-.1-.039-.413.484c.009.037.018.075.027.112.488,2.068,1.159,4.715,1.858,6.729.184.53.37,1.016.555,1.434a3.281,3.281,0,0,0,1.024,1.514" transform="translate(-35.36 -29.241)" fill="#ba451c"/>
        <path id="Path_61342" data-name="Path 61342" d="M160.659,149.893l.412-.483.1.039c.284.106.675.259,1.141.444-.084-1.836-.038-3.673,0-5.513a2.638,2.638,0,0,0-2.878-.629,4.528,4.528,0,0,0-1.581,1.219c-.311.321-.629.675-.961,1.062-.052.061-.1.118-.157.181-.144.171-.292.35-.441.533l-.213.262c-.148.184-.3.371-.447.564l-.217.281c-.156.2-.313.4-.47.615-.023.03-.045.061-.067.091-.329.439-.66.892-.989,1.352-.086.119-.172.236-.256.356-.134.188-.266.377-.4.567q-.159.226-.314.452c-.121.175-.241.349-.359.525s-.238.353-.356.529c-.1.151-.2.3-.3.45-.187.284-.368.564-.545.839-.048.073-.093.144-.139.216a3.636,3.636,0,0,0,3.438,2.989c1.074-1.226,2.165-2.483,3.184-3.666,1.051-1.219,2.015-2.345,2.809-3.275" transform="translate(-32.753 -29.042)" fill="#ba451c"/>
        <path id="Path_61343" data-name="Path 61343" d="M156.585,114.491c4.985.9,8.672-1.6,11.4-3.477.291-.2.567-.368.841-.533.063-.037.13-.085.193-.122.5-.294.977-.534,1.429-.752.534-.257,1.035-.479,1.5-.7a7.609,7.609,0,0,0,2.318-1.509c1.5-1.529,0-3.891-3.749-4.38l-.006.278a3.412,3.412,0,0,1,.057,1.3c-.36,2.846-3.643,6.644-7.765,8.226,5.095-3.672,6.845-7.09,6.394-9.366a3.2,3.2,0,0,0-.256-.786c-.324-.66-1.394-.911-2.768-.736a11.449,11.449,0,0,0-9.387,9.149,11.6,11.6,0,0,1,5.564-9.643,9,9,0,0,1,6.4-1.26,7.4,7.4,0,0,0-4.376-1.6,9.976,9.976,0,0,0-7.285,4.333,15.05,15.05,0,0,0-2.485,7.966,10.187,10.187,0,0,1-1.767-1.321c-.226-.211-.349-.348-.349-.348-1.528,1.112-1.17,3.244,1.58,4.516a8.4,8.4,0,0,0,.859.347,11.744,11.744,0,0,0,1.658.421" transform="translate(-32.832 -19.937)" fill="#f15a24"/>
        <path id="Path_61344" data-name="Path 61344" d="M160.258,131.4c-.1-.056-.2-.109-.334-.172a9.557,9.557,0,0,0-4.087-.424,17.414,17.414,0,0,0-10.911,4.866c-1.412,0-5.456-3.141-6-4.771s7.6-4.962,9.434-4.962c-.241-.586-1.588-.884-1.588-.884s-.3.055-.812.165c-1.936.417-6.89,1.635-10.051,3.678a9.928,9.928,0,0,0-1.282.96c-6.176,5.614-17.163,14.056-16.325,29.34,1.937,3.042,7.1,5.2,12.7,5.055a3,3,0,0,1-.2-.333c-2.567-5.311,7.027-7.875,8.091-10.47s1.362-11.139,9.6-16.407a6.162,6.162,0,0,1,.851-.456c3.3-2.83,7.831-4.817,12.34-2.885-.718-1.425-.233-1.661-1.43-2.3" transform="translate(-25.612 -25.292)" fill="#292e3f"/>
        <path id="Path_61345" data-name="Path 61345" d="M142.25,156.37c-1.064,2.6-10.658,5.159-8.091,10.47a3.128,3.128,0,0,0,.2.333,17.852,17.852,0,0,0,16.518-11.16,3.646,3.646,0,0,1-3.435-2.994,14.68,14.68,0,0,1,.389-6.78,12.391,12.391,0,0,1,2.55-4.392,20.138,20.138,0,0,1,2.321-2.341,6.162,6.162,0,0,0-.851.456c-8.236,5.268-8.534,13.812-9.6,16.407" transform="translate(-28.962 -28.215)" fill="#171c2b"/>
        <path id="Path_61346" data-name="Path 61346" d="M171.957,103.388l-.006.278c.751,2.85-2.917,7.686-7.709,9.525,5.718-4.122,7.231-7.926,6.138-10.151s-10.584.069-12.154,8.413c0-6.325,5.97-12.067,11.96-10.9a5.962,5.962,0,0,1,1.011,1.071,3.427,3.427,0,0,1,.754,1.766h.006" transform="translate(-34.269 -20.306)" fill="#ba451c"/>
        <path id="Path_61347" data-name="Path 61347" d="M154.853,110.871a9.638,9.638,0,0,1-2.117-1.669c.342-8.065,5.478-10.36,10.728-10.638a10.314,10.314,0,0,1,1.158.008c-6.835.79-9.587,7.005-9.769,12.3" transform="translate(-33.08 -19.932)" fill="#ba451c"/>
      </g>
    </g>
  </g>
</svg>
