<?xml version="1.0" encoding="utf-8"?>
<!-- Generator: Adobe Illustrator 27.8.1, SVG Export Plug-In . SVG Version: 6.00 Build 0)  -->
<svg version="1.1" id="Layer_1" xmlns="http://www.w3.org/2000/svg" xmlns:xlink="http://www.w3.org/1999/xlink" x="0px" y="0px"
	 viewBox="0 0 277.7 225.2" style="enable-background:new 0 0 277.7 225.2;" xml:space="preserve">
<style type="text/css">
	.st0{opacity:0.1;fill:#848484;}
	.st1{fill:#171C2B;}
	.st2{fill:#D18224;}
	.st3{fill:#FBB03B;}
	.st4{fill:#FFD55F;}
	.st5{fill:#CEAE64;}
	.st6{fill:#292E3F;}
	.st7{fill:#151821;}
	.st8{fill:#F2F2F2;}
	.st9{fill:#6F81A5;}
	.st10{opacity:0.1;fill:url(#SVGID_1_);}
	.st11{opacity:0.5;}
	.st12{fill:url(#SVGID_00000124873589068993025210000014281088483313476253_);}
	.st13{opacity:0.4;fill:url(#SVGID_00000041268960410002605810000017561282139905065912_);}
	.st14{opacity:0.4;fill:url(#SVGID_00000147209310442502950120000004094374765499179675_);}
	.st15{opacity:0.7;fill:url(#SVGID_00000029018557185286608710000016798977570608473225_);}
	.st16{fill:#80AAE5;}
	.st17{fill:#DFE8FF;}
	.st18{fill:#0D43C0;}
	.st19{fill:#5B6989;}
	.st20{fill:#6D82AD;}
	.st21{fill:#5593E2;}
	.st22{fill:#0D4BC5;}
	.st23{fill:#1E76D2;}
	.st24{fill:#3980DB;}
	.st25{fill:#BC842C;}
	.st26{fill:#FFFFFF;}
	.st27{opacity:0.1;}
	.st28{fill:#848484;}
	.st29{fill:#D66C3E;}
	.st30{fill:#FFB061;}
	.st31{fill:#131C2A;}
	.st32{fill:#86FFEA;}
	.st33{fill:url(#SVGID_00000157288145279353104590000011645701385217320859_);}
	.st34{fill:url(#SVGID_00000119828973470762854470000003564817626161187747_);}
	.st35{opacity:0.5;fill:#C2E2FF;}
	.st36{fill:#D9D5D0;}
	.st37{fill:#ED844F;}
	.st38{opacity:0.2;fill:#848484;}
	.st39{fill:#5E4A31;}
	.st40{fill:#876A40;}
	.st41{fill:#C69B67;}
	.st42{fill:#3A82EB;}
	.st43{fill:#5592E1;}
	.st44{opacity:0.5;fill:#5592E1;}
	.st45{opacity:0.2;fill:#5592E1;}
	.st46{fill:#FBE2B8;}
	.st47{fill:#231F20;}
	.st48{opacity:0.4;fill:#5592E1;}
	.st49{opacity:0.5;fill:#BFC6D4;}
	.st50{fill:#E3C095;}
	.st51{fill:#C8A376;}
	.st52{fill:#A48157;}
</style>
<g>
	<g id="_x39__00000054961767227625284870000007688498989099560120_">
		<polygon class="st0" points="45.4,97 11.2,116.8 8.9,123 54.3,149.2 85.3,149.3 		"/>
		<path class="st1" d="M62.1,113.9c-2.3-2.4-5-3.5-7.5-2.3l0.4-0.2c0,0-1.3,0.8-1.3,0.8l-6.1,3.5c-4.1,12.2,4.5,22.8,13.8,23.6
			c0,0,6.1-3.5,6.1-3.6c1.6-1,2.7-3.2,2.7-6.1C70.1,124,66.7,117.5,62.1,113.9z"/>
		<g>
			<polygon class="st2" points="124.4,86.9 85.3,109.6 85.3,146 124.5,123.3 			"/>
			<polygon class="st3" points="85.3,109.6 85.3,146 39.9,119.8 39.9,83.4 			"/>
		</g>
		<polygon class="st4" points="79.1,60.7 68.3,62 61.3,66.1 61.3,67.5 50.6,74.7 48.5,73.5 42.1,77.2 39.9,83.4 85.3,109.6 
			124.4,86.9 		"/>
		<g id="Axonometric_Cube_00000016797623251297046630000006034046535384553129_">
			<polygon id="Cube_face_-_left_00000090977178079667081380000017554760568556051349_" class="st2" points="85.6,89.6 88,91.1 
				88,108 85.6,106.6 			"/>
			<polygon id="Cube_face_-_right_00000018208647747726173810000016679919059630213038_" class="st3" points="93.7,104.8 88,108 
				88,91.1 93.7,87.8 			"/>
			<polygon id="Cube_face_-_top_00000181063039521607046880000016797424157547175311_" class="st5" points="88,91.1 85.6,89.6 
				91.2,86.4 93.7,87.8 			"/>
		</g>
		<g id="Axonometric_Cube_00000068678113325781773620000007203534678572163994_">
			<polygon id="Cube_face_-_left_00000137826384050221449230000016645929133983697051_" class="st2" points="113.9,73.3 116.4,74.7 
				116.4,91.7 113.9,90.2 			"/>
			<polygon id="Cube_face_-_right_00000165204660164945689600000009552313853367279292_" class="st3" points="122.1,88.4 
				116.4,91.7 116.4,74.7 122.1,71.4 			"/>
			<polygon id="Cube_face_-_top_00000064323319705540236760000014421829371659093427_" class="st5" points="116.4,74.7 113.9,73.3 
				119.6,70 122.1,71.4 			"/>
		</g>
		<g>
			<polygon class="st1" points="124.4,114.1 85.3,136.8 85.3,149.3 124.5,126.6 			"/>
			<polygon class="st6" points="85.3,136.8 85.3,149.3 39.9,123.1 39.9,110.6 			"/>
		</g>
		<polygon class="st3" points="61.3,66.1 61.3,69.2 63.9,67.6 		"/>
		<path class="st6" d="M59.9,67.8L49.3,74l1.9,1.1l12.8-7.4c0,0-0.8-0.3-1.8-0.4C61.4,67.2,60.6,67.4,59.9,67.8z"/>
		<g>
			<path id="Cylinder_face_00000014620903943607781260000002484132341146826117_" class="st7" d="M64.1,133c0,6.2-4.3,8.6-9.6,5.6
				c-5.3-3.1-9.6-10.6-9.6-16.7c0-6.2,4.3-8.6,9.6-5.6S64.1,126.9,64.1,133z"/>
			<g>
				<path class="st8" d="M54.4,133.7c-2.9-1.6-5.2-5.6-5.3-8.9c0-3.3,2.2-4.8,5.1-3.2c2.9,1.6,5.2,5.6,5.3,8.9
					C59.5,133.8,57.3,135.2,54.4,133.7z"/>
			</g>
		</g>
		<g>
			<polygon class="st9" points="108.3,93.3 110.9,94.8 110.9,102.3 			"/>
			<path class="st3" d="M108.3,93.3l-12.8,7.4l2.6,1.5v7.5l12.8-7.4v-4.5C110.9,95.9,109.9,94.2,108.3,93.3z"/>
			<linearGradient id="SVGID_1_" gradientUnits="userSpaceOnUse" x1="108.2837" y1="97.7707" x2="110.9326" y2="97.7707">
				<stop  offset="0" style="stop-color:#7E80A1"/>
				<stop  offset="1" style="stop-color:#6D748A"/>
			</linearGradient>
			<path class="st10" d="M108.3,93.3l0,7.5l2.6,1.5v-4.5C110.9,95.9,109.9,94.2,108.3,93.3z"/>
			<g class="st11">
				
					<radialGradient id="SVGID_00000034809524999664852840000003122519436676093843_" cx="426.4141" cy="191.9686" r="2.133" gradientTransform="matrix(0.5 -0.866 0.866 0.5 -276.9072 373.3001)" gradientUnits="userSpaceOnUse">
					<stop  offset="0" style="stop-color:#212635"/>
					<stop  offset="0.3294" style="stop-color:#000000"/>
					<stop  offset="0.4439" style="stop-color:#000000"/>
					<stop  offset="0.6252" style="stop-color:#000000"/>
					<stop  offset="1" style="stop-color:#000000"/>
				</radialGradient>
				<path style="fill:url(#SVGID_00000034809524999664852840000003122519436676093843_);" d="M103.2,99c-0.7,0.4-1.3,1.4-1.3,2.3
					c0,0.8,0.6,1.2,1.3,0.8c0.7-0.4,1.3-1.4,1.3-2.3C104.6,98.9,104,98.6,103.2,99z"/>
				
					<linearGradient id="SVGID_00000087399994349614394940000005551573656208721320_" gradientUnits="userSpaceOnUse" x1="427.2941" y1="191.247" x2="425.549" y2="194.049" gradientTransform="matrix(0.5 -0.866 0.866 0.5 -276.9072 373.3001)">
					<stop  offset="0" style="stop-color:#7E80A1"/>
					<stop  offset="1" style="stop-color:#6D748A"/>
				</linearGradient>
				<path style="opacity:0.4;fill:url(#SVGID_00000087399994349614394940000005551573656208721320_);" d="M103.2,98.3
					c1-0.6,1.8-0.1,1.8,1.1c0,1.2-0.8,2.6-1.8,3.2c-1,0.6-1.8,0.1-1.8-1.1S102.2,98.9,103.2,98.3z"/>
				
					<linearGradient id="SVGID_00000093154038365574775010000003544213301831491486_" gradientUnits="userSpaceOnUse" x1="427.1719" y1="191.1709" x2="425.4269" y2="193.9728" gradientTransform="matrix(0.5 -0.866 0.866 0.5 -276.9072 373.3001)">
					<stop  offset="0" style="stop-color:#7E80A1"/>
					<stop  offset="1" style="stop-color:#6D748A"/>
				</linearGradient>
				<path style="opacity:0.4;fill:url(#SVGID_00000093154038365574775010000003544213301831491486_);" d="M101.5,100.8l2.3,1.3
					c0.4-0.4,0.8-1,1-1.6l-2.5-1.4C101.9,99.6,101.6,100.2,101.5,100.8z"/>
				
					<linearGradient id="SVGID_00000023278751150325642920000004029756220459137424_" gradientUnits="userSpaceOnUse" x1="425.9138" y1="192.1681" x2="426.7882" y2="192.1681" gradientTransform="matrix(0.5 -0.866 0.866 0.5 -276.9072 373.3001)">
					<stop  offset="0" style="stop-color:#666D80"/>
					<stop  offset="1" style="stop-color:#4D5364"/>
				</linearGradient>
				<path style="opacity:0.7;fill:url(#SVGID_00000023278751150325642920000004029756220459137424_);" d="M102.7,99.8
					c-0.2,0.1-0.3,0.3-0.3,0.5c0,0.2,0.1,0.3,0.3,0.2c0.2-0.1,0.3-0.3,0.3-0.5S102.9,99.7,102.7,99.8z"/>
			</g>
		</g>
		<g>
			<path class="st16" d="M121.7,95.8c0.2,0.2,0.6,0.1,0.9-0.3c0.3-0.4,0.4-0.8,0.2-1c-0.2-0.2-0.6-0.1-0.9,0.3
				C121.6,95.1,121.5,95.6,121.7,95.8z"/>
			<path class="st17" d="M121.6,93.5c0.2,0.3,0.7,0.1,1.1-0.3c0.4-0.4,0.5-1,0.3-1.3c-0.2-0.3-0.7-0.1-1.1,0.3
				C121.5,92.7,121.3,93.3,121.6,93.5z"/>
			<path class="st17" d="M121.6,91.1c0.2,0.3,0.7,0.1,1.1-0.3c0.4-0.4,0.5-1,0.3-1.3c-0.2-0.3-0.7-0.1-1.1,0.3
				C121.5,90.3,121.3,90.9,121.6,91.1z"/>
		</g>
		<g>
			<path class="st16" d="M87.2,115.7c0.2,0.2,0.6,0.1,0.9-0.3c0.3-0.4,0.4-0.8,0.2-1c-0.2-0.2-0.6-0.1-0.9,0.3
				C87.2,115,87.1,115.5,87.2,115.7z"/>
			<path class="st17" d="M87.1,113.4c0.2,0.3,0.7,0.1,1.1-0.3c0.4-0.4,0.5-1,0.3-1.3c-0.2-0.3-0.7-0.1-1.1,0.3
				C87,112.6,86.9,113.2,87.1,113.4z"/>
			<path class="st17" d="M87.1,111c0.2,0.3,0.7,0.1,1.1-0.3c0.4-0.4,0.5-1,0.3-1.3c-0.2-0.3-0.7-0.1-1.1,0.3
				C87,110.2,86.9,110.8,87.1,111z"/>
		</g>
		<polygon class="st6" points="91.8,143.6 90.1,144.6 90.1,93.8 91.8,92.9 		"/>
		<polygon class="st18" points="120.1,127.3 118.5,128.2 118.5,77.5 120.1,76.5 		"/>
		<g>
			<g id="Axonometric_Cube_00000099656618982600759490000008107507952521417618_">
				<polygon id="Cube_face_-_left_00000119816059860349809180000004716071823749533825_" class="st6" points="89.1,152.7 
					87.2,151.6 87.2,136.7 89.1,137.8 				"/>
				<polygon id="Cube_face_-_right_00000109013781775604095790000016806128356059932054_" class="st19" points="94.1,149.8 
					89.1,152.7 89.1,137.8 94.1,134.9 				"/>
				<polygon id="Cube_face_-_top_00000065059894307112270730000004993355810564701864_" class="st20" points="89.1,137.8 
					87.2,136.7 92.2,133.8 94.1,134.9 				"/>
			</g>
			<g id="Axonometric_Cube_00000160893815451508372180000007250329022220220853_">
				<polygon id="Cube_face_-_left_00000120557663628150489810000008551417416439064458_" class="st6" points="149.3,187.4 
					89.1,152.7 89.1,150.4 133.9,176.3 				"/>
				<polygon id="Cube_face_-_right_00000023988228047970302500000012524529719479207559_" class="st21" points="154.3,184.6 
					149.3,187.4 133.9,176.3 138.9,173.4 				"/>
				<polygon id="Cube_face_-_top_00000071529750068029712450000001796127206489529531_" class="st19" points="133.9,176.3 
					89.1,150.4 94.1,147.6 138.9,173.4 				"/>
			</g>
		</g>
		<g>
			<g id="Axonometric_Cube_00000074432181237273758920000009550011062354957454_">
				<polygon id="Cube_face_-_left_00000111871071941337802210000002202455922847271323_" class="st22" points="119.6,135.1 
					117.7,134 117.7,119.1 119.6,120.2 				"/>
				<polygon id="Cube_face_-_right_00000032644932576802249320000016558890982787723161_" class="st23" points="124.6,132.2 
					119.6,135.1 119.6,120.2 124.6,117.3 				"/>
				<polygon id="Cube_face_-_top_00000133499748848841715780000004754631526276052144_" class="st21" points="119.6,120.2 
					117.7,119.1 122.7,116.2 124.6,117.3 				"/>
			</g>
			<g id="Axonometric_Cube_00000012464803672666704430000003055052638073238716_">
				<polygon id="Cube_face_-_left_00000140006232389342930650000001514714894064817803_" class="st22" points="179.8,169.8 
					119.6,135.1 119.6,132.8 164.4,158.7 				"/>
				<polygon id="Cube_face_-_right_00000059285750476794837080000004459882512292846771_" class="st21" points="184.8,166.9 
					179.8,169.8 164.4,158.7 169.4,155.8 				"/>
				<polygon id="Cube_face_-_top_00000054946565615995721120000014736290539632039608_" class="st24" points="164.4,158.7 
					119.6,132.8 124.6,129.9 169.4,155.8 				"/>
			</g>
		</g>
		<g>
			<path class="st3" d="M78,54.9v7.8c0,0.1,0.1,0.3,0.3,0.4c0.4,0.2,1,0.2,1.4,0c0.2-0.1,0.3-0.3,0.3-0.4v-7.8L78,54.9z"/>
			<g id="Axonometric_Cylinder_00000147214255178840467390000005786917993844967602_">
				<path class="st6" d="M77.3,53.8v0.9c0,0.2,0.2,0.5,0.5,0.7c0.6,0.4,1.7,0.4,2.3,0c0.3-0.2,0.5-0.5,0.5-0.7v-0.9L77.3,53.8z"/>
				<path id="Cylinder_face_00000145746310733213060620000000949835379504935568_" class="st25" d="M80.1,54.5
					c-0.6,0.4-1.7,0.4-2.3,0c-0.6-0.4-0.6-1,0-1.4c0.6-0.4,1.7-0.4,2.3,0C80.8,53.5,80.8,54.1,80.1,54.5z"/>
			</g>
			<g id="Axonometric_Cylinder_00000023981918665348135210000015155929262503895970_">
				<path class="st4" d="M77.5,50.5v3.2c0,0.2,0.2,0.5,0.4,0.6c0.6,0.4,1.5,0.4,2.1,0c0.3-0.2,0.4-0.4,0.4-0.6v-3.2L77.5,50.5z"/>
			</g>
			<g id="Axonometric_Cylinder_00000111895746760148470410000009374710330822526906_">
				<path class="st6" d="M77.5,47.4v3.2c0,0.2,0.2,0.5,0.4,0.6c0.6,0.4,1.5,0.4,2.1,0c0.3-0.2,0.4-0.4,0.4-0.6v-3.2L77.5,47.4z"/>
			</g>
			<g id="Axonometric_Cylinder_00000063593667226564006840000001447438076303702974_">
				<path class="st4" d="M77.5,44.4v3.2c0,0.2,0.2,0.5,0.4,0.6c0.6,0.4,1.5,0.4,2.1,0c0.3-0.2,0.4-0.4,0.4-0.6v-3.2L77.5,44.4z"/>
				<path id="Cylinder_face_00000004513655956980690010000014542319694660754051_" class="st26" d="M80,45c-0.6,0.4-1.5,0.4-2.1,0
					c-0.6-0.4-0.6-0.9,0-1.3c0.6-0.4,1.5-0.4,2.1,0C80.6,44.1,80.6,44.7,80,45z"/>
			</g>
		</g>
		<path class="st26" d="M92.7,78.2l-22.6,13c-1.1,0.6-2.9,0.6-4,0l-7.7-4.4c-1.1-0.6-1.1-1.7,0-2.3l22.6-13c1.1-0.6,2.9-0.6,4,0
			l7.7,4.4C93.8,76.5,93.8,77.6,92.7,78.2z"/>
	</g>
</g>
<g>
	<g class="st27">
		<g>
			<path class="st28" d="M272.7,161.9c1.8,1,1.8,2.7,0,3.8l-19.9,11.6c-1.8,1-4.7,1-6.5,0l-30.1-17.4c-1.8-1-1.8-2.7,0-3.8
				l19.9-11.6c1.8-1,4.7-1,6.5,0L272.7,161.9z"/>
		</g>
	</g>
	<g>
		<path class="st9" d="M233,159.4c-0.4-0.9-0.9-1.7-1.5-2.4c-0.5-0.6-1.1-1.1-1.7-1.5c-1.1-0.6-2.1-0.7-2.8-0.3l-2.9,1.7l5.6,9.7
			l2.9-1.7c0.7-0.4,1.2-1.3,1.2-2.5C233.7,161.4,233.5,160.4,233,159.4z"/>
		<g>
			<path class="st26" d="M214.8,148l0,6.9c0,0.7,0.5,1.4,1.4,1.9l30.1,17.4c1.8,1,4.7,1,6.5,0l19.9-11.6c0.9-0.5,1.3-1.2,1.3-1.9
				l0-6.9L214.8,148z"/>
		</g>
		<path class="st29" d="M214.8,145.3l0,2.7c0,0.7,0.5,1.4,1.4,1.9l30.1,17.4c1.8,1,4.7,1,6.5,0l19.9-11.6c0.9-0.5,1.4-1.2,1.4-1.9
			l0-2.7L214.8,145.3z"/>
		<g>
			<path class="st30" d="M272.7,149.3c1.8,1,1.8,2.7,0,3.8l-19.9,11.6c-1.8,1-4.7,1-6.5,0l-30.1-17.4c-1.8-1-1.8-2.7,0-3.8
				l19.9-11.6c1.8-1,4.7-1,6.5,0L272.7,149.3z"/>
		</g>
		<g>
			<path class="st31" d="M267.5,164.3l-9.8,5.7c-0.5,0.3-0.9,0.1-0.9-0.4v-2.5c0-0.5,0.4-1.1,0.9-1.4l9.8-5.7
				c0.5-0.3,0.9-0.1,0.9,0.4v2.5C268.4,163.4,268,164,267.5,164.3z"/>
			<g>
				<path class="st32" d="M260,166.7c0,0.3-0.3,0.7-0.6,0.8c-0.3,0.1-0.6,0-0.5-0.3c0-0.3,0.3-0.7,0.6-0.8
					C259.8,166.3,260,166.4,260,166.7z"/>
				
					<radialGradient id="SVGID_00000070807357341405836850000002280407208735623308_" cx="259.4371" cy="166.9972" r="3.3329" gradientUnits="userSpaceOnUse">
					<stop  offset="0" style="stop-color:#14A59D"/>
					<stop  offset="1.770025e-02" style="stop-color:#139E96"/>
					<stop  offset="0.1271" style="stop-color:#0E746E"/>
					<stop  offset="0.2428" style="stop-color:#0A504C"/>
					<stop  offset="0.3638" style="stop-color:#063330"/>
					<stop  offset="0.492" style="stop-color:#031C1B"/>
					<stop  offset="0.6306" style="stop-color:#010C0C"/>
					<stop  offset="0.7871" style="stop-color:#000303"/>
					<stop  offset="1" style="stop-color:#000000"/>
				</radialGradient>
				<path style="fill:url(#SVGID_00000070807357341405836850000002280407208735623308_);" d="M256.6,168.7c0.9,1.6,3,2.1,4.6,1.2
					c1.6-0.9,2.1-3,1.2-4.6c-0.9-1.6-3-2.1-4.6-1.2C256.2,165,255.6,167.1,256.6,168.7z"/>
			</g>
			<g>
				<path class="st32" d="M266.7,162.9c0,0.3-0.3,0.7-0.6,0.8c-0.3,0.1-0.6,0-0.5-0.3s0.3-0.7,0.6-0.8
					C266.4,162.4,266.7,162.6,266.7,162.9z"/>
				
					<radialGradient id="SVGID_00000016065748015723201010000000822709787958951091_" cx="266.0791" cy="163.1625" r="3.3329" gradientUnits="userSpaceOnUse">
					<stop  offset="0" style="stop-color:#14A59D"/>
					<stop  offset="1.770025e-02" style="stop-color:#139E96"/>
					<stop  offset="0.1271" style="stop-color:#0E746E"/>
					<stop  offset="0.2428" style="stop-color:#0A504C"/>
					<stop  offset="0.3638" style="stop-color:#063330"/>
					<stop  offset="0.492" style="stop-color:#031C1B"/>
					<stop  offset="0.6306" style="stop-color:#010C0C"/>
					<stop  offset="0.7871" style="stop-color:#000303"/>
					<stop  offset="1" style="stop-color:#000000"/>
				</radialGradient>
				<path style="fill:url(#SVGID_00000016065748015723201010000000822709787958951091_);" d="M263.2,164.8c0.9,1.6,3,2.1,4.6,1.2
					c1.6-0.9,2.1-3,1.2-4.6c-0.9-1.6-3-2.1-4.6-1.2C262.8,161.2,262.3,163.2,263.2,164.8z"/>
			</g>
		</g>
		<path class="st23" d="M226.9,157.2c-2.2-1.3-4-0.2-4,2.3c0,2.5,1.8,5.6,4,6.9c2.2,1.3,4,0.2,4-2.3
			C230.9,161.5,229.1,158.5,226.9,157.2z"/>
		<path class="st26" d="M226.9,157.9c-1.9-1.1-3.4-0.2-3.4,1.9c0,2.1,1.5,4.7,3.3,5.8c1.9,1.1,3.4,0.2,3.4-1.9
			C230.2,161.6,228.7,159,226.9,157.9z M226.9,165.2c-1.7-1-3-3.3-3-5.2c0-1.9,1.4-2.7,3-1.7c1.7,1,3,3.3,3,5.2
			C229.9,165.4,228.5,166.2,226.9,165.2z"/>
		<g>
			<polygon id="Cube_face_-_top_00000020399046257224235570000012678962722286953859_" class="st9" points="223.6,146.9 
				219.9,144.8 223.5,142.7 227.2,144.9 			"/>
			<polygon id="Cube_face_-_top_00000074401521112627142120000002059862928898021556_" class="st29" points="239.4,137.8 
				235.7,135.7 239.2,133.6 242.9,135.8 			"/>
			<polygon id="Cube_face_-_top_00000028312595996056377890000009375220429281068713_" class="st29" points="250.1,162.2 
				246.4,160.1 249.9,158 253.7,160.1 			"/>
			<polygon id="Cube_face_-_top_00000054263411570042811570000011225819030057976497_" class="st29" points="265.8,153.1 262.1,151 
				265.7,148.9 269.4,151 			"/>
		</g>
		<g>
			<g>
				<g id="Axonometric_Cube_00000039856283435367306280000007027126924421838758_">
					<polygon id="Cube_face_-_left_00000023990101389735130650000007205334534617499817_" class="st35" points="223.6,146.9 
						220.7,145.3 220.7,140.4 223.6,142.1 					"/>
					<polygon id="Cube_face_-_right_00000107571194518983740240000011758362791031004593_" class="st8" points="226.4,145.3 
						223.6,146.9 223.6,142.1 226.4,140.5 					"/>
					<polygon id="Cube_face_-_top_00000121980786300339556170000016517729651841706173_" class="st36" points="223.6,142.1 
						220.7,140.4 223.5,138.8 226.4,140.5 					"/>
				</g>
			</g>
			<g id="Axonometric_Cube_00000035520540506275684880000001738865256986185619_">
				<polygon id="Cube_face_-_left_00000053533164937843383000000014895162978414092730_" class="st35" points="223.6,143.5 
					219.6,141.1 219.6,140.4 223.6,142.7 				"/>
				<polygon id="Cube_face_-_right_00000069361414501193614950000005876992157794433193_" class="st8" points="227.5,141.2 
					223.6,143.5 223.6,142.7 227.5,140.5 				"/>
				<polygon id="Cube_face_-_top_00000181783022943811605630000014508859293831612331_" class="st26" points="223.6,142.7 
					219.6,140.4 223.4,138.1 227.5,140.5 				"/>
			</g>
		</g>
		<g>
			<g>
				<g id="Axonometric_Cube_00000143616869717915552070000018369140006311421088_">
					<polygon id="Cube_face_-_left_00000017503065707573597740000012276604493069052046_" class="st8" points="239.4,137.8 
						236.5,136.2 236.5,131.3 239.4,133 					"/>
					<polygon id="Cube_face_-_right_00000178891770299869330200000003934606889337648033_" class="st26" points="242.1,136.2 
						239.4,137.8 239.4,133 242.1,131.4 					"/>
					<polygon id="Cube_face_-_top_00000072988950530068693840000002839155274616146618_" class="st36" points="239.4,133 
						236.5,131.3 239.3,129.7 242.1,131.4 					"/>
				</g>
			</g>
			<g id="Axonometric_Cube_00000078019001750209308050000014757402714308528825_">
				<polygon id="Cube_face_-_left_00000041297001966228363880000002631788152903467401_" class="st35" points="239.4,134.4 
					235.3,132 235.3,131.3 239.4,133.6 				"/>
				<polygon id="Cube_face_-_right_00000122699783228450627940000007347606935213198476_" class="st8" points="243.3,132.1 
					239.4,134.4 239.4,133.6 243.3,131.4 				"/>
				<polygon id="Cube_face_-_top_00000062912676911989261570000017416586821531266487_" class="st26" points="239.4,133.6 
					235.3,131.3 239.2,129 243.3,131.4 				"/>
			</g>
		</g>
		<g>
			<g>
				<path class="st37" d="M241,139.5l18.6,10.7c0.4,0.3,1.1,0.3,1.6,0c0.4-0.3,0.4-0.7,0-0.9l-18.6-10.7c-0.4-0.3-1.1-0.3-1.6,0
					C240.6,138.8,240.6,139.2,241,139.5z"/>
				<path class="st29" d="M241,138.8c0.4-0.3,1.1-0.3,1.6,0l18.6,10.7c0.2,0.1,0.2,0.2,0.3,0.3c0.1-0.2,0-0.4-0.3-0.6l-18.6-10.7
					c-0.4-0.3-1.1-0.3-1.6,0c-0.3,0.2-0.4,0.4-0.3,0.6C240.8,139,240.9,138.9,241,138.8z"/>
			</g>
			<g>
				<path class="st37" d="M237.9,141.3l18.6,10.7c0.4,0.3,1.1,0.3,1.6,0c0.4-0.3,0.4-0.7,0-0.9l-18.6-10.7c-0.4-0.3-1.1-0.3-1.6,0
					C237.5,140.6,237.5,141,237.9,141.3z"/>
				<path class="st29" d="M237.9,140.6c0.4-0.3,1.1-0.3,1.6,0l18.6,10.7c0.2,0.1,0.2,0.2,0.3,0.3c0.1-0.2,0-0.4-0.3-0.6l-18.6-10.7
					c-0.4-0.3-1.1-0.3-1.6,0c-0.3,0.2-0.4,0.4-0.3,0.6C237.7,140.8,237.8,140.7,237.9,140.6z"/>
			</g>
			<g>
				<path class="st37" d="M234.8,143.1l18.6,10.7c0.4,0.3,1.1,0.3,1.6,0c0.4-0.3,0.4-0.7,0-0.9l-18.6-10.7c-0.4-0.3-1.1-0.3-1.6,0
					C234.4,142.4,234.4,142.8,234.8,143.1z"/>
				<path class="st29" d="M234.8,142.4c0.4-0.3,1.1-0.3,1.6,0l18.6,10.7c0.2,0.1,0.2,0.2,0.3,0.3c0.1-0.2,0-0.4-0.3-0.6l-18.6-10.7
					c-0.4-0.3-1.1-0.3-1.6,0c-0.3,0.2-0.4,0.4-0.3,0.6C234.6,142.6,234.7,142.5,234.8,142.4z"/>
			</g>
			<g>
				<path class="st37" d="M231.7,144.8l18.6,10.7c0.4,0.3,1.1,0.3,1.6,0c0.4-0.3,0.4-0.7,0-0.9l-18.6-10.7c-0.4-0.3-1.1-0.3-1.6,0
					C231.3,144.2,231.3,144.6,231.7,144.8z"/>
				<path class="st29" d="M231.7,144.2c0.4-0.3,1.1-0.3,1.6,0l18.6,10.7c0.2,0.1,0.2,0.2,0.3,0.3c0.1-0.2,0-0.4-0.3-0.6l-18.6-10.7
					c-0.4-0.3-1.1-0.3-1.6,0c-0.3,0.2-0.4,0.4-0.3,0.6C231.5,144.4,231.6,144.3,231.7,144.2z"/>
			</g>
			<g>
				<path class="st37" d="M228.6,146.6l18.6,10.7c0.4,0.3,1.1,0.3,1.6,0c0.4-0.3,0.4-0.7,0-0.9l-18.6-10.7c-0.4-0.3-1.1-0.3-1.6,0
					C228.2,146,228.2,146.4,228.6,146.6z"/>
				<path class="st29" d="M228.6,146c0.4-0.3,1.1-0.3,1.6,0l18.6,10.7c0.2,0.1,0.2,0.2,0.3,0.3c0.1-0.2,0-0.4-0.3-0.6l-18.6-10.7
					c-0.4-0.3-1.1-0.3-1.6,0c-0.3,0.2-0.4,0.4-0.3,0.6C228.4,146.2,228.5,146.1,228.6,146z"/>
			</g>
		</g>
		<g>
			<g>
				<g id="Axonometric_Cube_00000096047656809434587540000012636937717400276650_">
					<polygon id="Cube_face_-_left_00000145057816738766716990000000471130426818081163_" class="st8" points="250.1,162.2 
						247.2,160.5 247.2,155.7 250.1,157.4 					"/>
					<polygon id="Cube_face_-_right_00000024681400151930723040000008816276914603353496_" class="st26" points="252.8,160.6 
						250.1,162.2 250.1,157.4 252.8,155.8 					"/>
					<polygon id="Cube_face_-_top_00000124858167686626959340000014603742733447103394_" class="st36" points="250.1,157.4 
						247.2,155.7 250,154.1 252.8,155.8 					"/>
				</g>
			</g>
			<g id="Axonometric_Cube_00000114046652218522867970000001199162347627554975_">
				<polygon id="Cube_face_-_left_00000098908606295151463570000015812677516736510100_" class="st26" points="250.1,158.8 
					246,156.4 246,155.6 250.1,158 				"/>
				<polygon id="Cube_face_-_right_00000031179799939849503180000017657156595078101642_" class="st8" points="254,156.5 
					250.1,158.8 250.1,158 254,155.8 				"/>
				<polygon id="Cube_face_-_top_00000080926652305174767510000014516502352060096183_" class="st26" points="250.1,158 246,155.6 
					249.9,153.4 254,155.8 				"/>
			</g>
		</g>
		<g>
			<g>
				<g id="Axonometric_Cube_00000070820384799732291050000005572078556301778833_">
					<polygon id="Cube_face_-_left_00000018194875993905425550000010154924621494458242_" class="st8" points="265.8,153.1 
						263,151.4 263,146.6 265.8,148.3 					"/>
					<polygon id="Cube_face_-_right_00000062875966306083198300000010693168642776097671_" class="st26" points="268.6,151.5 
						265.8,153.1 265.8,148.3 268.6,146.7 					"/>
					<polygon id="Cube_face_-_top_00000151534330524734438180000003841567487139789247_" class="st36" points="265.8,148.3 
						263,146.6 265.7,145 268.6,146.7 					"/>
				</g>
			</g>
			<g id="Axonometric_Cube_00000080199503431723288980000012532043775423735442_">
				<polygon id="Cube_face_-_left_00000080923881298069482880000011636995372613011636_" class="st26" points="265.8,149.7 
					261.8,147.3 261.8,146.5 265.8,148.9 				"/>
				<polygon id="Cube_face_-_right_00000102510759747895610640000007378262364389959101_" class="st8" points="269.7,147.4 
					265.8,149.7 265.8,148.9 269.7,146.7 				"/>
				<polygon id="Cube_face_-_top_00000133522487418129492740000006245094119858919358_" class="st26" points="265.8,148.9 
					261.8,146.5 265.7,144.3 269.7,146.7 				"/>
			</g>
		</g>
		<g>
			<polygon id="Cube_face_-_top_00000103230067760702036290000003558223246391026306_" class="st1" points="265.8,148.6 
				262.2,146.5 265.7,144.6 269.3,146.6 			"/>
			<polygon id="Cube_face_-_top_00000046302752094886103340000005975949886120285066_" class="st1" points="250.1,157.7 
				246.5,155.6 249.9,153.7 253.5,155.7 			"/>
			<polygon id="Cube_face_-_top_00000037682931234199986710000003808421862890367891_" class="st1" points="239.4,133.4 
				235.8,131.3 239.2,129.3 242.9,131.4 			"/>
			<polygon id="Cube_face_-_top_00000003815902811693428960000009150584013321179304_" class="st22" points="223.6,142.5 220,140.4 
				223.5,138.4 227.1,140.5 			"/>
		</g>
		<path class="st37" d="M258.5,155.9c-0.7,0.4-0.7,1,0,1.4c0.7,0.4,1.8,0.4,2.5,0c0.7-0.4,0.7-1,0-1.4
			C260.3,155.5,259.2,155.5,258.5,155.9z M260.8,157.2c-0.6,0.3-1.5,0.3-2,0c-0.6-0.3-0.6-0.8,0-1.2c0.6-0.3,1.5-0.3,2,0
			C261.4,156.4,261.4,156.9,260.8,157.2z"/>
		<g>
			<g>
				<g>
					<g>
						<path class="st26" d="M264.5,126.5c-0.7,0-1.3-0.2-1.8-0.5c-1.3-0.7-2-2.3-2-4.4c0-4.2,3-9.4,6.6-11.5c1.8-1,3.5-1.2,4.8-0.5
							c1.3,0.7,2,2.3,2,4.4c0,4.2-3,9.4-6.6,11.5C266.4,126.1,265.4,126.5,264.5,126.5z M267.4,110.4c-3.6,2.1-6.5,7.2-6.5,11.3
							c0,2,0.7,3.4,1.9,4.1c1.2,0.7,2.8,0.5,4.6-0.5c3.6-2.1,6.5-7.2,6.5-11.3c0-2-0.7-3.4-1.9-4.1
							C270.8,109.2,269.2,109.4,267.4,110.4L267.4,110.4z"/>
					</g>
				</g>
			</g>
			<path class="st26" d="M267.4,119.3c0.7-0.4,1.2-0.1,1.2,0.7c0,0.8-0.5,1.7-1.2,2.1c-0.7,0.4-1.2,0.1-1.2-0.7
				C266.2,120.6,266.8,119.7,267.4,119.3z M265.1,120.5l0.5,0.3c0.1-1.1,0.9-2.4,1.8-2.9c0.9-0.5,1.7-0.2,1.9,0.8l0.5-0.9
				c-0.3-1-1.3-1.3-2.4-0.6C266.3,117.7,265.4,119.1,265.1,120.5z M264,119.9l0.5,0.3c0.5-1.6,1.6-3.1,2.9-3.9
				c1.3-0.7,2.4-0.5,2.9,0.5l0.5-0.8c-0.6-1-1.9-1.2-3.4-0.4C266,116.4,264.7,118.1,264,119.9z M263.1,119.3l0.5,0.3
				c0.8-2,2.2-3.8,3.9-4.8c1.7-1,3.1-0.8,3.9,0.3l0.5-0.8c-0.9-1.1-2.5-1.3-4.4-0.2C265.6,115.1,264,117.2,263.1,119.3z"/>
			<g>
				<path class="st26" d="M266.4,140.7c-0.1,0-0.1-0.1-0.1-0.1V126c0-0.1,0.1-0.1,0.1-0.1c0.1,0,0.1,0.1,0.1,0.1v14.6
					C266.6,140.7,266.5,140.7,266.4,140.7z"/>
			</g>
			<path class="st26" d="M267,140.6c0,0.3-0.3,0.6-0.6,0.6c-0.3,0-0.6-0.3-0.6-0.6c0-0.3,0.3-0.6,0.6-0.6
				C266.8,140,267,140.3,267,140.6z"/>
		</g>
	</g>
</g>
<g>
	<polygon class="st38" points="202.6,164.2 154.5,136.4 143.5,136.4 95.5,164.2 143.5,191.9 154.5,191.9 	"/>
	<g>
		<g>
			<polygon class="st39" points="95.5,162.6 101.2,159.3 149.3,187 149.3,188.6 143.5,191.9 95.5,164.2 			"/>
			<polygon class="st40" points="143.5,190.4 143.5,191.9 95.5,164.2 95.5,162.6 			"/>
			<polygon class="st41" points="149.3,187 149.3,188.6 143.5,191.9 143.5,190.4 			"/>
		</g>
		<g>
			<polygon class="st42" points="143.6,175.7 137.8,179 137.8,187 143.5,190.4 149.3,187 149.3,179 			"/>
			<polygon class="st40" points="137.8,179 137.8,187 143.5,190.4 143.5,182.3 			"/>
			<polygon class="st41" points="143.5,182.3 143.5,190.4 149.3,187 149.3,179 			"/>
		</g>
		<g>
			<polygon class="st42" points="101.2,151.3 95.5,154.6 95.5,162.6 101.2,165.9 107,162.6 107,154.6 			"/>
			<polygon class="st41" points="101.2,157.9 101.2,165.9 107,162.6 107,154.6 			"/>
			<polygon class="st40" points="95.5,154.6 95.5,162.6 101.2,165.9 101.2,157.9 			"/>
		</g>
		<g>
			<polygon class="st43" points="95.5,153 101.2,149.7 149.3,177.4 149.3,179 143.5,182.3 95.5,154.6 			"/>
			<polygon class="st39" points="149.3,177.4 101.2,149.7 95.5,153 143.5,180.8 			"/>
			<polygon class="st40" points="143.5,180.8 143.5,182.3 95.5,154.6 95.5,153 			"/>
			<polygon class="st41" points="149.3,177.4 149.3,179 143.5,182.3 143.5,180.8 			"/>
		</g>
		<g>
			<polygon class="st43" points="137.8,138.2 143.5,134.9 191.6,162.6 191.6,164.2 185.8,167.5 137.8,139.8 			"/>
			<polygon class="st44" points="185.8,165.9 185.8,167.5 137.8,139.8 137.8,138.2 			"/>
			<polygon class="st43" points="191.6,162.6 191.6,164.2 185.8,167.5 185.8,165.9 			"/>
		</g>
		<g>
			<polygon class="st42" points="185.9,151.3 180.1,154.6 180.1,162.6 185.8,165.9 191.6,162.6 191.6,154.6 			"/>
			<polygon class="st43" points="185.8,157.9 185.8,165.9 191.6,162.6 191.6,154.6 			"/>
			<polygon class="st44" points="180.1,154.6 180.1,162.6 185.8,165.9 185.8,157.9 			"/>
		</g>
		<g>
			<polygon class="st42" points="143.6,126.8 137.8,130.2 137.8,138.2 143.5,141.5 149.3,138.2 149.3,130.2 			"/>
			<polygon class="st43" points="143.5,133.5 143.5,141.5 149.3,138.2 149.3,130.2 			"/>
			<polygon class="st44" points="137.8,130.2 137.8,138.2 143.5,141.5 143.5,133.5 			"/>
		</g>
		<g>
			<polygon class="st43" points="137.8,128.6 143.5,125.3 191.6,153 191.6,154.6 185.8,157.9 137.8,130.2 			"/>
			<polygon class="st45" points="191.6,153 143.5,125.3 137.8,128.6 185.8,156.3 			"/>
			<polygon class="st44" points="185.8,156.3 185.8,157.9 137.8,130.2 137.8,128.6 			"/>
			<polygon class="st43" points="191.6,153 191.6,154.6 185.8,157.9 185.8,156.3 			"/>
		</g>
		<g>
			<g>
				<polygon class="st46" points="149.3,127 143.5,123.7 95.5,151.4 95.5,153 101.2,156.3 149.3,128.6 				"/>
				<polygon class="st40" points="101.2,154.8 101.2,156.3 149.3,128.6 149.3,127 				"/>
				<polygon class="st41" points="95.5,151.4 95.5,153 101.2,156.3 101.2,154.8 				"/>
			</g>
			<g>
				<polygon class="st46" points="157.8,131.9 152.1,128.6 104,156.4 104,158 109.8,161.3 157.8,133.5 				"/>
				<polygon class="st40" points="109.8,159.7 109.8,161.3 157.8,133.5 157.8,131.9 				"/>
				<polygon class="st41" points="104,156.4 104,158 109.8,161.3 109.8,159.7 				"/>
			</g>
			<g>
				<polygon class="st46" points="166.3,136.8 160.5,133.5 112.5,161.2 112.5,162.8 118.2,166.1 166.3,138.4 				"/>
				<polygon class="st40" points="118.2,164.6 118.2,166.1 166.3,138.4 166.3,136.8 				"/>
				<polygon class="st41" points="112.5,161.2 112.5,162.8 118.2,166.1 118.2,164.6 				"/>
			</g>
			<g>
				<polygon class="st46" points="174.7,141.7 169,138.4 120.9,166.1 120.9,167.7 126.7,171 174.7,143.3 				"/>
				<polygon class="st40" points="126.7,169.4 126.7,171 174.7,143.3 174.7,141.7 				"/>
				<polygon class="st41" points="120.9,166.1 120.9,167.7 126.7,171 126.7,169.4 				"/>
			</g>
			<g>
				<polygon class="st46" points="183.2,146.6 177.4,143.2 129.3,171 129.3,172.6 135.1,175.9 183.2,148.1 				"/>
				<polygon class="st40" points="135.1,174.3 135.1,175.9 183.2,148.1 183.2,146.6 				"/>
				<polygon class="st41" points="129.3,171 129.3,172.6 135.1,175.9 135.1,174.3 				"/>
			</g>
			<g>
				<polygon class="st46" points="191.6,151.4 185.8,148.1 137.8,175.9 137.8,177.4 143.5,180.8 191.6,153 				"/>
				<polygon class="st40" points="143.5,179.2 143.5,180.8 191.6,153 191.6,151.4 				"/>
				<polygon class="st41" points="137.8,175.9 137.8,177.4 143.5,180.8 143.5,179.2 				"/>
			</g>
		</g>
	</g>
	<g>
		<g>
			<g>
				<polygon class="st26" points="164.6,118.2 144,106.3 123.4,118.2 123.4,137.9 144,149.8 164.6,137.9 				"/>
				<polygon class="st45" points="123.4,118.2 123.4,137.9 144,149.8 144,130.1 				"/>
				<polygon class="st47" points="136.6,140.9 136.6,143.6 142.3,146.9 142.3,144.2 				"/>
				<polygon class="st48" points="144,130.1 144,149.8 164.6,137.9 164.6,118.2 				"/>
				<polygon class="st47" points="136,110.9 131.3,113.6 152,125.5 152,134.5 156.7,131.7 156.7,122.8 				"/>
				<polygon class="st49" points="152,125.5 152,134.5 156.7,131.7 156.7,122.8 				"/>
			</g>
			<g>
				<polygon class="st26" points="125.3,122.7 129.1,124.8 129.1,129.4 125.3,127.2 				"/>
				<g>
					<polygon class="st47" points="127.2,125.6 127.2,126 126.8,125.8 126.8,125.4 					"/>
					<path class="st47" d="M126.4,125.2l0.4,0.2v-0.9l-0.8-0.4v0.9v0.4l0.4,0.2V125.2z M126.3,124.8v-0.4l0.4,0.2v0.4L126.3,124.8z"
						/>
					<polygon class="st47" points="128.4,128 128,127.8 128,127.4 128.4,127.6 					"/>
					<path class="st47" d="M127.6,126.3v0.4l-0.8-0.4v-0.4l-0.4-0.2v0.4l-0.4-0.2v0.9l0.8,0.4v-0.4l0.4,0.2v0.4l0.4,0.2v-0.4
						l0.4,0.2v-0.4l0.4,0.2v-0.4l-0.4-0.2L127.6,126.3z M126.6,126.8l-0.4-0.2v-0.4l0.4,0.2V126.8z"/>
					<path class="st47" d="M127.6,125.8l0.8,0.4v-0.9l-0.8-0.4V125.8z M127.8,125.3l0.4,0.2v0.4l-0.4-0.2V125.3z"/>
					<path class="st47" d="M125.8,123.5v3.3l2.9,1.7v-3.3L125.8,123.5z M125.9,123.8l2.6,1.5v3l-2.6-1.5V123.8z"/>
				</g>
			</g>
		</g>
		<g>
			<g>
				<polygon class="st26" points="189.1,132.6 168.5,120.7 147.9,132.6 147.9,152.3 168.5,164.2 189.1,152.3 				"/>
				<polygon class="st45" points="147.9,132.6 147.9,152.3 168.5,164.2 168.5,144.5 				"/>
				<polygon class="st47" points="161.1,155.3 161.1,158 166.8,161.4 166.8,158.6 				"/>
				<polygon class="st48" points="168.5,144.5 168.5,164.2 189.1,152.3 189.1,132.6 				"/>
				<polygon class="st47" points="160.5,125.3 155.8,128 176.5,139.9 176.5,148.9 181.2,146.2 181.2,137.2 				"/>
				<polygon class="st49" points="176.5,139.9 176.5,148.9 181.2,146.2 181.2,137.2 				"/>
			</g>
			<g>
				<polygon class="st26" points="149.8,137.1 153.6,139.3 153.6,143.8 149.8,141.7 				"/>
				<g>
					<polygon class="st47" points="151.7,140 151.7,140.5 151.3,140.2 151.3,139.8 					"/>
					<path class="st47" d="M150.9,139.6l0.4,0.2v-0.9l-0.8-0.4v0.9v0.4l0.4,0.2V139.6z M150.8,139.2v-0.4l0.4,0.2v0.4L150.8,139.2z"
						/>
					<polygon class="st47" points="152.9,142.4 152.5,142.2 152.5,141.8 152.9,142 					"/>
					<path class="st47" d="M152.1,140.7v0.4l-0.8-0.4v-0.4l-0.4-0.2v0.4l-0.4-0.2v0.9l0.8,0.4v-0.4l0.4,0.2v0.4l0.4,0.2v-0.4
						l0.4,0.2v-0.4l0.4,0.2v-0.4l-0.4-0.2L152.1,140.7z M151.1,141.2l-0.4-0.2v-0.4l0.4,0.2V141.2z"/>
					<path class="st47" d="M152.1,140.2l0.8,0.4v-0.9l-0.8-0.4V140.2z M152.3,139.7l0.4,0.2v0.4l-0.4-0.2V139.7z"/>
					<path class="st47" d="M150.3,137.9v3.3l2.9,1.7v-3.3L150.3,137.9z M150.4,138.2l2.6,1.5v3l-2.6-1.5V138.2z"/>
				</g>
			</g>
		</g>
		<g>
			<g>
				<polygon class="st50" points="141.5,131.7 120.9,119.8 100.3,131.6 100.3,151.3 120.9,163.2 141.5,151.4 				"/>
				<polygon class="st51" points="100.3,131.6 100.3,151.3 120.9,163.2 120.9,143.6 				"/>
				<polygon class="st26" points="113.5,154.4 113.5,157.1 119.2,160.4 119.2,157.7 				"/>
				<polygon class="st52" points="120.9,143.6 120.9,163.2 141.5,151.4 141.5,131.7 				"/>
				<polygon class="st47" points="113,124.3 108.2,127.1 128.9,139 128.9,147.9 133.6,145.2 133.6,136.3 				"/>
				<polygon class="st49" points="128.9,139 128.9,147.9 133.6,145.2 133.6,136.3 				"/>
			</g>
			<g>
				<polygon class="st26" points="102.2,136.1 106,138.3 106,142.9 102.2,140.7 				"/>
				<g>
					<polygon points="104.1,139.1 104.1,139.5 103.7,139.3 103.7,138.8 					"/>
					<path d="M103.3,138.6l0.4,0.2V138l-0.8-0.4v0.9v0.4l0.4,0.2V138.6z M103.2,138.3v-0.4l0.4,0.2v0.4L103.2,138.3z"/>
					<polygon points="105.3,141.5 104.9,141.3 104.9,140.8 105.3,141.1 					"/>
					<path d="M104.5,139.7v0.4l-0.8-0.4v-0.4l-0.4-0.2v0.4l-0.4-0.2v0.9l0.8,0.4v-0.4l0.4,0.2v0.4l0.4,0.2v-0.4l0.4,0.2v-0.4
						l0.4,0.2v-0.4l-0.4-0.2L104.5,139.7z M103.5,140.3l-0.4-0.2v-0.4l0.4,0.2V140.3z"/>
					<path d="M104.5,139.3l0.8,0.4v-0.9l-0.8-0.4V139.3z M104.7,138.7l0.4,0.2v0.4l-0.4-0.2V138.7z"/>
					<path d="M102.7,137v3.3l2.9,1.7v-3.3L102.7,137z M102.8,137.3l2.6,1.5v3l-2.6-1.5V137.3z"/>
				</g>
			</g>
		</g>
		<g>
			<g>
				<polygon class="st50" points="166,146.1 145.4,134.2 124.8,146.1 124.8,165.7 145.4,177.7 166,165.8 				"/>
				<polygon class="st51" points="124.8,146.1 124.8,165.7 145.4,177.7 145.4,158 				"/>
				<polygon class="st26" points="138,168.8 138,171.5 143.7,174.8 143.7,172.1 				"/>
				<polygon class="st52" points="145.4,158 145.4,177.7 166,165.8 166,146.1 				"/>
				<polygon class="st47" points="137.5,138.8 132.7,141.5 153.4,153.4 153.4,162.4 158.1,159.6 158.1,150.7 				"/>
				<polygon class="st49" points="153.4,153.4 153.4,162.4 158.1,159.6 158.1,150.7 				"/>
			</g>
			<g>
				<polygon class="st26" points="126.7,150.6 130.5,152.7 130.5,157.3 126.7,155.1 				"/>
				<g>
					<polygon class="st47" points="128.6,153.5 128.6,153.9 128.2,153.7 128.2,153.3 					"/>
					<path class="st47" d="M127.8,153l0.4,0.2v-0.9l-0.8-0.4v0.9v0.4l0.4,0.2V153z M127.7,152.7v-0.4l0.4,0.2v0.4L127.7,152.7z"/>
					<polygon class="st47" points="129.8,155.9 129.4,155.7 129.4,155.3 129.8,155.5 					"/>
					<path class="st47" d="M129,154.2v0.4l-0.8-0.4v-0.4l-0.4-0.2v0.4l-0.4-0.2v0.9l0.8,0.4v-0.4l0.4,0.2v0.4l0.4,0.2V155l0.4,0.2
						v-0.4l0.4,0.2v-0.4l-0.4-0.2L129,154.2z M128,154.7l-0.4-0.2V154l0.4,0.2V154.7z"/>
					<path class="st47" d="M129,153.7l0.8,0.4v-0.9l-0.8-0.4V153.7z M129.2,153.2l0.4,0.2v0.4l-0.4-0.2V153.2z"/>
					<path class="st47" d="M127.2,151.4v3.3l2.9,1.7v-3.3L127.2,151.4z M127.3,151.7l2.6,1.5v3l-2.6-1.5V151.7z"/>
				</g>
			</g>
		</g>
	</g>
	<g>
		<g>
			<g>
				<polygon class="st26" points="164.6,96.1 144,84.2 123.4,96 123.4,115.7 144,127.6 164.6,115.8 				"/>
				<polygon class="st45" points="123.4,96 123.4,115.7 144,127.6 144,108 				"/>
				<polygon class="st47" points="136.6,118.8 136.6,121.5 142.3,124.8 142.3,122.1 				"/>
				<polygon class="st48" points="144,108 144,127.6 164.6,115.8 164.6,96.1 				"/>
				<polygon class="st47" points="136,88.7 131.3,91.5 152,103.4 152,112.3 156.7,109.6 156.7,100.7 				"/>
				<polygon class="st49" points="152,103.4 152,112.3 156.7,109.6 156.7,100.7 				"/>
			</g>
			<g>
				<polygon class="st26" points="125.3,100.5 129.1,102.7 129.1,107.3 125.3,105.1 				"/>
				<g>
					<polygon class="st47" points="127.2,103.5 127.2,103.9 126.8,103.7 126.8,103.2 					"/>
					<path class="st47" d="M126.4,103l0.4,0.2v-0.9l-0.8-0.4v0.9v0.4l0.4,0.2V103z M126.3,102.7v-0.4l0.4,0.2v0.4L126.3,102.7z"/>
					<polygon class="st47" points="128.4,105.9 128,105.7 128,105.2 128.4,105.5 					"/>
					<path class="st47" d="M127.6,104.1v0.4l-0.8-0.4v-0.4l-0.4-0.2v0.4l-0.4-0.2v0.9l0.8,0.4v-0.4l0.4,0.2v0.4l0.4,0.2V105l0.4,0.2
						v-0.4l0.4,0.2v-0.4l-0.4-0.2L127.6,104.1z M126.6,104.7l-0.4-0.2V104l0.4,0.2V104.7z"/>
					<path class="st47" d="M127.6,103.7l0.8,0.4v-0.9l-0.8-0.4V103.7z M127.8,103.1l0.4,0.2v0.4l-0.4-0.2V103.1z"/>
					<path class="st47" d="M125.8,101.4v3.3l2.9,1.7v-3.3L125.8,101.4z M125.9,101.7l2.6,1.5v3l-2.6-1.5V101.7z"/>
				</g>
			</g>
		</g>
		<g>
			<g>
				<polygon class="st26" points="189.1,110.5 168.5,98.6 147.9,110.5 147.9,130.1 168.5,142.1 189.1,130.2 				"/>
				<polygon class="st45" points="147.9,110.5 147.9,130.1 168.5,142.1 168.5,122.4 				"/>
				<polygon class="st47" points="161.1,133.2 161.1,135.9 166.8,139.2 166.8,136.5 				"/>
				<polygon class="st48" points="168.5,122.4 168.5,142.1 189.1,130.2 189.1,110.5 				"/>
				<polygon class="st47" points="160.5,103.2 155.8,105.9 176.5,117.8 176.5,126.8 181.2,124 181.2,115.1 				"/>
				<polygon class="st49" points="176.5,117.8 176.5,126.8 181.2,124 181.2,115.1 				"/>
			</g>
			<g>
				<polygon class="st26" points="149.8,115 153.6,117.1 153.6,121.7 149.8,119.5 				"/>
				<g>
					<polygon class="st47" points="151.7,117.9 151.7,118.3 151.3,118.1 151.3,117.7 					"/>
					<path class="st47" d="M150.9,117.4l0.4,0.2v-0.9l-0.8-0.4v0.9v0.4l0.4,0.2V117.4z M150.8,117.1v-0.4l0.4,0.2v0.4L150.8,117.1z"
						/>
					<polygon class="st47" points="152.9,120.3 152.5,120.1 152.5,119.7 152.9,119.9 					"/>
					<path class="st47" d="M152.1,118.5v0.4l-0.8-0.4v-0.4l-0.4-0.2v0.4l-0.4-0.2v0.9l0.8,0.4V119l0.4,0.2v0.4l0.4,0.2v-0.4l0.4,0.2
						v-0.4l0.4,0.2V119l-0.4-0.2L152.1,118.5z M151.1,119.1l-0.4-0.2v-0.4l0.4,0.2V119.1z"/>
					<path class="st47" d="M152.1,118.1l0.8,0.4v-0.9l-0.8-0.4V118.1z M152.3,117.6l0.4,0.2v0.4l-0.4-0.2V117.6z"/>
					<path class="st47" d="M150.3,115.8v3.3l2.9,1.7v-3.3L150.3,115.8z M150.4,116.1l2.6,1.5v3l-2.6-1.5V116.1z"/>
				</g>
			</g>
		</g>
		<g>
			<g>
				<polygon class="st50" points="141.5,109.6 120.9,97.6 100.3,109.5 100.3,129.2 120.9,141.1 141.5,129.2 				"/>
				<polygon class="st51" points="100.3,109.5 100.3,129.2 120.9,141.1 120.9,121.4 				"/>
				<polygon class="st26" points="113.5,132.2 113.5,135 119.2,138.3 119.2,135.6 				"/>
				<polygon class="st52" points="120.9,121.4 120.9,141.1 141.5,129.2 141.5,109.6 				"/>
				<polygon class="st47" points="113,102.2 108.2,104.9 128.9,116.9 128.9,125.8 133.6,123.1 133.6,114.1 				"/>
				<polygon class="st49" points="128.9,116.9 128.9,125.8 133.6,123.1 133.6,114.1 				"/>
			</g>
			<g>
				<polygon class="st26" points="102.2,114 106,116.2 106,120.8 102.2,118.6 				"/>
				<g>
					<polygon class="st7" points="104.1,116.9 104.1,117.4 103.7,117.2 103.7,116.7 					"/>
					<path class="st7" d="M103.3,116.5l0.4,0.2v-0.9l-0.8-0.4v0.9v0.4l0.4,0.2V116.5z M103.2,116.2v-0.4l0.4,0.2v0.4L103.2,116.2z"
						/>
					<polygon class="st7" points="105.3,119.4 104.9,119.2 104.9,118.7 105.3,118.9 					"/>
					<path class="st7" d="M104.5,117.6v0.4l-0.8-0.4v-0.4l-0.4-0.2v0.4l-0.4-0.2v0.9l0.8,0.4V118l0.4,0.2v0.4l0.4,0.2v-0.4l0.4,0.2
						v-0.4l0.4,0.2V118l-0.4-0.2L104.5,117.6z M103.5,118.2l-0.4-0.2v-0.4l0.4,0.2V118.2z"/>
					<path class="st7" d="M104.5,117.2l0.8,0.4v-0.9l-0.8-0.4V117.2z M104.7,116.6l0.4,0.2v0.4l-0.4-0.2V116.6z"/>
					<path class="st7" d="M102.7,114.9v3.3l2.9,1.7v-3.3L102.7,114.9z M102.8,115.2l2.6,1.5v3l-2.6-1.5V115.2z"/>
				</g>
			</g>
		</g>
		<g>
			<g>
				<polygon class="st50" points="166,124 145.4,112.1 124.8,123.9 124.8,143.6 145.4,155.5 166,143.6 				"/>
				<polygon class="st51" points="124.8,123.9 124.8,143.6 145.4,155.5 145.4,135.8 				"/>
				<polygon class="st26" points="138,146.6 138,149.4 143.7,152.7 143.7,150 				"/>
				<polygon class="st52" points="145.4,135.8 145.4,155.5 166,143.6 166,124 				"/>
				<polygon class="st47" points="137.5,116.6 132.7,119.4 153.4,131.3 153.4,140.2 158.1,137.5 158.1,128.5 				"/>
				<polygon class="st49" points="153.4,131.3 153.4,140.2 158.1,137.5 158.1,128.5 				"/>
			</g>
			<g>
				<polygon class="st26" points="126.7,128.4 130.5,130.6 130.5,135.2 126.7,133 				"/>
				<g>
					<polygon points="128.6,131.4 128.6,131.8 128.2,131.6 128.2,131.1 					"/>
					<path d="M127.8,130.9l0.4,0.2v-0.9l-0.8-0.4v0.9v0.4l0.4,0.2V130.9z M127.7,130.6v-0.4l0.4,0.2v0.4L127.7,130.6z"/>
					<polygon points="129.8,133.8 129.4,133.6 129.4,133.1 129.8,133.3 					"/>
					<path d="M129,132v0.4l-0.8-0.4v-0.4l-0.4-0.2v0.4l-0.4-0.2v0.9l0.8,0.4v-0.4l0.4,0.2v0.4l0.4,0.2v-0.4l0.4,0.2v-0.4l0.4,0.2
						v-0.4l-0.4-0.2L129,132z M128,132.6l-0.4-0.2v-0.4l0.4,0.2V132.6z"/>
					<path d="M129,131.6l0.8,0.4v-0.9l-0.8-0.4V131.6z M129.2,131l0.4,0.2v0.4l-0.4-0.2V131z"/>
					<path d="M127.2,129.3v3.3l2.9,1.7V131L127.2,129.3z M127.3,129.6l2.6,1.5v3l-2.6-1.5V129.6z"/>
				</g>
			</g>
		</g>
	</g>
	<g>
		<g>
			<g>
				<polygon class="st50" points="164.6,73.9 144,62 123.4,73.9 123.4,93.6 144,105.5 164.6,93.6 				"/>
				<polygon class="st51" points="123.4,73.9 123.4,93.6 144,105.5 144,85.8 				"/>
				<polygon class="st47" points="136.6,96.6 136.6,99.4 142.3,102.7 142.3,99.9 				"/>
				<polygon class="st52" points="144,85.8 144,105.5 164.6,93.6 164.6,73.9 				"/>
				<polygon class="st26" points="136,66.6 131.3,69.3 152,81.2 152,90.2 156.7,87.5 156.7,78.5 				"/>
				<polygon class="st49" points="152,81.2 152,90.2 156.7,87.5 156.7,78.5 				"/>
			</g>
			<g>
				<polygon class="st26" points="125.3,78.4 129.1,80.6 129.1,85.2 125.3,83 				"/>
				<g>
					<polygon class="st47" points="127.2,81.3 127.2,81.8 126.8,81.6 126.8,81.1 					"/>
					<path class="st47" d="M126.4,80.9l0.4,0.2v-0.9l-0.8-0.4v0.9v0.4l0.4,0.2V80.9z M126.3,80.6v-0.4l0.4,0.2v0.4L126.3,80.6z"/>
					<polygon class="st47" points="128.4,83.8 128,83.6 128,83.1 128.4,83.3 					"/>
					<path class="st47" d="M127.6,82v0.4l-0.8-0.4v-0.4l-0.4-0.2v0.4l-0.4-0.2v0.9l0.8,0.4v-0.4l0.4,0.2v0.4l0.4,0.2v-0.4l0.4,0.2
						v-0.4l0.4,0.2v-0.4l-0.4-0.2L127.6,82z M126.6,82.6l-0.4-0.2v-0.4l0.4,0.2V82.6z"/>
					<path class="st47" d="M127.6,81.6l0.8,0.4v-0.9l-0.8-0.4V81.6z M127.8,81l0.4,0.2v0.4l-0.4-0.2V81z"/>
					<path class="st47" d="M125.8,79.3v3.3l2.9,1.7v-3.3L125.8,79.3z M125.9,79.6l2.6,1.5v3l-2.6-1.5V79.6z"/>
				</g>
			</g>
		</g>
		<g>
			<g>
				<polygon class="st50" points="189.1,88.4 168.5,76.5 147.9,88.3 147.9,108 168.5,119.9 189.1,108 				"/>
				<polygon class="st51" points="147.9,88.3 147.9,108 168.5,119.9 168.5,100.2 				"/>
				<polygon class="st47" points="161.1,111 161.1,113.8 166.8,117.1 166.8,114.4 				"/>
				<polygon class="st52" points="168.5,100.2 168.5,119.9 189.1,108 189.1,88.4 				"/>
				<polygon class="st26" points="160.5,81 155.8,83.8 176.5,95.7 176.5,104.6 181.2,101.9 181.2,92.9 				"/>
				<polygon class="st49" points="176.5,95.7 176.5,104.6 181.2,101.9 181.2,92.9 				"/>
			</g>
			<g>
				<polygon class="st26" points="149.8,92.8 153.6,95 153.6,99.6 149.8,97.4 				"/>
				<g>
					<polygon class="st47" points="151.7,95.8 151.7,96.2 151.3,96 151.3,95.5 					"/>
					<path class="st47" d="M150.9,95.3l0.4,0.2v-0.9l-0.8-0.4v0.9v0.4l0.4,0.2V95.3z M150.8,95v-0.4l0.4,0.2v0.4L150.8,95z"/>
					<polygon class="st47" points="152.9,98.2 152.5,98 152.5,97.5 152.9,97.7 					"/>
					<path class="st47" d="M152.1,96.4v0.4l-0.8-0.4V96l-0.4-0.2v0.4l-0.4-0.2v0.9l0.8,0.4v-0.4l0.4,0.2v0.4l0.4,0.2v-0.4l0.4,0.2
						v-0.4l0.4,0.2v-0.4l-0.4-0.2L152.1,96.4z M151.1,97l-0.4-0.2v-0.4l0.4,0.2V97z"/>
					<path class="st47" d="M152.1,96l0.8,0.4v-0.9l-0.8-0.4V96z M152.3,95.4l0.4,0.2v0.4l-0.4-0.2V95.4z"/>
					<path class="st47" d="M150.3,93.7V97l2.9,1.7v-3.3L150.3,93.7z M150.4,94l2.6,1.5v3l-2.6-1.5V94z"/>
				</g>
			</g>
		</g>
		<g>
			<g>
				<polygon class="st50" points="141.5,87.4 120.9,75.5 100.3,87.4 100.3,107.1 120.9,119 141.5,107.1 				"/>
				<polygon class="st51" points="100.3,87.4 100.3,107.1 120.9,119 120.9,99.3 				"/>
				<polygon class="st26" points="113.5,110.1 113.5,112.8 119.2,116.2 119.2,113.4 				"/>
				<polygon class="st52" points="120.9,99.3 120.9,119 141.5,107.1 141.5,87.4 				"/>
				<polygon class="st26" points="113,80.1 108.2,82.8 128.9,94.7 128.9,103.7 133.6,101 133.6,92 				"/>
				<polygon class="st49" points="128.9,94.7 128.9,103.7 133.6,101 133.6,92 				"/>
			</g>
			<g>
				<polygon class="st26" points="102.2,91.9 106,94.1 106,98.6 102.2,96.5 				"/>
				<g>
					<polygon class="st7" points="104.1,94.8 104.1,95.3 103.7,95 103.7,94.6 					"/>
					<path class="st7" d="M103.3,94.4l0.4,0.2v-0.9l-0.8-0.4v0.9v0.4l0.4,0.2V94.4z M103.2,94v-0.4l0.4,0.2v0.4L103.2,94z"/>
					<polygon class="st7" points="105.3,97.2 104.9,97 104.9,96.6 105.3,96.8 					"/>
					<path class="st7" d="M104.5,95.5v0.4l-0.8-0.4V95l-0.4-0.2v0.4L103,95v0.9l0.8,0.4v-0.4l0.4,0.2v0.4l0.4,0.2v-0.4l0.4,0.2v-0.4
						l0.4,0.2v-0.4l-0.4-0.2L104.5,95.5z M103.5,96l-0.4-0.2v-0.4l0.4,0.2V96z"/>
					<path class="st7" d="M104.5,95l0.8,0.4v-0.9l-0.8-0.4V95z M104.7,94.5l0.4,0.2v0.4l-0.4-0.2V94.5z"/>
					<path class="st7" d="M102.7,92.7v3.3l2.9,1.7v-3.3L102.7,92.7z M102.8,93l2.6,1.5v3l-2.6-1.5V93z"/>
				</g>
			</g>
		</g>
		<g>
			<g>
				<polygon class="st50" points="166,101.8 145.4,89.9 124.8,101.8 124.8,121.5 145.4,133.4 166,121.5 				"/>
				<polygon class="st51" points="124.8,101.8 124.8,121.5 145.4,133.4 145.4,113.7 				"/>
				<polygon class="st26" points="138,124.5 138,127.2 143.7,130.6 143.7,127.8 				"/>
				<polygon class="st52" points="145.4,113.7 145.4,133.4 166,121.5 166,101.8 				"/>
				<polygon class="st26" points="137.5,94.5 132.7,97.2 153.4,109.1 153.4,118.1 158.1,115.4 158.1,106.4 				"/>
				<polygon class="st49" points="153.4,109.1 153.4,118.1 158.1,115.4 158.1,106.4 				"/>
			</g>
			<g>
				<polygon class="st26" points="126.7,106.3 130.5,108.5 130.5,113 126.7,110.9 				"/>
				<g>
					<polygon class="st7" points="128.6,109.2 128.6,109.7 128.2,109.5 128.2,109 					"/>
					<path class="st47" d="M127.8,108.8l0.4,0.2v-0.9l-0.8-0.4v0.9v0.4l0.4,0.2V108.8z M127.7,108.5V108l0.4,0.2v0.4L127.7,108.5z"
						/>
					<polygon class="st47" points="129.8,111.7 129.4,111.4 129.4,111 129.8,111.2 					"/>
					<path class="st7" d="M129,109.9v0.4l-0.8-0.4v-0.4l-0.4-0.2v0.4l-0.4-0.2v0.9l0.8,0.4v-0.4l0.4,0.2v0.4l0.4,0.2v-0.4l0.4,0.2
						v-0.4l0.4,0.2v-0.4l-0.4-0.2L129,109.9z M128,110.4l-0.4-0.2v-0.4l0.4,0.2V110.4z"/>
					<path class="st7" d="M129,109.5l0.8,0.4V109l-0.8-0.4V109.5z M129.2,108.9l0.4,0.2v0.4l-0.4-0.2V108.9z"/>
					<path class="st7" d="M127.2,107.2v3.3l2.9,1.7v-3.3L127.2,107.2z M127.3,107.5l2.6,1.5v3l-2.6-1.5V107.5z"/>
				</g>
			</g>
		</g>
	</g>
</g>
<g>
	<polygon class="st0" points="252.6,192.9 204.5,165.2 193.6,165.2 145.5,192.9 193.6,220.7 204.5,220.7 	"/>
	<g>
		<g>
			<polygon class="st39" points="145.5,191.4 151.2,188 199.3,215.8 199.3,217.4 193.6,220.7 145.5,192.9 			"/>
			<polygon class="st40" points="193.6,219.1 193.6,220.7 145.5,192.9 145.5,191.4 			"/>
			<polygon class="st41" points="199.3,215.8 199.3,217.4 193.6,220.7 193.6,219.1 			"/>
		</g>
		<g>
			<polygon class="st42" points="193.6,204.4 187.8,207.8 187.8,215.8 193.6,219.1 199.3,215.8 199.3,207.8 			"/>
			<polygon class="st40" points="187.8,207.8 187.8,215.8 193.6,219.1 193.6,211.1 			"/>
			<polygon class="st41" points="193.6,211.1 193.6,219.1 199.3,215.8 199.3,207.8 			"/>
		</g>
		<g>
			<polygon class="st42" points="151.3,180 145.5,183.4 145.5,191.4 151.2,194.7 157,191.4 157,183.3 			"/>
			<polygon class="st41" points="151.2,186.7 151.2,194.7 157,191.4 157,183.3 			"/>
			<polygon class="st40" points="145.5,183.4 145.5,191.4 151.2,194.7 151.2,186.7 			"/>
		</g>
		<g>
			<polygon class="st43" points="145.5,181.8 151.2,178.4 199.3,206.2 199.3,207.8 193.6,211.1 145.5,183.3 			"/>
			<polygon class="st39" points="199.3,206.2 151.2,178.4 145.5,181.8 193.6,209.5 			"/>
			<polygon class="st40" points="193.6,209.5 193.6,211.1 145.5,183.3 145.5,181.8 			"/>
			<polygon class="st41" points="199.3,206.2 199.3,207.8 193.6,211.1 193.6,209.5 			"/>
		</g>
		<g>
			<polygon class="st39" points="187.8,166.9 193.6,163.6 241.6,191.4 241.6,192.9 235.9,196.3 187.8,168.5 			"/>
			<polygon class="st40" points="235.9,194.7 235.9,196.3 187.8,168.5 187.8,166.9 			"/>
			<polygon class="st41" points="241.6,191.4 241.6,192.9 235.9,196.3 235.9,194.7 			"/>
		</g>
		<g>
			<polygon class="st42" points="235.9,180 230.1,183.3 230.1,191.4 235.9,194.7 241.6,191.4 241.6,183.3 			"/>
			<polygon class="st41" points="235.9,186.7 235.9,194.7 241.6,191.4 241.6,183.3 			"/>
			<polygon class="st40" points="230.1,183.3 230.1,191.4 235.9,194.7 235.9,186.7 			"/>
		</g>
		<g>
			<polygon class="st42" points="193.6,155.6 187.8,158.9 187.8,166.9 193.6,170.3 199.3,166.9 199.3,158.9 			"/>
			<polygon class="st43" points="193.6,162.2 193.6,170.3 199.3,166.9 199.3,158.9 			"/>
			<polygon class="st44" points="187.8,158.9 187.8,166.9 193.6,170.3 193.6,162.2 			"/>
		</g>
		<g>
			<polygon class="st43" points="187.8,157.3 193.6,154 241.6,181.8 241.6,183.3 235.9,186.7 187.8,158.9 			"/>
			<polygon class="st45" points="241.6,181.8 193.6,154 187.8,157.3 235.9,185.1 			"/>
			<polygon class="st40" points="235.9,185.1 235.9,186.7 187.8,158.9 187.8,157.3 			"/>
			<polygon class="st41" points="241.6,181.8 241.6,183.3 235.9,186.7 235.9,185.1 			"/>
		</g>
		<g>
			<g>
				<polygon class="st46" points="199.3,155.8 193.6,152.4 145.5,180.2 145.5,181.8 151.2,185.1 199.3,157.3 				"/>
				<polygon class="st40" points="151.2,183.5 151.2,185.1 199.3,157.3 199.3,155.8 				"/>
				<polygon class="st41" points="145.5,180.2 145.5,181.8 151.2,185.1 151.2,183.5 				"/>
			</g>
			<g>
				<polygon class="st46" points="207.9,160.7 202.1,157.4 154,185.1 154,186.7 159.8,190 207.9,162.3 				"/>
				<polygon class="st40" points="159.8,188.5 159.8,190 207.9,162.3 207.9,160.7 				"/>
				<polygon class="st41" points="154,185.1 154,186.7 159.8,190 159.8,188.5 				"/>
			</g>
			<g>
				<polygon class="st46" points="216.3,165.6 210.5,162.3 162.5,190 162.5,191.6 168.2,194.9 216.3,167.2 				"/>
				<polygon class="st40" points="168.2,193.3 168.2,194.9 216.3,167.2 216.3,165.6 				"/>
				<polygon class="st41" points="162.5,190 162.5,191.6 168.2,194.9 168.2,193.3 				"/>
			</g>
			<g>
				<polygon class="st46" points="224.7,170.4 219,167.1 170.9,194.9 170.9,196.5 176.7,199.8 224.7,172 				"/>
				<polygon class="st40" points="176.7,198.2 176.7,199.8 224.7,172 224.7,170.4 				"/>
				<polygon class="st41" points="170.9,194.9 170.9,196.5 176.7,199.8 176.7,198.2 				"/>
			</g>
			<g>
				<polygon class="st46" points="233.2,175.3 227.4,172 179.4,199.7 179.4,201.3 185.1,204.6 233.2,176.9 				"/>
				<polygon class="st40" points="185.1,203.1 185.1,204.6 233.2,176.9 233.2,175.3 				"/>
				<polygon class="st41" points="179.4,199.7 179.4,201.3 185.1,204.6 185.1,203.1 				"/>
			</g>
			<g>
				<polygon class="st46" points="241.6,180.2 235.9,176.9 187.8,204.6 187.8,206.2 193.6,209.5 241.6,181.8 				"/>
				<polygon class="st40" points="193.6,207.9 193.6,209.5 241.6,181.8 241.6,180.2 				"/>
				<polygon class="st41" points="187.8,204.6 187.8,206.2 193.6,209.5 193.6,207.9 				"/>
			</g>
		</g>
	</g>
	<g>
		<g>
			<g>
				<polygon class="st26" points="214.6,147 194,135.1 173.4,146.9 173.4,166.6 194,178.5 214.6,166.6 				"/>
				<polygon class="st45" points="173.4,146.9 173.4,166.6 194,178.5 194,158.8 				"/>
				<polygon class="st47" points="186.6,169.6 186.6,172.4 192.4,175.7 192.4,173 				"/>
				<polygon class="st48" points="194,158.8 194,178.5 214.6,166.6 214.6,147 				"/>
				<polygon class="st47" points="186.1,139.6 181.3,142.4 202,154.3 202,163.2 206.7,160.5 206.7,151.5 				"/>
				<polygon class="st49" points="202,154.3 202,163.2 206.7,160.5 206.7,151.5 				"/>
			</g>
			<g>
				<polygon class="st26" points="175.4,151.4 179.1,153.6 179.1,158.2 175.4,156 				"/>
				<g>
					<polygon class="st47" points="177.2,154.4 177.2,154.8 176.8,154.6 176.8,154.1 					"/>
					<path class="st47" d="M176.5,153.9l0.4,0.2v-0.9l-0.8-0.4v0.9v0.4l0.4,0.2V153.9z M176.3,153.6v-0.4l0.4,0.2v0.4L176.3,153.6z"
						/>
					<polygon class="st47" points="178.4,156.8 178,156.6 178,156.1 178.4,156.3 					"/>
					<path class="st47" d="M177.6,155v0.4l-0.8-0.4v-0.4l-0.4-0.2v0.4l-0.4-0.2v0.9l0.8,0.4v-0.4l0.4,0.2v0.4l0.4,0.2v-0.4l0.4,0.2
						v-0.4l0.4,0.2v-0.4l-0.4-0.2L177.6,155z M176.7,155.6l-0.4-0.2v-0.4l0.4,0.2V155.6z"/>
					<path class="st47" d="M177.6,154.6l0.8,0.4v-0.9l-0.8-0.4V154.6z M177.8,154l0.4,0.2v0.4l-0.4-0.2V154z"/>
					<path class="st47" d="M175.8,152.3v3.3l2.9,1.7V154L175.8,152.3z M175.9,152.6l2.6,1.5v3l-2.6-1.5V152.6z"/>
				</g>
			</g>
		</g>
		<g>
			<g>
				<polygon class="st50" points="239.1,161.4 218.5,149.5 197.9,161.3 197.9,181 218.5,192.9 239.1,181.1 				"/>
				<polygon class="st51" points="197.9,161.3 197.9,181 218.5,192.9 218.5,173.3 				"/>
				<polygon class="st47" points="211.1,184.1 211.1,186.8 216.9,190.1 216.9,187.4 				"/>
				<polygon class="st52" points="218.5,173.3 218.5,192.9 239.1,181.1 239.1,161.4 				"/>
				<polygon class="st26" points="210.6,154 205.8,156.8 226.5,168.7 226.5,177.6 231.2,174.9 231.2,166 				"/>
				<polygon class="st49" points="226.5,168.7 226.5,177.6 231.2,174.9 231.2,166 				"/>
			</g>
			<g>
				<polygon class="st26" points="199.9,165.8 203.6,168 203.6,172.6 199.9,170.4 				"/>
				<g>
					<polygon class="st47" points="201.7,168.8 201.7,169.2 201.3,169 201.3,168.5 					"/>
					<path class="st47" d="M201,168.3l0.4,0.2v-0.9l-0.8-0.4v0.9v0.4l0.4,0.2V168.3z M200.8,168v-0.4l0.4,0.2v0.4L200.8,168z"/>
					<polygon class="st47" points="202.9,171.2 202.5,171 202.5,170.5 202.9,170.8 					"/>
					<path class="st47" d="M202.1,169.4v0.4l-0.8-0.4V169l-0.4-0.2v0.4l-0.4-0.2v0.9l0.8,0.4v-0.4l0.4,0.2v0.4l0.4,0.2v-0.4l0.4,0.2
						v-0.4l0.4,0.2v-0.4l-0.4-0.2L202.1,169.4z M201.2,170l-0.4-0.2v-0.4l0.4,0.2V170z"/>
					<path class="st47" d="M202.1,169l0.8,0.4v-0.9l-0.8-0.4V169z M202.3,168.4l0.4,0.2v0.4l-0.4-0.2V168.4z"/>
					<path class="st47" d="M200.3,166.7v3.3l2.9,1.7v-3.3L200.3,166.7z M200.5,167l2.6,1.5v3l-2.6-1.5V167z"/>
				</g>
			</g>
		</g>
		<g>
			<g>
				<polygon class="st50" points="191.5,160.4 170.9,148.5 150.3,160.4 150.3,180.1 170.9,192 191.5,180.1 				"/>
				<polygon class="st51" points="150.3,160.4 150.3,180.1 170.9,192 170.9,172.3 				"/>
				<polygon class="st26" points="163.5,183.1 163.5,185.8 169.3,189.2 169.3,186.4 				"/>
				<polygon class="st52" points="170.9,172.3 170.9,192 191.5,180.1 191.5,160.4 				"/>
				<polygon class="st47" points="163,153.1 158.2,155.8 178.9,167.7 178.9,176.7 183.6,174 183.6,165 				"/>
				<polygon class="st49" points="178.9,167.7 178.9,176.7 183.6,174 183.6,165 				"/>
			</g>
			<g>
				<polygon class="st26" points="152.3,164.9 156,167.1 156,171.6 152.3,169.5 				"/>
				<g>
					<polygon class="st47" points="154.1,167.8 154.1,168.3 153.8,168 153.8,167.6 					"/>
					<path class="st47" d="M153.4,167.4l0.4,0.2v-0.9l-0.8-0.4v0.9v0.4l0.4,0.2V167.4z M153.2,167v-0.4l0.4,0.2v0.4L153.2,167z"/>
					<polygon class="st47" points="155.3,170.3 154.9,170 154.9,169.6 155.3,169.8 					"/>
					<path class="st47" d="M154.5,168.5v0.4l-0.8-0.4V168l-0.4-0.2v0.4L153,168v0.9l0.8,0.4v-0.4l0.4,0.2v0.4l0.4,0.2v-0.4l0.4,0.2
						v-0.4l0.4,0.2v-0.4l-0.4-0.2L154.5,168.5z M153.6,169l-0.4-0.2v-0.4l0.4,0.2V169z"/>
					<path class="st47" d="M154.5,168l0.8,0.4v-0.9l-0.8-0.4V168z M154.7,167.5l0.4,0.2v0.4l-0.4-0.2V167.5z"/>
					<path class="st47" d="M152.7,165.8v3.3l2.9,1.7v-3.3L152.7,165.8z M152.9,166.1l2.6,1.5v3l-2.6-1.5V166.1z"/>
				</g>
			</g>
		</g>
		<g>
			<g>
				<polygon class="st50" points="216,174.9 195.4,162.9 174.8,174.8 174.8,194.5 195.4,206.4 216,194.5 				"/>
				<polygon class="st51" points="174.8,174.8 174.8,194.5 195.4,206.4 195.4,186.7 				"/>
				<polygon class="st26" points="188,197.5 188,200.3 193.8,203.6 193.8,200.9 				"/>
				<polygon class="st52" points="195.4,186.7 195.4,206.4 216,194.5 216,174.9 				"/>
				<polygon class="st26" points="187.5,167.5 182.7,170.2 203.4,182.2 203.4,191.1 208.1,188.4 208.1,179.4 				"/>
				<polygon class="st49" points="203.4,182.2 203.4,191.1 208.1,188.4 208.1,179.4 				"/>
			</g>
			<g>
				<polygon class="st26" points="176.8,179.3 180.5,181.5 180.5,186.1 176.8,183.9 				"/>
				<g>
					<polygon class="st47" points="178.6,182.2 178.6,182.7 178.3,182.5 178.3,182 					"/>
					<path class="st47" d="M177.9,181.8l0.4,0.2v-0.9l-0.8-0.4v0.9v0.4l0.4,0.2V181.8z M177.7,181.5V181l0.4,0.2v0.4L177.7,181.5z"
						/>
					<polygon class="st47" points="179.8,184.7 179.4,184.5 179.4,184 179.8,184.2 					"/>
					<path class="st47" d="M179,182.9v0.4l-0.8-0.4v-0.4l-0.4-0.2v0.4l-0.4-0.2v0.9l0.8,0.4v-0.4l0.4,0.2v0.4l0.4,0.2v-0.4l0.4,0.2
						v-0.4l0.4,0.2v-0.4l-0.4-0.2L179,182.9z M178.1,183.5l-0.4-0.2v-0.4l0.4,0.2V183.5z"/>
					<path class="st47" d="M179,182.5l0.8,0.4V182l-0.8-0.4V182.5z M179.2,181.9l0.4,0.2v0.4l-0.4-0.2V181.9z"/>
					<path class="st47" d="M177.2,180.2v3.3l2.9,1.7v-3.3L177.2,180.2z M177.4,180.5l2.6,1.5v3l-2.6-1.5V180.5z"/>
				</g>
			</g>
		</g>
	</g>
	<g>
		<g>
			<g>
				<polygon class="st26" points="214.6,124.8 194,112.9 173.4,124.8 173.4,144.5 194,156.4 214.6,144.5 				"/>
				<polygon class="st45" points="173.4,124.8 173.4,144.5 194,156.4 194,136.7 				"/>
				<polygon class="st47" points="186.6,147.5 186.6,150.2 192.4,153.6 192.4,150.8 				"/>
				<polygon class="st48" points="194,136.7 194,156.4 214.6,144.5 214.6,124.8 				"/>
				<polygon class="st47" points="186.1,117.5 181.3,120.2 202,132.1 202,141.1 206.7,138.4 206.7,129.4 				"/>
				<polygon class="st49" points="202,132.1 202,141.1 206.7,138.4 206.7,129.4 				"/>
			</g>
			<g>
				<polygon class="st26" points="175.4,129.3 179.1,131.5 179.1,136 175.4,133.9 				"/>
				<g>
					<polygon class="st47" points="177.2,132.2 177.2,132.7 176.8,132.4 176.8,132 					"/>
					<path class="st47" d="M176.5,131.8l0.4,0.2v-0.9l-0.8-0.4v0.9v0.4l0.4,0.2V131.8z M176.3,131.4V131l0.4,0.2v0.4L176.3,131.4z"
						/>
					<polygon class="st47" points="178.4,134.7 178,134.4 178,134 178.4,134.2 					"/>
					<path class="st47" d="M177.6,132.9v0.4l-0.8-0.4v-0.4l-0.4-0.2v0.4l-0.4-0.2v0.9l0.8,0.4v-0.4l0.4,0.2v0.4l0.4,0.2v-0.4
						l0.4,0.2v-0.4l0.4,0.2v-0.4l-0.4-0.2L177.6,132.9z M176.7,133.4l-0.4-0.2v-0.4l0.4,0.2V133.4z"/>
					<path class="st47" d="M177.6,132.4l0.8,0.4V132l-0.8-0.4V132.4z M177.8,131.9l0.4,0.2v0.4l-0.4-0.2V131.9z"/>
					<path class="st47" d="M175.8,130.2v3.3l2.9,1.7v-3.3L175.8,130.2z M175.9,130.4l2.6,1.5v3l-2.6-1.5V130.4z"/>
				</g>
			</g>
		</g>
		<g>
			<g>
				<polygon class="st50" points="239.1,139.2 218.5,127.3 197.9,139.2 197.9,158.9 218.5,170.8 239.1,158.9 				"/>
				<polygon class="st51" points="197.9,139.2 197.9,158.9 218.5,170.8 218.5,151.1 				"/>
				<polygon class="st47" points="211.1,161.9 211.1,164.7 216.9,168 216.9,165.3 				"/>
				<polygon class="st52" points="218.5,151.1 218.5,170.8 239.1,158.9 239.1,139.2 				"/>
				<polygon class="st26" points="210.6,131.9 205.8,134.6 226.5,146.6 226.5,155.5 231.2,152.8 231.2,143.8 				"/>
				<polygon class="st49" points="226.5,146.6 226.5,155.5 231.2,152.8 231.2,143.8 				"/>
			</g>
			<g>
				<polygon class="st26" points="199.9,143.7 203.6,145.9 203.6,150.5 199.9,148.3 				"/>
				<g>
					<polygon class="st47" points="201.7,146.6 201.7,147.1 201.3,146.9 201.3,146.4 					"/>
					<path class="st47" d="M201,146.2l0.4,0.2v-0.9l-0.8-0.4v0.9v0.4l0.4,0.2V146.2z M200.8,145.9v-0.4l0.4,0.2v0.4L200.8,145.9z"/>
					<polygon class="st47" points="202.9,149.1 202.5,148.9 202.5,148.4 202.9,148.6 					"/>
					<path class="st47" d="M202.1,147.3v0.4l-0.8-0.4v-0.4l-0.4-0.2v0.4l-0.4-0.2v0.9l0.8,0.4v-0.4l0.4,0.2v0.4l0.4,0.2v-0.4
						l0.4,0.2V148l0.4,0.2v-0.4l-0.4-0.2L202.1,147.3z M201.2,147.9l-0.4-0.2v-0.4l0.4,0.2V147.9z"/>
					<path class="st47" d="M202.1,146.9l0.8,0.4v-0.9l-0.8-0.4V146.9z M202.3,146.3l0.4,0.2v0.4l-0.4-0.2V146.3z"/>
					<path class="st47" d="M200.3,144.6v3.3l2.9,1.7v-3.3L200.3,144.6z M200.5,144.9l2.6,1.5v3l-2.6-1.5V144.9z"/>
				</g>
			</g>
		</g>
		<g>
			<g>
				<polygon class="st50" points="191.5,138.3 170.9,126.4 150.3,138.3 150.3,158 170.9,169.9 191.5,158 				"/>
				<polygon class="st51" points="150.3,138.3 150.3,158 170.9,169.9 170.9,150.2 				"/>
				<polygon class="st26" points="163.5,161 163.5,163.7 169.3,167 169.3,164.3 				"/>
				<polygon class="st52" points="170.9,150.2 170.9,169.9 191.5,158 191.5,138.3 				"/>
				<polygon class="st47" points="163,131 158.2,133.7 178.9,145.6 178.9,154.6 183.6,151.8 183.6,142.9 				"/>
				<polygon class="st49" points="178.9,145.6 178.9,154.6 183.6,151.8 183.6,142.9 				"/>
			</g>
			<g>
				<polygon class="st26" points="152.3,142.8 156,144.9 156,149.5 152.3,147.3 				"/>
				<g>
					<polygon class="st47" points="154.1,145.7 154.1,146.1 153.8,145.9 153.8,145.5 					"/>
					<path class="st47" d="M153.4,145.3l0.4,0.2v-0.9l-0.8-0.4v0.9v0.4l0.4,0.2V145.3z M153.2,144.9v-0.4l0.4,0.2v0.4L153.2,144.9z"
						/>
					<polygon class="st47" points="155.3,148.1 154.9,147.9 154.9,147.5 155.3,147.7 					"/>
					<path class="st47" d="M154.5,146.4v0.4l-0.8-0.4v-0.4l-0.4-0.2v0.4l-0.4-0.2v0.9l0.8,0.4v-0.4l0.4,0.2v0.4l0.4,0.2v-0.4
						l0.4,0.2V147l0.4,0.2v-0.4l-0.4-0.2L154.5,146.4z M153.6,146.9l-0.4-0.2v-0.4l0.4,0.2V146.9z"/>
					<path class="st47" d="M154.5,145.9l0.8,0.4v-0.9l-0.8-0.4V145.9z M154.7,145.4l0.4,0.2v0.4l-0.4-0.2V145.4z"/>
					<path class="st47" d="M152.7,143.6v3.3l2.9,1.7v-3.3L152.7,143.6z M152.9,143.9l2.6,1.5v3l-2.6-1.5V143.9z"/>
				</g>
			</g>
		</g>
		<g>
			<g>
				<polygon class="st50" points="216,152.7 195.4,140.8 174.8,152.7 174.8,172.4 195.4,184.3 216,172.4 				"/>
				<polygon class="st51" points="174.8,152.7 174.8,172.4 195.4,184.3 195.4,164.6 				"/>
				<polygon class="st26" points="188,175.4 188,178.1 193.8,181.5 193.8,178.7 				"/>
				<polygon class="st52" points="195.4,164.6 195.4,184.3 216,172.4 216,152.7 				"/>
				<polygon class="st26" points="187.5,145.4 182.7,148.1 203.4,160 203.4,169 208.1,166.3 208.1,157.3 				"/>
				<polygon class="st49" points="203.4,160 203.4,169 208.1,166.3 208.1,157.3 				"/>
			</g>
			<g>
				<polygon class="st26" points="176.8,157.2 180.5,159.4 180.5,163.9 176.8,161.8 				"/>
				<g>
					<polygon class="st47" points="178.6,160.1 178.6,160.6 178.3,160.3 178.3,159.9 					"/>
					<path class="st47" d="M177.9,159.7l0.4,0.2V159l-0.8-0.4v0.9v0.4l0.4,0.2V159.7z M177.7,159.3v-0.4l0.4,0.2v0.4L177.7,159.3z"
						/>
					<polygon class="st47" points="179.8,162.5 179.4,162.3 179.4,161.9 179.8,162.1 					"/>
					<path class="st47" d="M179,160.8v0.4l-0.8-0.4v-0.4l-0.4-0.2v0.4l-0.4-0.2v0.9l0.8,0.4v-0.4l0.4,0.2v0.4l0.4,0.2v-0.4l0.4,0.2
						v-0.4l0.4,0.2v-0.4l-0.4-0.2L179,160.8z M178.1,161.3l-0.4-0.2v-0.4l0.4,0.2V161.3z"/>
					<path class="st47" d="M179,160.3l0.8,0.4v-0.9l-0.8-0.4V160.3z M179.2,159.8l0.4,0.2v0.4l-0.4-0.2V159.8z"/>
					<path class="st47" d="M177.2,158v3.3l2.9,1.7v-3.3L177.2,158z M177.4,158.3l2.6,1.5v3l-2.6-1.5V158.3z"/>
				</g>
			</g>
		</g>
	</g>
	<g>
		<g>
			<g>
				<polygon class="st50" points="214.6,102.7 194,90.8 173.4,102.7 173.4,122.4 194,134.3 214.6,122.4 				"/>
				<polygon class="st51" points="173.4,102.7 173.4,122.4 194,134.3 194,114.6 				"/>
				<polygon class="st47" points="186.6,125.4 186.6,128.1 192.4,131.4 192.4,128.7 				"/>
				<polygon class="st52" points="194,114.6 194,134.3 214.6,122.4 214.6,102.7 				"/>
				<polygon class="st26" points="186.1,95.4 181.3,98.1 202,110 202,119 206.7,116.2 206.7,107.3 				"/>
				<polygon class="st49" points="202,110 202,119 206.7,116.2 206.7,107.3 				"/>
			</g>
			<g>
				<polygon class="st26" points="175.4,107.2 179.1,109.3 179.1,113.9 175.4,111.7 				"/>
				<g>
					<polygon class="st47" points="177.2,110.1 177.2,110.5 176.8,110.3 176.8,109.9 					"/>
					<path class="st47" d="M176.5,109.7l0.4,0.2V109l-0.8-0.4v0.9v0.4l0.4,0.2V109.7z M176.3,109.3v-0.4l0.4,0.2v0.4L176.3,109.3z"
						/>
					<polygon class="st47" points="178.4,112.5 178,112.3 178,111.9 178.4,112.1 					"/>
					<path class="st47" d="M177.6,110.8v0.4l-0.8-0.4v-0.4l-0.4-0.2v0.4l-0.4-0.2v0.9l0.8,0.4v-0.4l0.4,0.2v0.4l0.4,0.2v-0.4
						l0.4,0.2v-0.4l0.4,0.2v-0.4L178,111L177.6,110.8z M176.7,111.3l-0.4-0.2v-0.4l0.4,0.2V111.3z"/>
					<path class="st47" d="M177.6,110.3l0.8,0.4v-0.9l-0.8-0.4V110.3z M177.8,109.8l0.4,0.2v0.4l-0.4-0.2V109.8z"/>
					<path class="st47" d="M175.8,108v3.3l2.9,1.7v-3.3L175.8,108z M175.9,108.3l2.6,1.5v3l-2.6-1.5V108.3z"/>
				</g>
			</g>
		</g>
		<g>
			<g>
				<polygon class="st50" points="239.1,117.1 218.5,105.2 197.9,117.1 197.9,136.8 218.5,148.7 239.1,136.8 				"/>
				<polygon class="st51" points="197.9,117.1 197.9,136.8 218.5,148.7 218.5,129 				"/>
				<polygon class="st26" points="211.1,139.8 211.1,142.5 216.9,145.9 216.9,143.1 				"/>
				<polygon class="st52" points="218.5,129 218.5,148.7 239.1,136.8 239.1,117.1 				"/>
				<polygon class="st26" points="210.6,109.8 205.8,112.5 226.5,124.4 226.5,133.4 231.2,130.7 231.2,121.7 				"/>
				<polygon class="st49" points="226.5,124.4 226.5,133.4 231.2,130.7 231.2,121.7 				"/>
			</g>
			<g>
				<polygon class="st26" points="199.9,121.6 203.6,123.8 203.6,128.3 199.9,126.2 				"/>
				<g>
					<polygon class="st47" points="201.7,124.5 201.7,125 201.3,124.7 201.3,124.3 					"/>
					<path class="st47" d="M201,124.1l0.4,0.2v-0.9l-0.8-0.4v0.9v0.4l0.4,0.2V124.1z M200.8,123.7v-0.4l0.4,0.2v0.4L200.8,123.7z"/>
					<polygon class="st47" points="202.9,126.9 202.5,126.7 202.5,126.3 202.9,126.5 					"/>
					<path class="st47" d="M202.1,125.2v0.4l-0.8-0.4v-0.4l-0.4-0.2v0.4l-0.4-0.2v0.9l0.8,0.4v-0.4l0.4,0.2v0.4l0.4,0.2v-0.4
						l0.4,0.2v-0.4l0.4,0.2v-0.4l-0.4-0.2L202.1,125.2z M201.2,125.7l-0.4-0.2v-0.4l0.4,0.2V125.7z"/>
					<path class="st47" d="M202.1,124.7l0.8,0.4v-0.9l-0.8-0.4V124.7z M202.3,124.2l0.4,0.2v0.4l-0.4-0.2V124.2z"/>
					<path class="st47" d="M200.3,122.4v3.3l2.9,1.7v-3.3L200.3,122.4z M200.5,122.7l2.6,1.5v3l-2.6-1.5V122.7z"/>
				</g>
			</g>
		</g>
		<g>
			<g>
				<polygon class="st50" points="191.5,116.2 170.9,104.3 150.3,116.1 150.3,135.8 170.9,147.7 191.5,135.9 				"/>
				<polygon class="st51" points="150.3,116.1 150.3,135.8 170.9,147.7 170.9,128.1 				"/>
				<polygon class="st26" points="163.5,138.9 163.5,141.6 169.3,144.9 169.3,142.2 				"/>
				<polygon class="st52" points="170.9,128.1 170.9,147.7 191.5,135.9 191.5,116.2 				"/>
				<polygon class="st26" points="163,108.8 158.2,111.6 178.9,123.5 178.9,132.4 183.6,129.7 183.6,120.8 				"/>
				<polygon class="st49" points="178.9,123.5 178.9,132.4 183.6,129.7 183.6,120.8 				"/>
			</g>
			<g>
				<polygon class="st26" points="152.3,120.6 156,122.8 156,127.4 152.3,125.2 				"/>
				<g>
					<polygon class="st47" points="154.1,123.6 154.1,124 153.8,123.8 153.8,123.3 					"/>
					<path class="st47" d="M153.4,123.1l0.4,0.2v-0.9L153,122v0.9v0.4l0.4,0.2V123.1z M153.2,122.8v-0.4l0.4,0.2v0.4L153.2,122.8z"
						/>
					<polygon class="st47" points="155.3,126 154.9,125.8 154.9,125.3 155.3,125.6 					"/>
					<path class="st47" d="M154.5,124.2v0.4l-0.8-0.4v-0.4l-0.4-0.2v0.4l-0.4-0.2v0.9l0.8,0.4v-0.4l0.4,0.2v0.4l0.4,0.2v-0.4
						l0.4,0.2v-0.4l0.4,0.2v-0.4l-0.4-0.2L154.5,124.2z M153.6,124.8l-0.4-0.2v-0.4l0.4,0.2V124.8z"/>
					<path class="st47" d="M154.5,123.8l0.8,0.4v-0.9l-0.8-0.4V123.8z M154.7,123.2l0.4,0.2v0.4l-0.4-0.2V123.2z"/>
					<path class="st47" d="M152.7,121.5v3.3l2.9,1.7v-3.3L152.7,121.5z M152.9,121.8l2.6,1.5v3l-2.6-1.5V121.8z"/>
				</g>
			</g>
		</g>
		<g>
			<g>
				<polygon class="st50" points="216,130.6 195.4,118.7 174.8,130.6 174.8,150.2 195.4,162.2 216,150.3 				"/>
				<polygon class="st51" points="174.8,130.6 174.8,150.2 195.4,162.2 195.4,142.5 				"/>
				<polygon class="st26" points="188,153.3 188,156 193.8,159.3 193.8,156.6 				"/>
				<polygon class="st52" points="195.4,142.5 195.4,162.2 216,150.3 216,130.6 				"/>
				<polygon class="st26" points="187.5,123.3 182.7,126 203.4,137.9 203.4,146.9 208.1,144.1 208.1,135.2 				"/>
				<polygon class="st49" points="203.4,137.9 203.4,146.9 208.1,144.1 208.1,135.2 				"/>
			</g>
			<g>
				<polygon class="st26" points="176.8,135.1 180.5,137.2 180.5,141.8 176.8,139.6 				"/>
				<g>
					<polygon class="st47" points="178.6,138 178.6,138.4 178.3,138.2 178.3,137.8 					"/>
					<path class="st47" d="M177.9,137.5l0.4,0.2v-0.9l-0.8-0.4v0.9v0.4l0.4,0.2V137.5z M177.7,137.2v-0.4l0.4,0.2v0.4L177.7,137.2z"
						/>
					<polygon class="st47" points="179.8,140.4 179.4,140.2 179.4,139.8 179.8,140 					"/>
					<path class="st47" d="M179,138.6v0.4l-0.8-0.4v-0.4l-0.4-0.2v0.4l-0.4-0.2v0.9l0.8,0.4v-0.4l0.4,0.2v0.4l0.4,0.2v-0.4l0.4,0.2
						v-0.4l0.4,0.2v-0.4l-0.4-0.2L179,138.6z M178.1,139.2l-0.4-0.2v-0.4l0.4,0.2V139.2z"/>
					<path class="st47" d="M179,138.2l0.8,0.4v-0.9l-0.8-0.4V138.2z M179.2,137.7l0.4,0.2v0.4l-0.4-0.2V137.7z"/>
					<path class="st47" d="M177.2,135.9v3.3l2.9,1.7v-3.3L177.2,135.9z M177.4,136.2l2.6,1.5v3l-2.6-1.5V136.2z"/>
				</g>
			</g>
		</g>
	</g>
</g>
<g>
	<g>
		<g>
			<g>
				<path class="st26" d="M77.5,27.5c-5.1-3-9.3-10.2-9.3-16c0-2.9,1-5,2.8-6.1c1.8-1,4.2-0.8,6.7,0.7c5.1,3,9.3,10.2,9.3,16
					c0,2.9-1,5-2.8,6.1c-0.7,0.4-1.6,0.6-2.5,0.6C80.4,28.8,78.9,28.3,77.5,27.5z M71.2,5.7c-1.7,1-2.6,3-2.6,5.8
					c0,5.8,4.1,12.8,9.1,15.7c2.4,1.4,4.7,1.6,6.4,0.6c1.7-1,2.6-3,2.6-5.8c0-5.8-4.1-12.8-9.1-15.7c-1.4-0.8-2.8-1.2-4-1.2
					C72.6,5.1,71.8,5.3,71.2,5.7z"/>
			</g>
		</g>
	</g>
	<path class="st26" d="M79.2,21.7c0,1.1-0.8,1.5-1.7,1c-0.9-0.5-1.7-1.8-1.7-2.9c0-1.1,0.8-1.5,1.7-1C78.4,19.3,79.2,20.6,79.2,21.7
		z M77.5,15.7c-1.6-0.9-2.9-0.5-3.3,0.9l0.8,1.3c0.2-1.4,1.3-1.9,2.6-1.1c1.3,0.8,2.4,2.5,2.6,4.1l0.8-0.4
		C80.4,18.5,79.1,16.6,77.5,15.7z M77.5,13.6c-2-1.2-3.8-0.9-4.7,0.5l0.7,1.2c0.7-1.4,2.3-1.7,4.1-0.7c1.8,1,3.4,3.2,4,5.4l0.7-0.4
		C81.3,17.1,79.6,14.8,77.5,13.6z M77.5,11.5c-2.6-1.5-4.8-1.2-6.1,0.3l0.7,1.2c1.1-1.5,3.1-1.8,5.4-0.4c2.3,1.3,4.3,3.9,5.4,6.7
		l0.7-0.4C82.3,15.8,80.1,13,77.5,11.5z"/>
	<g>
		<path class="st26" d="M78.9,40.1c0.1,0,0.2-0.1,0.2-0.2V28.1c0-0.1-0.1-0.2-0.2-0.2s-0.2,0.1-0.2,0.2V40
			C78.7,40.1,78.8,40.1,78.9,40.1z"/>
	</g>
	<circle class="st26" cx="78.9" cy="40.1" r="0.9"/>
</g>
<g>
	<path class="st6" d="M54.1,123.4c1.9,1.1,3.6,4,3.7,6.5c0.1,2.5-1.4,3.5-3.3,2.4c-1.9-1.1-3.6-4-3.7-6.5
		C50.7,123.3,52.2,122.2,54.1,123.4z M54.5,131.6c1.7,1,2.9,0,2.8-2.1c-0.1-2.1-1.5-4.6-3.2-5.5c-1.7-1-2.9,0-2.8,2.1
		C51.4,128.2,52.8,130.7,54.5,131.6L54.5,131.6z"/>
</g>
</svg>
