<?xml version="1.0" encoding="utf-8"?>
<!-- Generator: Adobe Illustrator 27.8.1, SVG Export Plug-In . SVG Version: 6.00 Build 0)  -->
<svg version="1.1" id="Layer_1" xmlns="http://www.w3.org/2000/svg" xmlns:xlink="http://www.w3.org/1999/xlink" x="0px" y="0px"
	 viewBox="0 0 177.6 257.3" style="enable-background:new 0 0 177.6 257.3;" xml:space="preserve">
<style type="text/css">
	.st0{fill:#CCCCCC;}
	.st1{fill:#F2F2F2;}
	.st2{fill:#FFFFFF;}
	.st3{fill:#0D43C9;}
	.st4{fill:#1C66DD;}
	.st5{fill:#559CEB;}
	.st6{opacity:0.5;}
	.st7{fill:#1E76DB;}
	.st8{opacity:0.5;fill:#C2E2FF;enable-background:new    ;}
	.st9{opacity:0.8;}
	.st10{opacity:0.9;}
	.st11{fill:#666666;}
	.st12{fill:#EBC1AF;}
	.st13{fill:#AFC5E8;}
	.st14{opacity:0.1;fill:#848484;enable-background:new    ;}
	.st15{fill:#383838;}
	.st16{fill:#00537D;}
	.st17{fill:#E1251B;}
	.st18{fill:#5592E1;}
</style>
<g>
	<g>
		<g>
			<polygon class="st0" points="38.5,114.2 39.7,114.3 39.7,182.6 36.9,184.2 33.7,181.3 35.8,115.7 			"/>
			<polygon class="st1" points="36.9,184.2 7.6,167.2 7.6,99 36.9,115.9 			"/>
			<polygon class="st2" points="39.7,114.3 36.9,115.9 7.6,99 10.4,97.4 			"/>
		</g>
		<g>
			<polygon class="st3" points="37.9,114.1 36.5,114.9 36.5,113.2 37.9,112.4 			"/>
			<polygon class="st4" points="36.5,114.9 9.2,99.1 9.2,97.4 36.5,113.2 			"/>
			<polygon class="st5" points="37.9,112.4 36.5,113.2 9.2,97.4 10.6,96.7 			"/>
		</g>
	</g>
	<g class="st6">
		<polygon class="st7" points="37.5,112.6 36.9,113 36.9,59.4 37.5,59.1 		"/>
		<polygon class="st8" points="36.9,113 9.7,97.2 9.7,43.6 36.9,59.4 		"/>
		<polygon class="st5" points="10.2,96.9 9.7,97.2 9.7,43.6 10.2,43.3 		"/>
		<polygon class="st5" points="37.5,59.1 36.9,59.4 9.7,43.6 10.2,43.3 		"/>
	</g>
	<g class="st9">
		<path class="st2" d="M11.8,74.2c0,1.3,0.5,2.7,1.3,4c0.7,1.2,1.7,2.3,2.8,2.9s2.1,0.6,2.8,0.2c0.7-0.5,1.1-1.4,1.1-2.7
			c0-1.3-0.5-2.7-1.2-3.9c-0.7-1.2-1.8-2.3-2.9-2.9s-2.1-0.6-2.8-0.2C12.2,72,11.7,72.9,11.8,74.2z M13.4,75.1
			c0-0.8,0.2-1.3,0.6-1.6c0.4-0.3,1-0.3,1.7,0.1c0.6,0.4,1.3,1,1.7,1.7s0.7,1.6,0.7,2.3c0,0.8-0.2,1.3-0.7,1.6
			c-0.4,0.3-1,0.3-1.7-0.1s-1.2-1-1.7-1.7C13.7,76.7,13.4,75.8,13.4,75.1L13.4,75.1z"/>
		<path class="st2" d="M11.8,88.1c0,1.3,0.5,2.7,1.3,4c0.7,1.2,1.7,2.3,2.8,2.9s2.1,0.6,2.8,0.2s1.1-1.4,1.1-2.7
			c0-1.3-0.5-2.7-1.2-3.9c-0.7-1.2-1.8-2.3-2.9-2.9s-2.1-0.6-2.8-0.2C12.2,85.8,11.7,86.8,11.8,88.1z M13.4,88.9
			c0-0.8,0.2-1.3,0.6-1.6c0.4-0.3,1-0.3,1.7,0.1c0.6,0.4,1.3,1,1.7,1.7s0.7,1.6,0.7,2.3c0,0.8-0.2,1.3-0.7,1.6
			c-0.4,0.3-1,0.2-1.7-0.1c-0.7-0.4-1.2-1-1.7-1.7C13.7,90.5,13.4,89.7,13.4,88.9z"/>
		<polygon class="st2" points="33.2,102.8 23.7,97.4 23.7,96.1 33.2,101.6 		"/>
		<polygon class="st2" points="33.2,100.5 23.7,95 23.7,93.8 33.2,99.2 		"/>
		<polygon class="st2" points="34,85.9 23.5,79.8 23.5,76.3 34,82.4 		"/>
		<path class="st2" d="M26,82.6c1.4,0.8,2.5,2.7,2.5,4.3c0,1.6-1.1,2.2-2.5,1.4c-1.4-0.8-2.5-2.7-2.5-4.3
			C23.5,82.5,24.6,81.8,26,82.6z"/>
		<polygon class="st2" points="31.1,91.3 29.2,90.2 29.2,87.9 31.1,89 		"/>
		<polygon class="st2" points="31.1,88 29.2,86.9 29.2,84.6 31.1,85.7 		"/>
		<polygon class="st2" points="34,93 32.2,91.9 32.2,89.6 34,90.7 		"/>
		<polygon class="st2" points="34,89.7 32.2,88.6 32.2,86.3 34,87.4 		"/>
		<polygon class="st2" points="34.8,77.8 33.6,77.1 33.6,62.5 34.8,63.1 		"/>
		<polygon class="st2" points="31.7,76 30.5,75.3 30.5,65.2 31.7,65.9 		"/>
		<polygon class="st2" points="28.6,74.2 27.4,73.5 27.4,61.8 28.6,62.5 		"/>
		<polygon class="st2" points="25.5,72.4 24.3,71.7 24.3,65 25.5,65.7 		"/>
		<polygon class="st2" points="22.3,70.6 21.1,69.9 21.1,60.9 22.3,61.6 		"/>
		<polygon class="st2" points="19.2,68.8 18,68.1 18,58 19.2,58.7 		"/>
		<polygon class="st2" points="16.1,67 14.9,66.3 14.9,58.3 16.1,59 		"/>
		<polygon class="st2" points="12.9,65.2 11.8,64.5 11.8,57.8 12.9,58.4 		"/>
	</g>
</g>
<g>
	<g>
		<g>
			<g>
				<g>
					<path class="st2" d="M17.9,32.2C11.1,28.3,5.7,18.8,5.7,11.1c0-3.8,1.3-6.6,3.7-8S14.9,2,18.2,4c6.7,3.9,12.2,13.4,12.2,21.1
						c0,3.8-1.3,6.6-3.7,8c-1,0.6-2.1,0.8-3.3,0.8C21.7,33.9,19.8,33.3,17.9,32.2z M9.6,3.5c-2.2,1.3-3.4,4-3.4,7.6
						c0,7.6,5.3,16.9,12,20.7c3.2,1.8,6.1,2.1,8.4,0.9c2.2-1.3,3.4-4,3.4-7.6c0-7.6-5.3-16.9-12-20.7c-1.9-1.1-3.7-1.6-5.3-1.6
						C11.5,2.7,10.5,3,9.6,3.5z"/>
				</g>
			</g>
		</g>
		<path class="st2" d="M19.1,47.3c-0.6,0.4-0.6,0.9,0,1.3c0.6,0.4,1.6,0.4,2.2,0s0.6-0.9,0-1.3C20.7,47,19.7,47,19.1,47.3z"/>
	</g>
	<g>
		<g>
			<path class="st2" d="M18.1,21.1c-1.3-0.8-2.4-0.2-2.4,1.3s1.1,3.3,2.4,4.1c1.4,0.8,2.4,0.2,2.5-1.3
				C20.5,23.7,19.4,21.8,18.1,21.1L18.1,21.1z"/>
		</g>
		<g>
			<path class="st2" d="M18.1,14.8c-2.8-1.6-5.2-1.4-6.6,0.3c-0.2,0.2-0.1,0.6,0.1,1c0.1,0.2,0.3,0.4,0.5,0.5s0.4,0.1,0.5,0
				c1.1-1.4,3.2-1.7,5.5-0.3c2.3,1.3,4.3,3.9,5.5,6.6c0.1,0.3,0.3,0.5,0.5,0.6s0.3,0.1,0.5,0.1c0.2-0.1,0.3-0.5,0.1-0.9
				C23.3,19.4,20.9,16.4,18.1,14.8z"/>
		</g>
		<g>
			<path class="st2" d="M18.1,11.8c-3.5-2-6.6-1.9-8.5,0c-0.2,0.2-0.2,0.6,0.1,1c0.1,0.2,0.3,0.4,0.5,0.5s0.4,0.1,0.5,0
				c1.6-1.7,4.3-1.8,7.4-0.1c3.1,1.8,5.8,5,7.4,8.6c0.1,0.3,0.3,0.5,0.5,0.6s0.3,0.1,0.5,0s0.3-0.5,0.1-1
				C24.7,17.5,21.6,13.8,18.1,11.8z"/>
		</g>
		<g>
			<path class="st2" d="M18.1,17.7c-2.1-1.2-3.9-0.8-4.6,0.8c-0.1,0.2-0.1,0.6,0.1,0.9c0.1,0.2,0.3,0.4,0.5,0.5s0.5,0.1,0.6-0.1
				c0.6-1.2,1.9-1.5,3.5-0.6s2.9,2.7,3.5,4.6c0.1,0.4,0.3,0.7,0.6,0.8c0.2,0.1,0.3,0.1,0.5,0.1c0.2-0.1,0.3-0.4,0.1-0.8
				C22,21.4,20.2,19,18.1,17.7L18.1,17.7z"/>
		</g>
	</g>
	<g>
		<path class="st2" d="M20.2,48.2c0.1,0,0.2-0.1,0.2-0.2V33.1c0-0.1-0.1-0.2-0.2-0.2S20,33,20,33.1V48C19.9,48.1,20,48.2,20.2,48.2z
			"/>
	</g>
</g>
<g>
	<g>
		<g>
			<polygon class="st0" points="161.8,217.2 163.2,217.3 163.2,252.2 159.9,254.1 133.7,220.7 158.6,219 			"/>
			<polygon class="st1" points="159.9,254.1 50.7,191.1 50.7,156.2 159.9,219.2 			"/>
			<polygon class="st2" points="163.2,217.3 159.9,219.2 50.7,156.2 54,154.3 			"/>
		</g>
		<g>
			<polygon class="st3" points="161.1,217.1 159.5,218 159.5,216 161.1,215.1 			"/>
			<polygon class="st4" points="159.5,218 52.7,156.4 52.7,154.4 159.5,216 			"/>
			<polygon class="st8" points="161.1,215.1 159.5,216 52.7,154.4 54.3,153.4 			"/>
		</g>
	</g>
</g>
<g>
	<g>
		<polygon class="st8" points="95,70 95,99.2 75.5,87.9 75.5,65.5 81.3,62.1 		"/>
		<g>
			<polygon class="st2" points="91.9,89.8 78.4,82 78.4,80.2 91.9,88 			"/>
			<polygon class="st2" points="91.9,86.5 78.4,78.7 78.4,76.9 91.9,84.7 			"/>
			<polygon class="st5" points="91.9,77.9 78.4,70.1 78.4,68.3 91.9,76.1 			"/>
			<polygon class="st2" points="91.8,83.2 91.1,82.8 91.1,79.4 91.8,79.8 			"/>
			<polygon class="st2" points="90,82.1 89.3,81.7 89.3,78.4 90,78.8 			"/>
			<polygon class="st2" points="88.2,81.1 87.5,80.7 87.5,79 88.2,79.4 			"/>
			<polygon class="st2" points="86.4,80 85.7,79.6 85.7,78.3 86.4,78.7 			"/>
			<polygon class="st2" points="84.5,79 83.9,78.6 83.9,75.9 84.5,76.3 			"/>
			<polygon class="st2" points="82.7,77.9 82,77.5 82,74.2 82.7,74.6 			"/>
			<polygon class="st5" points="80.9,76.9 80.2,76.5 80.2,74.3 80.9,74.7 			"/>
			<polygon class="st5" points="79.1,75.8 78.4,75.4 78.4,74.1 79.1,74.4 			"/>
		</g>
	</g>
	<g>
		<polygon class="st8" points="73.2,91.6 73.2,120.8 53.7,109.5 53.7,87 59.5,83.7 		"/>
		<g class="st10">
			<polygon class="st2" points="70,100.5 56.9,92.8 56.9,88.5 70,96.1 			"/>
			<path class="st2" d="M59.6,97.6c1.2,0.7,2.2,2.4,2.2,3.8s-1,2-2.2,1.3s-2.2-2.4-2.2-3.8C57.4,97.5,58.4,96.9,59.6,97.6z"/>
			<path class="st2" d="M59.6,104.2c1.2,0.7,2.2,2.4,2.2,3.8s-1,2-2.2,1.3s-2.2-2.4-2.2-3.8C57.4,104.1,58.4,103.5,59.6,104.2z"/>
			<polygon class="st2" points="66.3,113.4 64,112.1 64,98.8 66.3,100.2 			"/>
			<polygon class="st2" points="70,115.6 67.7,114.2 67.7,101 70,102.3 			"/>
		</g>
	</g>
	<g>
		<polygon class="st8" points="95,104.2 95,133.3 75.5,122.1 75.5,99.6 81.3,96.3 		"/>
		<g class="st9">
			<g>
				<polygon class="st5" points="90.9,128 78.8,121.1 78.8,119.4 90.9,126.4 				"/>
				<polygon class="st5" points="90.9,125.1 78.8,118.1 78.8,116.5 90.9,123.4 				"/>
				<polygon class="st2" points="91.5,112.2 78.2,104.5 78.2,100.1 91.5,107.8 				"/>
				<path class="st2" d="M81.3,108.1c1.7,1,3.1,3.4,3.1,5.4s-1.4,2.8-3.1,1.8s-3.1-3.4-3.1-5.4C78.2,108,79.6,107.1,81.3,108.1z"/>
				<polygon class="st2" points="87.8,119.1 85.4,117.7 85.4,114.8 87.8,116.2 				"/>
				<polygon class="st2" points="87.8,114.9 85.4,113.5 85.4,110.6 87.8,112 				"/>
				<polygon class="st2" points="91.5,121.3 89.2,119.9 89.2,117 91.5,118.3 				"/>
				<polygon class="st2" points="91.5,117.1 89.2,115.7 89.2,112.8 91.5,114.1 				"/>
			</g>
		</g>
	</g>
	<g>
		<polygon class="st8" points="138.5,95.2 138.5,124.3 119,113.1 119,90.6 124.8,87.3 		"/>
		<g class="st9">
			<g>
				<path class="st2" d="M122.8,100.8c-0.4,0.3-0.6,0.8-0.6,1.5l0,0c0,0.7,0.3,1.5,0.7,2.3c0.4,0.7,1,1.3,1.6,1.7
					c0.6,0.3,1.2,0.4,1.6,0.1s0.6-0.8,0.6-1.5s-0.3-1.5-0.7-2.2c-0.4-0.7-1-1.3-1.6-1.7C123.8,100.6,123.2,100.6,122.8,100.8z
					 M123.1,102.8c0-0.4,0.1-0.7,0.4-0.9c0.2-0.2,0.6-0.1,0.9,0.1c0.4,0.2,0.7,0.6,1,1c0.2,0.4,0.4,0.9,0.4,1.3s-0.1,0.7-0.4,0.9
					c-0.2,0.1-0.6,0.1-0.9-0.1c-0.4-0.2-0.7-0.6-1-1C123.3,103.7,123.2,103.3,123.1,102.8z"/>
				<path class="st2" d="M122.8,108.7c-0.4,0.3-0.6,0.8-0.6,1.5s0.3,1.5,0.7,2.3c0.4,0.7,1,1.3,1.6,1.7c0.6,0.3,1.2,0.4,1.6,0.1
					s0.6-0.8,0.6-1.5s-0.3-1.5-0.7-2.2c-0.4-0.7-1-1.3-1.6-1.7C123.8,108.5,123.2,108.4,122.8,108.7z M123.1,110.7
					c0-0.4,0.1-0.7,0.4-0.9c0.2-0.2,0.6-0.1,0.9,0.1c0.4,0.2,0.7,0.6,1,1c0.2,0.4,0.4,0.9,0.4,1.3s-0.1,0.7-0.4,0.9
					c-0.2,0.2-0.6,0.1-0.9-0.1c-0.4-0.2-0.7-0.6-1-1C123.3,111.6,123.2,111.2,123.1,110.7z"/>
				<polygon class="st2" points="134.4,118.6 129,115.5 129,114.8 134.4,117.9 				"/>
				<polygon class="st2" points="134.4,117.3 129,114.2 129,113.5 134.4,116.6 				"/>
				<polygon class="st2" points="134.9,109 128.9,105.5 128.9,103.5 134.9,107 				"/>
				<path class="st2" d="M130.3,107.1c0.8,0.4,1.4,1.5,1.4,2.4s-0.6,1.3-1.4,0.8c-0.8-0.5-1.4-1.5-1.4-2.4S129.5,106.7,130.3,107.1z
					"/>
				<polygon class="st2" points="133.2,112.1 132.2,111.4 132.2,110.1 133.2,110.7 				"/>
				<polygon class="st2" points="133.2,110.2 132.2,109.6 132.2,108.2 133.2,108.9 				"/>
				<polygon class="st2" points="134.9,113 133.8,112.4 133.8,111.1 134.9,111.7 				"/>
				<polygon class="st2" points="134.9,111.1 133.8,110.5 133.8,109.2 134.9,109.8 				"/>
			</g>
			<g>
				<polygon class="st5" points="135.4,104.4 134.7,104 134.7,95.7 135.4,96 				"/>
				<polygon class="st5" points="133.6,103.4 132.9,103 132.9,97.2 133.6,97.6 				"/>
				<polygon class="st5" points="131.8,102.3 131.1,102 131.1,95.3 131.8,95.7 				"/>
				<polygon class="st5" points="130,101.3 129.4,100.9 129.4,97.1 130,97.5 				"/>
				<polygon class="st5" points="128.2,100.3 127.6,99.9 127.6,94.8 128.2,95.2 				"/>
				<polygon class="st5" points="126.5,99.3 125.8,98.9 125.8,93.1 126.5,93.5 				"/>
				<polygon class="st5" points="124.7,98.2 124,97.8 124,93.3 124.7,93.7 				"/>
				<polygon class="st5" points="122.9,97.2 122.2,96.8 122.2,93 122.9,93.4 				"/>
			</g>
		</g>
	</g>
	<g>
		<polygon class="st8" points="160.3,107.8 160.3,136.9 140.8,125.7 140.8,103.2 146.6,99.8 		"/>
		<g class="st10">
			<polygon class="st5" points="156.4,111.3 146.6,105.6 146.6,104.6 156.4,110.3 			"/>
			<polygon class="st5" points="153.3,112.3 146.6,108.4 146.6,107.4 153.3,111.3 			"/>
			<polygon class="st2" points="154.4,115.8 146.6,111.2 146.6,110.2 154.4,114.7 			"/>
			<polygon class="st2" points="151.1,116.6 146.6,114 146.6,113 151.1,115.6 			"/>
			<polygon class="st2" points="152.6,120.3 146.6,116.8 146.6,115.8 152.6,119.2 			"/>
			<polygon class="st2" points="153.3,123.5 146.6,119.6 146.6,118.6 153.3,122.5 			"/>
			<polygon class="st2" points="152,125.5 146.6,122.4 146.6,121.3 152,124.5 			"/>
			<polygon class="st2" points="151.1,127.8 146.6,125.2 146.6,124.1 151.1,126.7 			"/>
		</g>
	</g>
	<g>
		<polygon class="st8" points="160.3,141.9 160.3,171.1 140.8,159.8 140.8,137.3 146.6,134 		"/>
		<g class="st10">
			<polygon class="st5" points="156.6,153.4 143.8,146 143.8,144.3 156.6,151.7 			"/>
			<polygon class="st5" points="156.6,150.2 143.8,142.8 143.8,141.1 156.6,148.5 			"/>
			<polygon class="st2" points="157.9,158.9 142.6,150.1 142.6,149.2 157.9,158.1 			"/>
			<polygon class="st2" points="157.9,161.1 142.6,152.2 142.6,151.3 157.9,160.2 			"/>
			<polygon class="st2" points="157.9,163.2 142.6,154.3 142.6,153.4 157.9,162.3 			"/>
			<polygon class="st2" points="157.9,165.3 148.1,159.6 148.1,158.8 157.9,164.4 			"/>
		</g>
	</g>
	<g>
		<polygon class="st8" points="138.5,129.3 138.5,158.5 119,147.3 119,124.8 124.8,121.4 		"/>
		<g class="st10">
			<polygon class="st5" points="135.4,142.1 122.2,134.5 122.2,130.1 135.4,137.7 			"/>
			<path class="st2" d="M125.3,138.1c1.7,1,3.1,3.4,3.1,5.4s-1.4,2.8-3.1,1.8s-3.1-3.4-3.1-5.4C122.2,137.9,123.6,137.1,125.3,138.1
				z"/>
			<polygon class="st2" points="131.7,148.9 129.4,147.6 129.4,144.7 131.7,146 			"/>
			<polygon class="st2" points="131.7,144.7 129.4,143.4 129.4,140.5 131.7,141.8 			"/>
			<polygon class="st2" points="135.4,151.1 133.1,149.7 133.1,146.8 135.4,148.2 			"/>
			<polygon class="st2" points="135.4,146.9 133.1,145.5 133.1,142.6 135.4,144 			"/>
		</g>
	</g>
	<g>
		<polygon class="st8" points="73.2,57.5 73.2,86.6 53.7,75.4 53.7,52.9 59.5,49.5 		"/>
		<g class="st10">
			<path class="st5" d="M63.4,61.8L63.4,61.8c0,1.3,0.5,2.7,1.2,3.9s1.7,2.3,2.8,2.9c1.1,0.6,2.1,0.6,2.8,0.2
				c0.7-0.5,1.1-1.4,1.1-2.6c0-1.3-0.5-2.7-1.2-3.9s-1.7-2.3-2.8-2.9c-1.1-0.6-2.1-0.6-2.8-0.2C63.8,59.6,63.4,60.5,63.4,61.8z
				 M65.6,63c0-0.6,0.2-1,0.5-1.2s0.7-0.2,1.2,0.1l0,0c0.5,0.3,0.9,0.7,1.3,1.3c0.3,0.6,0.5,1.2,0.5,1.8c0,0.6-0.2,1-0.5,1.2
				s-0.8,0.2-1.2-0.1c-0.5-0.3-0.9-0.7-1.3-1.3C65.8,64.2,65.6,63.6,65.6,63z"/>
			<path class="st2" d="M63.4,73.6L63.4,73.6c0,1.3,0.5,2.7,1.2,3.9c0.7,1.2,1.7,2.3,2.8,2.9c1.1,0.6,2.1,0.6,2.8,0.2
				c0.7-0.5,1.1-1.4,1.1-2.6c0-1.3-0.5-2.7-1.2-3.9c-0.7-1.2-1.7-2.3-2.8-2.9c-1.1-0.6-2.1-0.6-2.8-0.2
				C63.8,71.4,63.4,72.3,63.4,73.6z M65.6,74.8c0-0.6,0.2-1,0.5-1.2s0.7-0.2,1.2,0.1l0,0c0.5,0.3,0.9,0.8,1.3,1.3
				c0.3,0.6,0.5,1.2,0.5,1.8c0,0.6-0.2,1-0.5,1.2s-0.8,0.2-1.2-0.1c-0.5-0.3-0.9-0.7-1.3-1.3C65.8,76,65.6,75.3,65.6,74.8z"/>
			<polygon class="st2" points="61.7,76.9 60.7,76.3 60.7,59.7 61.7,60.3 			"/>
			<polygon class="st2" points="59.1,75.4 58.1,74.8 58.1,65.8 59.1,66.4 			"/>
			<polygon class="st2" points="56.6,73.9 55.6,73.3 55.6,61.9 56.6,62.4 			"/>
		</g>
	</g>
	<g>
		<polygon class="st8" points="116.8,82.6 116.8,111.8 97.3,100.5 97.3,78 103,74.7 		"/>
		<g class="st10">
			<path class="st5" d="M112.7,90.7c0.7,0.4,1.3,1.4,1.3,2.2c0,0.8-0.6,1.1-1.3,0.7c-0.7-0.4-1.3-1.4-1.3-2.2
				C111.5,90.6,112,90.3,112.7,90.7z"/>
			<polygon class="st2" points="109.5,92.6 108.8,92.2 108.8,87.2 109.5,87.7 			"/>
			<polygon class="st2" points="107.3,91.4 106.6,90.9 106.6,86 107.3,86.4 			"/>
			<polygon class="st2" points="105.1,90.1 104.4,89.7 104.4,84.7 105.1,85.1 			"/>
			<polygon class="st5" points="102.9,88.8 102.2,88.4 102.2,83.4 102.9,83.9 			"/>
			<polygon class="st2" points="100.7,87.6 100,87.1 100,82.2 100.7,82.6 			"/>
			<polygon class="st2" points="114,106.6 100,98.5 100,95.7 114,103.8 			"/>
			<polygon class="st5" points="114,102.2 100,94.1 100,91.3 114,99.4 			"/>
		</g>
	</g>
</g>
<polygon class="st8" points="101.4,111.5 101.4,155.5 72,138.5 72,104.5 80.7,99.5 "/>
<polygon class="st2" points="98.7,151.2 73.8,136.8 73.8,135 98.7,149.4 "/>
<g>
	<polygon class="st2" points="89.9,130.5 73.8,121.2 73.8,120.2 89.9,129.5 	"/>
	<polygon class="st2" points="89.9,133.3 73.8,124 73.8,123 89.9,132.3 	"/>
	<polygon class="st2" points="89.9,136.1 73.8,126.8 73.8,125.9 89.9,135.2 	"/>
	<polygon class="st2" points="89.9,139 78.2,132.2 78.2,131.3 89.9,138 	"/>
	<polygon class="st2" points="98.7,146.3 91.5,142.2 91.5,130.5 98.7,134.6 	"/>
	<polygon class="st2" points="98.7,112.3 98.7,132.2 73.8,117.8 73.8,105.4 80.3,101.6 	"/>
</g>
<g>
	<polygon class="st5" points="97.7,124.4 96.6,123.8 96.6,118.2 97.7,118.8 	"/>
	<polygon class="st5" points="94.7,122.7 93.6,122 93.6,116.6 94.7,117.2 	"/>
	<polygon class="st5" points="91.7,121 90.5,120.3 90.5,117.6 91.7,118.2 	"/>
	<polygon class="st5" points="88.7,119.2 87.5,118.6 87.5,116.3 88.7,117 	"/>
	<polygon class="st5" points="85.7,117.5 84.5,116.8 84.5,112.4 85.7,113.1 	"/>
	<polygon class="st5" points="82.7,115.8 81.5,115.1 81.5,109.6 82.7,110.3 	"/>
	<polygon class="st5" points="79.7,114 78.5,113.4 78.5,109.9 79.7,110.5 	"/>
	<polygon class="st5" points="76.7,112.3 75.5,111.6 75.5,109.4 76.7,110.1 	"/>
</g>
<g>
	<path class="st11" d="M42,173.3h0.8l1.1,1.6l-0.1,2.9c0,0-1.2,0.6-1.3,0.7c-0.2,0.1-2.4-2.1-2.4-2.7C39.9,175.1,42,173.3,42,173.3z
		"/>
	<path class="st12" d="M33.5,164l1.7,0.5l1,1c0,0,5.4,6.8,6.1,7.3c0.2,1.3-0.6,2.4-2.4,2.8c-2.1-2.3-9.1-6.7-9.1-6.7l-0.5-1.7
		l1.5-2.6L33.5,164z"/>
	<path class="st2" d="M33.9,153.8c0,0,2.8-5.5,8.7-3.6c1.2,0.6-3.7,8.6-3.7,8.6s-2.5,2.9-4.5,3.8c-1.5,0.6-5.1,4.9-5.1,4.9
		s-3.2-3.3-2.9-6C26.7,160.1,33.9,153.8,33.9,153.8z"/>
	<path class="st2" d="M30.6,163.7c1.8-1.3,3.7-1.4,4.7-0.4c1.1,0.9,1.5,1.9,1,2.3c-0.3,0.2-0.7-0.7-2.9,0.7c-2,1.3-1.9,2.6-2.2,2.9
		c-0.7,0.5-2.7-0.8-2.7-2.1C28.5,165.9,28.8,165.1,30.6,163.7z"/>
	<path class="st13" d="M34.2,162.7c0,0-5.4-1.9-4.8-2C31.4,159.8,34.2,162.7,34.2,162.7z"/>
	<path class="st14" d="M38.8,229.6c7.5-4.3,19.7-4.3,27.2,0s7.5,11.4,0,15.7s-19.7,4.3-27.2,0C31.2,240.9,31.2,233.9,38.8,229.6z"/>
	<path class="st12" d="M50.6,146.4l2.3,2.2c0,0-0.3,2.8,0,5c0.3,1.1-1,1.1-1,1.1l-3,0.4l-3.4-1.4l-1.7-1.9c0,0,0.9-2.3,1.1-3.9
		C44.7,147,50.6,146.4,50.6,146.4z"/>
	<path class="st12" d="M54.5,137.8c0,0,2,0.4,2.2,0.9c1.6,3.2-0.7,10.4-1.3,11s-2.6,0.2-2.6,0.2s-1.9-1.5-2.2-3.1s0.9-5.4,0.9-5.4
		L54.5,137.8z"/>
	<path class="st15" d="M44.2,136.2c0.8-0.3,1.5,0,1.6-0.1s0.1-1,0.5-1.4c0,0.6,0.4,0.9,0.7,0.8c3.9-1.7,8.5,0.3,10.4,1.9
		c0,0-1,0-0.7,0.3c0.6,0.7,1,1.3,1.1,1.8c-0.6-0.5-1.2-0.6-1.4-0.2c-0.2,0.3-0.3,0.8-0.5,1.9c-0.2,1.3-0.6,2.6-0.9,2.9
		c-0.6,0.5-0.9-0.4-1.5,0c-1.6,1-1.5,4.7-3.1,5.1c-0.7,0.2-4.1,0.8-5.5-1.2c-2.5-3.6-1.7-8.2-0.1-10.7
		C45.1,137,44.9,136.7,44.2,136.2z"/>
	<path class="st16" d="M43.8,229.3c0,0,4.2-1.1,4.2,0.9c0.2,2.2-3.6,4.5-3.6,4.5s-1.8,3.8-4.2,3.9c-2.4,0.1-1.5-4.2-1.5-4.2
		L43.8,229.3z"/>
	<path class="st16" d="M58.1,237.4c0,0,4.8,1,7.8,1.5c2.9,0.5,0.5,3.9-0.4,4.1c-1.4,0.8-6.6,2.1-13.5,1.3c-2.3-0.5-1.4-4.4-1.4-4.4
		L58.1,237.4z"/>
	<path class="st2" d="M43.8,228.7c0,0,4.2-1,4.2,0.9c0.2,2.2-3.6,4.5-3.6,4.5s-1.8,3.8-4.2,3.9c-2.4,0.1-1.5-4.2-1.5-4.2L43.8,228.7
		z"/>
	<path class="st17" d="M40,208.5c-0.6-10.5-0.3-19.8-0.3-19.8l11.4,4.8c0,0-1.9,14.5-4.4,20.2c-0.7,5.2-1.1,13.8-1.3,16.4
		c-0.1,2.6-2.5,5-7.1,3.9c-0.7-0.3-0.7-2.8-0.7-5.9c-0.1-4.1,0-9.2,0-11.1C37.9,213.6,40.2,210.8,40,208.5z"/>
	<path class="st2" d="M58.1,236.8c0,0,4.8,1,7.8,1.5c2.9,0.5,0.5,3.9-0.4,4.1c-1.4,0.8-6.6,2.1-13.5,1.3c-2.3-0.5-1.4-4.4-1.4-4.4
		L58.1,236.8z"/>
	<path class="st17" d="M54.6,182.5c3.8,0.5,5.6-1.4,6.4-3.4c2.2,16-1,34.4-1,34.4s-2.4,14.6,0.2,23.6c-0.7,2.4-6.3,4.8-9.5,2.6
		c-2.4-1.7-1.2-20.8,0.6-23.6l-2.8-20.5c0,0-5.2-1.8-7.9-5.1c-2.7-3.2,1.8-13.2,1.8-13.2S51.5,182.5,54.6,182.5z"/>
	<path class="st11" d="M73.5,148.3c0-0.6,0-1.1,0-1.4c0-0.7-0.3-4,0.5-4.1c0.5-0.1,0.5,3.5,1.1,3.9c1-0.2,3.5,0.5,3.6,1.1
		c0.5,0.4,0,1.5,0,1.5s0.2,1.3-0.3,2.7c-0.3,0.7-0.8,0.9-0.8,0.9l-2.3,0.2l-1.4-0.6c0,0-1-2.6-1.1-3.4
		C72.7,148.7,73.1,148.4,73.5,148.3z"/>
	<path class="st12" d="M77.5,152.9c0,0-0.2,6.7-0.1,9.4c0.2,0.5-5.8-2.4-5.8-2.4s1.2-3.4,2.2-7.4C75,151.5,77.5,152.9,77.5,152.9z"
		/>
	<path class="st2" d="M71.9,159.3c2-0.9,5.1,0.5,5.9,2.4c1.4,3.2-1.3,4.4-1.3,4.4s-4.8-2.1-5.6-2.6C70,163,69.5,160.4,71.9,159.3z"
		/>
	<path class="st2" d="M43.9,150.7c4.7,3.4,9,2.9,9,2.9s6.1,4.3,7.5,6.5c4.4,6.5,0.3,14.8,0.5,15.7s-0.2,2.8-0.2,2.8s-0.1,1.2-2.2,3
		c-2.1,1.8-8.5-0.6-8.5-0.6l-7.2-4.9l-2.9-10.2l-1.1-1.6c0,0-0.8-1.7-1.7-6C36.3,154.4,38.6,149.3,43.9,150.7z"/>
	<path class="st17" d="M58.9,180.4c2.3-1.3,1.9-4.8,2-4.6c0.4,3-0.3,4.6-0.3,4.6l-3.8,4.1l-7.3-0.9c0,0-6.5-5.6-7.2-6.2
		c-2.3-5.2-4-14-4-14l14.5,7.2C52.8,170.6,55.9,181,58.9,180.4z"/>
	<path class="st17" d="M55.7,155.7c0,0,1.9,0.6,2.8,2.4c0,0-3.8-1.7-5.4,0.2c-3.1,3.7-1.5,12.5-1.5,12.5l-2.8-1.5
		c0,0-1.6-8.3,1.3-12C52.7,154,55.7,155.7,55.7,155.7z"/>
	<path class="st17" d="M41.2,150.7c1.4-0.6,2.7,0,2.7,0c-8.1,2.8-1.7,15.5-1.7,15.5l-2.8-1.5C39.4,164.7,34.4,153.4,41.2,150.7z"/>
	<path class="st2" d="M63.2,160.7l7,3.6c0,0,0.4-1.8,0.8-2.3c1-1.2,6.2,1.1,5.8,3.3c-0.3,2-3.9,6.4-5,6.9
		c-2.4,0.8-13.6-5.1-13.6-5.1s-6.8-1.5-4.6-6.8C55.7,155.1,63.2,160.7,63.2,160.7z"/>
</g>
<g>
	<path class="st18" d="M69.3,190.2c-0.5-0.9-0.8-2-0.8-3.3v-1.3l2.5,1.5v1.6c0,0.6,0.2,1.1,0.6,1.3c0.2,0.1,0.4,0.2,0.5,0.1
		c0.1-0.1,0.1-0.3,0.1-0.6c0-0.4-0.1-0.8-0.1-1.1c-0.1-0.3-0.2-0.6-0.4-0.9s-0.4-0.7-0.8-1.3l-1.1-1.8c-0.9-1.3-1.3-2.5-1.3-3.5
		c0-1.1,0.3-1.8,0.8-2.1c0.5-0.3,1.2-0.1,2.2,0.4c1.2,0.7,2,1.5,2.5,2.4s0.8,2,0.8,3.3l-2.6-1.5l0-0.9c0-0.2,0-0.3-0.1-0.5
		c-0.1-0.2-0.2-0.3-0.4-0.4c-0.2-0.1-0.3-0.1-0.5-0.1c-0.1,0.1-0.2,0.2-0.2,0.4c0,0.4,0.2,1,0.7,1.7l1.5,2.3c0.4,0.5,0.6,1,0.9,1.5
		c0.2,0.4,0.4,0.9,0.6,1.4c0.1,0.5,0.2,1,0.2,1.6c0,1.3-0.2,2.1-0.7,2.5c-0.5,0.4-1.2,0.3-2.3-0.4C70.7,191.9,69.8,191.1,69.3,190.2
		z"/>
	<path class="st18" d="M76.3,194.3c-0.5-0.9-0.8-1.9-0.8-3.1v-9.4l2.5,1.5v9.3c0,0.4,0,0.8,0.1,1s0.3,0.5,0.5,0.6
		c0.3,0.2,0.4,0.1,0.5,0c0.1-0.2,0.1-0.5,0.1-0.9v-9.3l2.5,1.5v9.4c0,1.2-0.3,1.9-0.8,2.2c-0.5,0.3-1.3,0.1-2.4-0.5
		C77.6,195.9,76.8,195.2,76.3,194.3z"/>
	<path class="st18" d="M83.3,198.4c-0.5-0.9-0.8-2-0.8-3.3v-1.3l2.5,1.5v1.6c0,0.6,0.2,1.1,0.6,1.3c0.2,0.1,0.4,0.2,0.5,0.1
		c0.1-0.1,0.1-0.3,0.1-0.6c0-0.4-0.1-0.8-0.1-1.1c-0.1-0.3-0.2-0.6-0.4-0.9s-0.4-0.7-0.8-1.3l-1.1-1.8c-0.9-1.3-1.3-2.5-1.3-3.5
		c0-1.1,0.3-1.8,0.8-2.1c0.5-0.3,1.2-0.1,2.2,0.4c1.2,0.7,2,1.5,2.5,2.4c0.5,0.9,0.8,2,0.8,3.3l-2.6-1.5l0-0.9c0-0.2,0-0.3-0.1-0.5
		c-0.1-0.2-0.2-0.3-0.4-0.4c-0.2-0.1-0.3-0.1-0.5-0.1c-0.1,0.1-0.2,0.2-0.2,0.4c0,0.4,0.2,1,0.7,1.7l1.5,2.3c0.4,0.5,0.6,1,0.9,1.5
		c0.2,0.4,0.4,0.9,0.6,1.4c0.1,0.5,0.2,1,0.2,1.6c0,1.3-0.2,2.1-0.7,2.5c-0.5,0.4-1.2,0.3-2.3-0.4C84.7,200.1,83.9,199.3,83.3,198.4
		z"/>
	<path class="st18" d="M90.9,203.5v-10.4l-1.5-0.9v-2.5L95,193v2.5l-1.5-0.9V205L90.9,203.5z"/>
	<path class="st18" d="M95.3,206.1l1.2-12.2l4.4,2.5l1.2,13.6l-2.4-1.4l-0.2-2.2l-1.6-0.9l-0.2,2L95.3,206.1z M98.2,203.7l1.2,0.7
		l-0.6-6.9l-0.1-0.1L98.2,203.7z"/>
	<path class="st18" d="M102.9,210.5v-12.9l2.5,1.5V212L102.9,210.5z"/>
	<path class="st18" d="M106.4,212.6v-12.9l2.7,1.5l1.2,6.9v-6.2l2.5,1.5v12.9l-2.5-1.5l-1.3-7.2v6.5L106.4,212.6z"/>
	<path class="st18" d="M113.5,216.7l1.2-12.2l4.4,2.5l1.2,13.6l-2.4-1.4l-0.2-2.2l-1.6-0.9l-0.2,2L113.5,216.7z M116.4,214.3
		l1.2,0.7L117,208l-0.1-0.1L116.4,214.3z"/>
	<path class="st18" d="M121.1,208.3l3.5,2c0.9,0.5,1.6,1.2,2,1.9c0.4,0.7,0.6,1.6,0.6,2.6v0.6c0,1.2-0.4,1.7-1.3,1.4
		c0.5,0.5,0.9,1,1.1,1.6c0.2,0.6,0.3,1.4,0.3,2.2c0,1.4-0.2,2.3-0.6,2.8c-0.4,0.5-1.2,0.4-2.2-0.2l-3.5-2V208.3z M124.2,214.9
		c0.2,0.1,0.4,0.1,0.5,0c0.1-0.1,0.1-0.3,0.1-0.6V213c0-0.4-0.2-0.7-0.6-1l-0.5-0.3v2.9L124.2,214.9z M124.9,220.2v-1.6
		c0-0.4-0.1-0.7-0.2-1s-0.3-0.5-0.6-0.7l-0.5-0.3v3.7l0.3,0.2C124.6,220.9,124.9,220.8,124.9,220.2z"/>
	<path class="st18" d="M128.2,225.3v-12.9l2.5,1.5v12.9L128.2,225.3z"/>
	<path class="st18" d="M131.8,227.4v-12.9l2.6,1.5v10.7l2.7,1.6v2.2L131.8,227.4z"/>
	<path class="st18" d="M137.6,230.8v-12.9l2.5,1.5v12.9L137.6,230.8z"/>
	<path class="st18" d="M142.2,233.5v-10.4l-1.5-0.9v-2.5l5.6,3.3v2.5l-1.5-0.9V235L142.2,233.5z"/>
	<path class="st18" d="M148.6,237.2V233l-2.1-9.9l2.6,1.5l0.7,4.8l0.7-4l2.6,1.5l-2.1,7.5v4.3L148.6,237.2z"/>
</g>
</svg>
